<svg width="21" height="20" viewBox="0 0 21 20" fill="none" xmlns="http://www.w3.org/2000/svg">
<path fill-rule="evenodd" clip-rule="evenodd" d="M2.1665 9.99984C2.1665 9.59713 2.50568 9.27067 2.92408 9.27067H18.0756C18.494 9.27067 18.8332 9.59713 18.8332 9.99984C18.8332 10.4025 18.494 10.729 18.0756 10.729H2.92408C2.50568 10.729 2.1665 10.4025 2.1665 9.99984Z" fill="white"/>
<path fill-rule="evenodd" clip-rule="evenodd" d="M8.7628 4.38007C9.05865 4.66483 9.05865 5.12651 8.7628 5.41127L3.99545 9.99984L8.7628 14.5884C9.05865 14.8732 9.05865 15.3348 8.7628 15.6196C8.46695 15.9044 7.98728 15.9044 7.69142 15.6196L2.38839 10.5154C2.09254 10.2307 2.09254 9.769 2.38839 9.48424L7.69142 4.38007C7.98728 4.09531 8.46695 4.09531 8.7628 4.38007Z" fill="white"/>
</svg>
