<svg width="17" height="12" viewBox="0 0 17 12" fill="none" xmlns="http://www.w3.org/2000/svg">
<path fill-rule="evenodd" clip-rule="evenodd" d="M16.8333 6.00016C16.8333 6.40287 16.4942 6.72933 16.0758 6.72933L0.924251 6.72933C0.505853 6.72933 0.166675 6.40287 0.166675 6.00016C0.166675 5.59746 0.505853 5.271 0.924251 5.271L16.0758 5.271C16.4942 5.271 16.8333 5.59746 16.8333 6.00016Z" fill="white"/>
<path fill-rule="evenodd" clip-rule="evenodd" d="M10.2371 11.6199C9.9412 11.3352 9.9412 10.8735 10.237 10.5887L15.0044 6.00016L10.237 1.4116C9.9412 1.12684 9.9412 0.665156 10.237 0.380398C10.5329 0.0956407 11.0126 0.0956407 11.3084 0.380398L16.6115 5.48456C16.9073 5.76932 16.9073 6.231 16.6115 6.51576L11.3084 11.6199C11.0126 11.9047 10.5329 11.9047 10.2371 11.6199Z" fill="white"/>
</svg>
