<svg width="32" height="32" viewBox="0 0 32 32" fill="none" xmlns="http://www.w3.org/2000/svg">
<path d="M15.9998 29.3337C23.3636 29.3337 29.3332 23.3641 29.3332 16.0003C29.3332 8.63653 23.3636 2.66699 15.9998 2.66699C8.63604 2.66699 2.6665 8.63653 2.6665 16.0003C2.6665 23.3641 8.63604 29.3337 15.9998 29.3337Z" fill="#F1D33D"/>
<path d="M15.9998 29.3333C19.5361 29.3333 22.9274 27.9286 25.4279 25.4281C27.9284 22.9276 29.3332 19.5362 29.3332 16H2.6665C2.6665 19.5362 4.07126 22.9276 6.57175 25.4281C7.80986 26.6662 9.27972 27.6483 10.8974 28.3184C12.5151 28.9885 14.2489 29.3333 15.9998 29.3333Z" fill="#E7A324"/>
<path d="M16.0001 28.4622C22.7881 28.4622 28.2908 22.9595 28.2908 16.1715C28.2908 9.38358 22.7881 3.88086 16.0001 3.88086C9.21219 3.88086 3.70947 9.38358 3.70947 16.1715C3.70947 22.9595 9.21219 28.4622 16.0001 28.4622Z" fill="url(#paint0_linear_2322_16953)"/>
<path d="M16 28.4586C12.7581 28.458 9.64773 27.1762 7.3466 24.8926C5.04547 22.6089 3.74004 19.5085 3.71471 16.2666V16.3693C3.68984 19.6543 4.96958 22.815 7.27294 25.1573C9.57631 27.4997 12.715 28.8323 16 28.8626C19.2857 28.8337 22.4256 27.5019 24.7301 25.1597C27.0346 22.8175 28.3152 19.6563 28.2907 16.3706C28.2907 16.3359 28.2907 16.3026 28.2907 16.2679C28.265 19.5105 26.9587 22.6114 24.6565 24.8949C22.3542 27.1785 19.2427 28.4594 16 28.4586Z" fill="#D38E26"/>
<path d="M16 26.1329C21.5965 26.1329 26.1334 21.596 26.1334 15.9995C26.1334 10.4031 21.5965 5.86621 16 5.86621C10.4035 5.86621 5.8667 10.4031 5.8667 15.9995C5.8667 21.596 10.4035 26.1329 16 26.1329Z" fill="#F9EE60"/>
<path d="M16 5.86621C13.3125 5.86621 10.7351 6.93383 8.83468 8.8342C6.93432 10.7346 5.8667 13.312 5.8667 15.9995H26.1334C26.1334 13.312 25.0658 10.7346 23.1654 8.8342C21.265 6.93383 18.6876 5.86621 16 5.86621Z" fill="#E3A22C"/>
<path d="M15.9998 25.3337C21.1545 25.3337 25.3332 21.155 25.3332 16.0003C25.3332 10.8457 21.1545 6.66699 15.9998 6.66699C10.8452 6.66699 6.6665 10.8457 6.6665 16.0003C6.6665 21.155 10.8452 25.3337 15.9998 25.3337Z" fill="url(#paint1_linear_2322_16953)"/>
<path d="M10.8642 14.5532L9.3335 16.0146L10.8642 17.4812L12.4002 16.0159L10.8642 14.5532ZM15.9855 19.4439L13.4335 17.0066L11.8788 18.4372L15.9855 22.3572L20.0922 18.4372L18.5335 17.0066L15.9855 19.4439ZM15.9855 12.5559L18.5335 14.9932L20.0868 13.5626L15.9802 9.64258L11.8735 13.5626L13.4282 14.9932L15.9855 12.5559ZM21.1362 14.5666L19.6002 16.0266L21.1308 17.4932L22.6668 16.0279L21.1362 14.5666ZM16.0215 17.4666L17.5522 15.9999L16.0215 14.5332L14.4908 15.9999L16.0215 17.4666Z" fill="white"/>
<defs>
<linearGradient id="paint0_linear_2322_16953" x1="16.0001" y1="3.77686" x2="16.0001" y2="28.4982" gradientUnits="userSpaceOnUse">
<stop stop-color="#FAEE5E"/>
<stop offset="1" stop-color="#EDC12D"/>
</linearGradient>
<linearGradient id="paint1_linear_2322_16953" x1="15.9998" y1="6.56833" x2="15.9998" y2="25.2697" gradientUnits="userSpaceOnUse">
<stop stop-color="#EFC938"/>
<stop offset="1" stop-color="#F1B62E"/>
</linearGradient>
</defs>
</svg>
