<svg width="24" height="24" viewBox="0 0 24 24" fill="none" xmlns="http://www.w3.org/2000/svg">
<path d="M23.6395 14.903C22.0368 21.3315 15.5257 25.2438 9.09643 23.6408C2.66976 22.038 -1.24259 15.5266 0.360877 9.0984C1.96285 2.66909 8.47392 -1.24363 14.9014 0.35909C21.3303 1.96184 25.2423 8.47402 23.6395 14.903Z" fill="#F7931A"/>
<path d="M8.05281 14.021C7.98757 14.183 7.8222 14.426 7.44944 14.3337C7.46259 14.3529 6.49247 14.0949 6.49247 14.0949L5.83887 15.602L7.5522 16.0291C7.87095 16.109 8.18333 16.1926 8.49082 16.2714L7.94593 18.4591L9.26105 18.7872L9.80067 16.6227C10.1599 16.7202 10.5087 16.8102 10.8499 16.895L10.3122 19.0493L11.6288 19.3774L12.1737 17.1938C14.4188 17.6187 16.107 17.4473 16.8176 15.4167C17.3902 13.7818 16.7891 12.8386 15.6079 12.2236C16.4681 12.0253 17.1161 11.4594 17.289 10.2905C17.5278 8.69379 16.3121 7.83542 14.6497 7.2628L15.189 5.0998L13.8723 4.77168L13.3474 6.87765C13.0012 6.7914 12.6457 6.71003 12.2925 6.62939L12.8212 4.50952L11.5054 4.1814L10.9658 6.34362C10.6792 6.27838 10.398 6.21385 10.125 6.14599L10.1265 6.13923L8.31076 5.68586L7.96049 7.0921C7.96049 7.0921 8.93737 7.31598 8.91674 7.32985C9.45 7.46298 9.54636 7.81582 9.53026 8.09561L8.05281 14.021ZM14.2807 14.5089C13.8739 16.1438 11.121 15.26 10.2285 15.0383L10.9515 12.14C11.844 12.3627 14.706 12.8037 14.2807 14.5089ZM14.688 10.2669C14.3167 11.7542 12.0255 10.9985 11.2823 10.8133L11.9378 8.18455C12.681 8.3698 15.0746 8.71554 14.688 10.2669Z" fill="white"/>
</svg>
