<svg width="24" height="24" viewBox="0 0 24 24" fill="none" xmlns="http://www.w3.org/2000/svg">
<g clip-path="url(#clip0_7841_45192)">
<path d="M10.0247 15.6605L8.54481 23.0406L8.3523 24.0008C8.25292 24.0008 8.1535 23.9786 8.06181 23.9337L7.38292 23.6047V23.6042L2.04827 21.0165C1.81909 20.9055 1.67383 20.6724 1.67383 20.4177V13.648C1.67383 13.5158 1.71292 13.3898 1.78239 13.2832L10.0247 15.6605Z" fill="#E5CAF3"/>
<path d="M8.54482 23.04L8.35231 24.0003C8.25293 24.0003 8.15351 23.9781 8.06182 23.9332L7.38293 23.6041V23.6037L8.54482 23.04Z" fill="#D9B1EE"/>
<path d="M14.9231 13.283L12.0021 15.3407L8.35218 16.4716L1.78223 13.283C1.84696 13.184 1.93827 13.1023 2.04838 13.0487L8.06184 10.1311C8.24151 10.0441 8.45071 10.0422 8.63137 10.1258C8.63521 10.1272 8.6391 10.1292 8.64295 10.1311L14.6569 13.0487C14.767 13.1023 14.8583 13.1839 14.9231 13.283Z" fill="#6C7FD8"/>
<path d="M12.718 13.0487C12.8281 13.1023 12.9194 13.1839 12.9841 13.2829C13.0537 13.3892 13.0928 13.5153 13.0928 13.6476V14.1711L13.8468 14.0411L14.9231 13.2829C14.8583 13.1839 14.767 13.1023 14.6569 13.0487L8.64293 10.1311C8.63909 10.1291 8.6352 10.1272 8.63136 10.1258C8.4507 10.0422 8.24154 10.0442 8.06183 10.1311L7.38293 10.4605L12.718 13.0487Z" fill="#4F66D0"/>
<path d="M15.0317 20.4169C15.0317 20.6719 14.8863 20.9048 14.6569 21.0159L8.35217 23.1335V16.4713L13.0928 14.1709L15.0317 20.4169Z" fill="#CB97E7"/>
<path d="M14.9231 13.2832L13.0928 14.1713V20.4173C13.0928 20.6723 12.9474 20.9052 12.718 21.0163L8.35217 23.1339V24.0005C8.45169 24.0005 8.5512 23.9783 8.64299 23.9334L14.6569 21.0163C14.8864 20.9052 15.0318 20.6723 15.0318 20.4173V13.6479C15.0317 13.5156 14.9926 13.3895 14.9231 13.2832Z" fill="#BD80E1"/>
<path d="M3.55938 19.8341C3.35951 19.8341 3.19751 19.672 3.19751 19.4722V18.1539C3.19751 17.954 3.35956 17.792 3.55938 17.792C3.75921 17.792 3.92126 17.954 3.92126 18.1539V19.4722C3.92126 19.672 3.75926 19.8341 3.55938 19.8341Z" fill="#BD80E1"/>
<path d="M3.55951 17.0323C3.75936 17.0323 3.92138 16.8703 3.92138 16.6705C3.92138 16.4706 3.75936 16.3086 3.55951 16.3086C3.35965 16.3086 3.19763 16.4706 3.19763 16.6705C3.19763 16.8703 3.35965 17.0323 3.55951 17.0323Z" fill="#CB97E7"/>
<path d="M20.9604 15.3737L19.9865 15.0859C19.8742 15.0527 19.7532 15.0947 19.6856 15.1903L19.0992 16.0194C18.9357 16.2505 18.5793 16.2 18.4865 15.9325L16.6007 10.4967L19.5018 9.49023L21.3876 14.926C21.4803 15.1935 21.2319 15.4539 20.9604 15.3737Z" fill="#D8ECFE"/>
<path d="M21.3876 14.926L19.5018 9.49023L18.3792 9.87972L20.1299 14.926C20.149 14.9811 20.1581 15.055 20.1584 15.1367L20.9604 15.3737C21.2319 15.4539 21.4804 15.1935 21.3876 14.926Z" fill="#C4E2FF"/>
<path d="M11.5533 15.3737L12.5272 15.0859C12.6395 15.0527 12.7605 15.0947 12.8281 15.1903L12.9572 15.3729L15.913 10.4967L13.012 9.49023L11.1261 14.926C11.0334 15.1935 11.2818 15.4539 11.5533 15.3737Z" fill="#D8ECFE"/>
<path d="M14.7316 10.0869L12.9573 15.373L13.4145 16.0195C13.578 16.2506 13.9344 16.2 14.0272 15.9326L15.913 10.4968L14.7316 10.0869Z" fill="#C4E2FF"/>
<path d="M17.01 0.268241C17.6824 -0.278088 18.6946 0.0507874 18.9175 0.888022C19.0629 1.4344 19.5716 1.80396 20.1362 1.77344C21.0013 1.72671 21.6269 2.58771 21.3151 3.39607C21.1116 3.9236 21.3059 4.52154 21.7806 4.82876C22.508 5.29947 22.508 6.36368 21.7806 6.8344C21.3059 7.14157 21.1116 7.73951 21.3151 8.26708C21.6269 9.07544 21.0013 9.9364 20.1362 9.88971L19.747 9.49015C17.7501 11.2001 16.5832 11.1738 16.5832 11.1738C16.2007 11.0401 15.8327 11.1275 15.5036 11.3949C14.8312 11.9412 13.819 11.6123 13.5961 10.7751C13.4507 10.2287 12.9421 9.85915 12.3774 9.88966C11.5123 9.9364 10.8868 9.0754 11.1985 8.26704C11.402 7.73951 11.2077 7.14157 10.733 6.83435C10.0057 6.36363 10.0057 5.29943 10.733 4.82871C11.2077 4.52154 11.402 3.9236 11.1985 3.39602C10.8868 2.58766 11.5123 1.72671 12.3774 1.7734C12.9421 1.80391 13.4507 1.43435 13.5961 0.887975C13.819 0.0507405 14.8312 -0.278134 15.5036 0.268194C15.9424 0.624772 16.5712 0.624772 17.01 0.268241Z" fill="#FFD15B"/>
<path d="M21.7805 4.82871C21.3058 4.52149 21.1115 3.92355 21.315 3.39602C21.6268 2.58766 21.0012 1.72671 20.1361 1.7734C19.5715 1.80391 19.0629 1.43435 18.9174 0.887975C18.6945 0.0507405 17.6823 -0.278134 17.0099 0.268194C16.8809 0.373006 16.7353 0.446131 16.5831 0.489303C18.4607 1.53054 19.7317 3.53243 19.7317 5.83151C19.7317 8.13058 18.4607 10.1324 16.5831 11.1737C16.7353 11.2169 16.8809 11.29 17.0099 11.3948C17.6823 11.9411 18.6945 11.6123 18.9174 10.775C19.0629 10.2287 19.5715 9.8591 20.1361 9.88962C21.0012 9.93635 21.6268 9.07535 21.315 8.26699C21.1115 7.73946 21.3058 7.14152 21.7805 6.8343C22.5079 6.36363 22.5079 5.29943 21.7805 4.82871Z" fill="#FFC344"/>
<path d="M20.1362 5.83148C20.1362 6.81365 19.1702 8.39165 19.1702 8.39165C18.4593 9.19907 17.4172 9.7109 16.2568 9.7109C14.1143 9.7109 12.3774 7.97404 12.3774 5.83152C12.3774 3.68901 14.1143 1.95215 16.2568 1.95215C17.4182 1.95215 18.4605 2.46252 19.1715 3.27126C19.1715 3.27116 20.1362 4.85038 20.1362 5.83148Z" fill="#918291"/>
<path d="M16.4052 7.17522L17.2974 7.6443C17.5115 7.75685 17.7617 7.57507 17.7208 7.33671L17.5504 6.34324C17.5326 6.23979 17.567 6.13422 17.6421 6.06091L18.364 5.35732C18.5372 5.18852 18.4416 4.89438 18.2023 4.8596L17.2048 4.71466C17.1009 4.69957 17.0111 4.63432 16.9646 4.54019L16.5185 3.6363C16.4115 3.41941 16.1022 3.41941 15.9952 3.6363L15.5491 4.54019C15.5026 4.63432 15.4128 4.69957 15.3089 4.71466L14.3114 4.8596C14.0721 4.89438 13.9765 5.18852 14.1497 5.35732L14.8716 6.06091C14.9467 6.13418 14.981 6.23974 14.9633 6.34324L14.7929 7.33671C14.752 7.57507 15.0022 7.75685 15.2163 7.6443L16.1085 7.17522C16.2013 7.12638 16.3123 7.12638 16.4052 7.17522Z" fill="#FFE177"/>
<path d="M20.1362 5.83166C20.1362 4.85028 19.7711 3.95473 19.1702 3.27148C19.5304 4.05012 19.7317 4.91731 19.7317 5.83166C19.7317 6.746 19.5304 7.61314 19.1702 8.39183C19.771 7.70858 20.1362 6.81298 20.1362 5.83166Z" fill="#7A6D79"/>
<path d="M7.84192 1.04522C7.64162 1.04522 7.47925 0.882844 7.47925 0.682547V0.362672C7.47925 0.162375 7.64162 0 7.84192 0C8.04222 0 8.20459 0.162375 8.20459 0.362672V0.682547C8.20459 0.882844 8.04222 1.04522 7.84192 1.04522Z" fill="#60B7FF"/>
<path d="M7.84192 3.13506C7.64162 3.13506 7.47925 2.97269 7.47925 2.77239V2.45252C7.47925 2.25222 7.64162 2.08984 7.84192 2.08984C8.04222 2.08984 8.20459 2.25222 8.20459 2.45252V2.77239C8.20459 2.97269 8.04222 3.13506 7.84192 3.13506Z" fill="#60B7FF"/>
<path d="M9.04705 1.93042H8.72717C8.52688 1.93042 8.3645 1.76805 8.3645 1.56775C8.3645 1.36745 8.52688 1.20508 8.72717 1.20508H9.04705C9.24735 1.20508 9.40972 1.36745 9.40972 1.56775C9.40972 1.76805 9.24735 1.93042 9.04705 1.93042Z" fill="#26A6FE"/>
<path d="M6.95672 1.93042H6.63684C6.43654 1.93042 6.27417 1.76805 6.27417 1.56775C6.27417 1.36745 6.43654 1.20508 6.63684 1.20508H6.95672C7.15701 1.20508 7.31939 1.36745 7.31939 1.56775C7.31939 1.76805 7.15701 1.93042 6.95672 1.93042Z" fill="#26A6FE"/>
</g>
<defs>
<clipPath id="clip0_7841_45192">
<rect width="24" height="24" fill="white"/>
</clipPath>
</defs>
</svg>
