<svg width="24" height="31" viewBox="0 0 24 31" fill="none" xmlns="http://www.w3.org/2000/svg">
<path d="M0 19.2491C0.0749854 19.1201 0.159344 18.991 0.229643 18.8561C1.13415 17.067 2.02929 15.272 2.93849 13.4829C3.00879 13.3421 3.14001 13.2131 3.26655 13.1603C6.11599 11.9695 8.97012 10.7846 11.8243 9.61137C11.932 9.56444 12.0726 9.56444 12.1804 9.61137C15.0393 10.7904 17.8981 11.9753 20.7522 13.1661C20.8647 13.2131 20.9818 13.3304 21.0475 13.4594C21.9895 15.3131 22.9221 17.1726 23.8594 19.0321C23.9016 19.1142 23.9531 19.1787 24 19.255C24 19.2726 24 19.296 24 19.3136C23.0674 19.7067 22.1301 20.1055 21.188 20.5044C21.188 20.6217 21.188 20.7273 21.188 20.8388C21.188 22.7863 21.188 24.7279 21.1927 26.6754C21.1927 26.8807 21.1599 26.9922 20.9865 27.0508C20.7522 27.1212 20.5272 27.2327 20.2976 27.3265C17.6169 28.441 14.9361 29.5556 12.2554 30.6584C12.1242 30.7112 11.9602 30.7346 11.8336 30.6877C8.89982 29.4793 5.96602 28.2592 3.02753 27.0508C2.8635 26.9863 2.81664 26.8924 2.81664 26.6813C2.82132 24.8922 2.82132 23.103 2.82132 21.3139C2.82132 21.05 2.82132 20.786 2.82132 20.5103C1.86995 20.0938 0.937317 19.7008 0 19.3078C0 19.2902 0 19.2667 0 19.2491ZM12.71 20.5865C12.71 23.3025 12.71 25.9304 12.71 28.5818C12.7709 28.5584 12.8131 28.5466 12.8553 28.529C15.1002 27.5964 17.3497 26.6637 19.5946 25.7427C19.7446 25.6782 19.7774 25.5843 19.7774 25.4084C19.7727 24.1061 19.7727 22.8097 19.7727 21.5075C19.7727 21.3726 19.7727 21.2435 19.7727 21.0734C17.8746 21.8595 16.0094 22.6338 14.1301 23.4139C13.6708 22.4871 13.2115 21.572 12.71 20.5865ZM11.2759 28.5818C11.2759 25.9128 11.2759 23.2849 11.2759 20.5983C10.7885 21.572 10.3245 22.4871 9.86057 23.4081C7.97657 22.6279 6.10662 21.8536 4.21793 21.0676C4.21793 22.5282 4.22261 23.936 4.21324 25.3438C4.21324 25.6019 4.28354 25.6899 4.46632 25.7662C5.91447 26.3586 7.36262 26.9628 8.81078 27.5612C9.62624 27.9014 10.4464 28.2416 11.2759 28.5818ZM5.79731 13.9815C5.88166 14.0226 5.92384 14.046 5.96602 14.0636C7.9297 14.879 9.89338 15.6944 11.8617 16.498C11.9742 16.5449 12.1195 16.5156 12.2367 16.4628C14.0316 15.7237 15.8266 14.9787 17.6216 14.2279C17.7996 14.1516 17.9777 14.0812 18.2027 13.9874C18.109 13.9404 18.0668 13.917 18.0246 13.8994C16.0609 13.084 14.0972 12.2628 12.1289 11.4533C12.0351 11.4122 11.9133 11.4298 11.8196 11.4709C9.94493 12.2452 8.0703 13.0253 6.19098 13.7997C6.07381 13.8524 5.95665 13.9111 5.79731 13.9815ZM9.256 21.2963C9.81371 20.1877 10.362 19.1025 10.9104 18.0055C10.8729 17.9821 10.8588 17.9645 10.8354 17.9527C8.54364 17.0025 6.25659 16.0463 3.96954 15.0902C3.82894 15.0315 3.77739 15.1195 3.71646 15.2427C3.29936 16.0815 2.87756 16.9145 2.46046 17.7474C2.36204 17.941 2.26831 18.1405 2.1652 18.3458C4.53193 19.3312 6.87991 20.305 9.256 21.2963ZM21.8254 18.3575C21.8067 18.3047 21.7973 18.2636 21.7832 18.2343C21.2771 17.2254 20.7663 16.2223 20.2648 15.2075C20.1757 15.0315 20.0914 15.0784 19.9742 15.1254C18.2402 15.8469 16.5062 16.5684 14.7674 17.284C14.2097 17.5128 13.652 17.7474 13.0756 17.9821C13.638 19.1025 14.1863 20.1877 14.7393 21.2905C17.1107 20.3109 19.4681 19.3371 21.8254 18.3575Z" fill="#98B7D7"/>
<path d="M12.7009 0.712891C12.7009 2.65452 12.7009 4.59615 12.7009 6.5671C12.2322 6.5671 11.7776 6.5671 11.2949 6.5671C11.2949 4.61374 11.2949 2.66625 11.2949 0.712891C11.7636 0.712891 12.2322 0.712891 12.7009 0.712891Z" fill="#0085FF"/>
<path d="M4.67725 3.39967C5.09904 3.09464 5.48803 2.81308 5.90044 2.51392C6.6831 4.20917 7.46108 5.89857 8.25311 7.61142C7.84538 7.90472 7.4517 8.19215 7.02991 8.49718C6.24257 6.79606 5.46459 5.11253 4.67725 3.39967Z" fill="#0085FF"/>
<path d="M19.3181 3.39919C18.526 5.11205 17.7574 6.78384 16.9654 8.49083C16.553 8.19167 16.1546 7.90424 15.7422 7.60507C16.5295 5.89808 17.3075 4.21456 18.0949 2.50757C18.512 2.81846 18.9056 3.10003 19.3181 3.39919Z" fill="#0085FF"/>
</svg>
