<svg width="40" height="40" viewBox="0 0 40 40" fill="none" xmlns="http://www.w3.org/2000/svg">
<circle cx="20" cy="20" r="20" fill="#0069E8"/>
<path d="M29.9995 16.5803C29.9995 19.6591 29.9995 22.734 29.9995 25.8128C29.9644 25.9436 29.9331 26.0783 29.8901 26.2051C29.5659 27.2433 28.6558 27.9089 27.5425 27.9089C23.4644 27.9089 19.3862 27.9089 15.3042 27.9089C14.3237 27.9089 13.3394 27.9248 12.3589 27.905C11.4409 27.8852 10.7378 27.4572 10.2925 26.641C10.1558 26.3874 10.0972 26.0902 9.99951 25.8128C9.99951 22.734 9.99951 19.6591 9.99951 16.5803C10.0112 16.5526 10.0308 16.5248 10.0386 16.4931C10.2339 15.4193 11.0581 14.611 12.1323 14.5198C12.8354 14.4604 13.5464 14.4881 14.2573 14.4921C14.4175 14.4921 14.5151 14.4525 14.605 14.3098C14.9253 13.7987 15.2612 13.2954 15.5894 12.7922C15.9175 12.289 16.3589 11.9442 16.9331 11.7778C17.0698 11.7382 17.2065 11.7025 17.3433 11.6669C19.1128 11.6669 20.8862 11.6669 22.6558 11.6669C22.6909 11.6788 22.7261 11.6986 22.7651 11.7065C23.4175 11.8174 23.9526 12.1344 24.3315 12.6813C24.6987 13.2083 25.0425 13.7511 25.3862 14.294C25.4761 14.4366 25.5698 14.4961 25.7417 14.4921C26.3472 14.4802 26.9487 14.4802 27.5542 14.4881C28.6714 14.5 29.5737 15.1657 29.894 16.2039C29.9331 16.3307 29.9644 16.4575 29.9995 16.5803ZM19.9995 15.0072C17.0308 15.0072 14.6167 17.4441 14.6089 20.4477C14.6011 23.4472 17.0229 25.9079 19.9956 25.9158C22.9487 25.9277 25.3823 23.467 25.3901 20.4754C25.3979 17.4758 22.9644 15.0112 19.9995 15.0072ZM26.8159 16.4931C26.6675 16.4931 26.5151 16.4892 26.3667 16.4931C25.9839 16.505 25.7026 16.7824 25.6792 17.1628C25.6558 17.5313 25.9136 17.8641 26.2964 17.8958C26.644 17.9236 26.9995 17.9236 27.3472 17.8998C27.7222 17.8721 27.9644 17.563 27.9526 17.1866C27.9409 16.8022 27.6597 16.5129 27.2847 16.5011C27.1245 16.4892 26.9722 16.4931 26.8159 16.4931Z" fill="white"/>
<path d="M23.0042 20.4597C23.0003 22.1279 21.6174 23.5227 19.9885 23.4989C18.3245 23.4791 16.9924 22.1279 16.9963 20.4637C17.0003 18.7955 18.3792 17.4047 20.012 17.4205C21.6682 17.4404 23.0081 18.7995 23.0042 20.4597Z" fill="white"/>
</svg>
