<svg width="20" height="20" viewBox="0 0 20 20" fill="none" xmlns="http://www.w3.org/2000/svg">
<g clip-path="url(#clip0_155_2343)">
<path d="M9.99968 0.833008C8.18668 0.833008 6.4144 1.37062 4.90695 2.37787C3.3995 3.38512 2.22459 4.81675 1.53078 6.49174C0.83698 8.16673 0.655449 10.0098 1.00915 11.788C1.36284 13.5662 2.23589 15.1995 3.51787 16.4815C4.79985 17.7635 6.43319 18.6365 8.21135 18.9902C9.98951 19.3439 11.8326 19.1624 13.5076 18.4686C15.1826 17.7748 16.6142 16.5999 17.6215 15.0924C18.6287 13.585 19.1663 11.8127 19.1663 9.99967C19.1635 7.5694 18.1968 5.23949 16.4783 3.52103C14.7599 1.80257 12.4299 0.835875 9.99968 0.833008ZM9.99968 17.4997C8.51632 17.4997 7.06627 17.0598 5.8329 16.2357C4.59953 15.4116 3.63824 14.2402 3.07058 12.8698C2.50292 11.4994 2.3544 9.99135 2.64379 8.5365C2.93318 7.08164 3.64748 5.74527 4.69638 4.69637C5.74527 3.64748 7.08164 2.93317 8.5365 2.64378C9.99136 2.3544 11.4994 2.50292 12.8698 3.07058C14.2402 3.63824 15.4116 4.59953 16.2357 5.8329C17.0598 7.06627 17.4997 8.51631 17.4997 9.99967C17.4973 11.9881 16.7063 13.8943 15.3003 15.3003C13.8943 16.7063 11.9881 17.4972 9.99968 17.4997Z" fill="white"/>
<path d="M10.8337 9.65533V5.00033C10.8337 4.77931 10.7459 4.56735 10.5896 4.41107C10.4333 4.25479 10.2213 4.16699 10.0003 4.16699C9.77931 4.16699 9.56735 4.25479 9.41107 4.41107C9.25479 4.56735 9.16699 4.77931 9.16699 5.00033V10.0003C9.16704 10.2213 9.25487 10.4332 9.41116 10.5895L11.9112 13.0895C12.0683 13.2413 12.2788 13.3253 12.4973 13.3234C12.7158 13.3215 12.9248 13.2338 13.0793 13.0793C13.2338 12.9248 13.3215 12.7158 13.3234 12.4973C13.3253 12.2788 13.2413 12.0683 13.0895 11.9112L10.8337 9.65533Z" fill="white"/>
</g>
<defs>
<clipPath id="clip0_155_2343">
<rect width="20" height="20" fill="white"/>
</clipPath>
</defs>
</svg>
