<svg width="11" height="10" viewBox="0 0 11 10" fill="none" xmlns="http://www.w3.org/2000/svg">
<g clip-path="url(#clip0_94_7223)">
<path d="M0.502994 9.99988C0.403516 9.9999 0.306268 9.97127 0.223549 9.91762C0.14083 9.86397 0.0763576 9.7877 0.0382865 9.69847C0.000215426 9.60924 -0.00974384 9.51105 0.00966845 9.41632C0.0290807 9.32159 0.0769924 9.23458 0.147343 9.16629L9.44094 0.14285C9.53527 0.0512675 9.6632 -0.000183105 9.79659 -0.000183105C9.92999 -0.000183105 10.0579 0.0512675 10.1522 0.14285C10.2466 0.234433 10.2996 0.358645 10.2996 0.488163C10.2996 0.61768 10.2466 0.741892 10.1522 0.833475L0.858646 9.85691C0.811984 9.90231 0.756544 9.93831 0.69551 9.96285C0.634477 9.98738 0.569052 9.99997 0.502994 9.99988Z" fill="#9CAABE"/>
<path d="M9.79657 9.99988C9.73051 9.99997 9.66508 9.98738 9.60405 9.96285C9.54302 9.93831 9.48758 9.90231 9.44092 9.85691L0.147316 0.833475C0.052991 0.741892 0 0.61768 0 0.488163C0 0.358645 0.052991 0.234433 0.147316 0.14285C0.24164 0.0512675 0.369572 -0.000183105 0.502967 -0.000183105C0.636362 -0.000183105 0.764293 0.0512675 0.858618 0.14285L10.1522 9.16629C10.2226 9.23458 10.2705 9.32159 10.2899 9.41632C10.3093 9.51105 10.2993 9.60924 10.2613 9.69847C10.2232 9.7877 10.1587 9.86397 10.076 9.91762C9.99329 9.97127 9.89604 9.9999 9.79657 9.99988Z" fill="#9CAABE"/>
</g>
<defs>
<clipPath id="clip0_94_7223">
<rect width="10.2994" height="10" fill="white"/>
</clipPath>
</defs>
</svg>
