<svg width="11" height="10" viewBox="0 0 11 10" fill="none" xmlns="http://www.w3.org/2000/svg">
<g clip-path="url(#clip0_94_4803)">
<path d="M0.712223 9.99988C0.612745 9.9999 0.515496 9.97127 0.432777 9.91762C0.350059 9.86397 0.285586 9.7877 0.247515 9.69847C0.209444 9.60924 0.199485 9.51105 0.218897 9.41632C0.238309 9.32159 0.286221 9.23458 0.356572 9.16629L9.65017 0.14285C9.7445 0.0512675 9.87243 -0.000183105 10.0058 -0.000183105C10.1392 -0.000183105 10.2671 0.0512675 10.3615 0.14285C10.4558 0.234433 10.5088 0.358645 10.5088 0.488163C10.5088 0.61768 10.4558 0.741892 10.3615 0.833475L1.06787 9.85691C1.02121 9.90231 0.965773 9.93831 0.904739 9.96285C0.843705 9.98738 0.778281 9.99997 0.712223 9.99988Z" fill="#FF5656"/>
<path d="M10.0058 9.99988C9.93974 9.99997 9.87431 9.98738 9.81328 9.96285C9.75224 9.93831 9.69681 9.90231 9.65014 9.85691L0.356544 0.833475C0.26222 0.741892 0.209229 0.61768 0.209229 0.488163C0.209229 0.358645 0.26222 0.234433 0.356544 0.14285C0.450869 0.0512675 0.5788 -0.000183105 0.712195 -0.000183105C0.84559 -0.000183105 0.973522 0.0512675 1.06785 0.14285L10.3614 9.16629C10.4318 9.23458 10.4797 9.32159 10.4991 9.41632C10.5185 9.51105 10.5086 9.60924 10.4705 9.69847C10.4324 9.7877 10.368 9.86397 10.2852 9.91762C10.2025 9.97127 10.1053 9.9999 10.0058 9.99988Z" fill="#FF5656"/>
</g>
<defs>
<clipPath id="clip0_94_4803">
<rect width="10.2994" height="10" fill="white" transform="translate(0.209473)"/>
</clipPath>
</defs>
</svg>
