<svg width="12" height="14" viewBox="0 0 12 14" fill="none" xmlns="http://www.w3.org/2000/svg">
<path d="M10.7368 12.2727H3.78947V3.68182H10.7368M10.7368 2.45455H3.78947C3.45446 2.45455 3.13317 2.58385 2.89629 2.81401C2.6594 3.04416 2.52632 3.35633 2.52632 3.68182V12.2727C2.52632 12.5982 2.6594 12.9104 2.89629 13.1405C3.13317 13.3707 3.45446 13.5 3.78947 13.5H10.7368C11.0719 13.5 11.3931 13.3707 11.63 13.1405C11.8669 12.9104 12 12.5982 12 12.2727V3.68182C12 3.35633 11.8669 3.04416 11.63 2.81401C11.3931 2.58385 11.0719 2.45455 10.7368 2.45455ZM8.8421 0H1.26316C0.928148 0 0.606858 0.129302 0.36997 0.35946C0.133082 0.589618 0 0.90178 0 1.22727V9.81818H1.26316V1.22727H8.8421V0Z" fill="#8595AC"/>
</svg>
