<svg width="40" height="40" viewBox="0 0 40 40" fill="none" xmlns="http://www.w3.org/2000/svg">
<g clip-path="url(#clip0_8018_20745)">
<path d="M26.9717 0.769512L39.2313 13.0302C40.2562 14.0553 40.2562 15.7165 39.2313 16.7415L16.7444 39.2298C15.7184 40.2558 14.0543 40.2558 13.0283 39.2298L0.76875 26.9691C-0.25625 25.944 -0.25625 24.2828 0.76875 23.2578L23.2556 0.769512C24.2816 -0.256504 25.9457 -0.256504 26.9717 0.769512Z" fill="#0069E8"/>
<path d="M1.27588 27.4766L27.4732 1.27923L31.0289 4.83495L4.83159 31.0323L1.27588 27.4766Z" fill="#004281"/>
<path d="M8.91895 30.9775L24.3327 15.5638L27.0113 18.2424L11.5975 33.6561L8.91895 30.9775Z" fill="#F9F7F8"/>
<path d="M26.6348 22.7922C26.3993 22.5563 26.0171 22.5563 25.7812 22.7919L18.4762 30.0917C18.2405 30.3274 18.2403 30.7095 18.476 30.9453C18.5938 31.0633 18.7484 31.1223 18.903 31.1223C19.0574 31.1223 19.2118 31.0634 19.3297 30.9456L26.6347 23.6458C26.8704 23.4102 26.8705 23.028 26.6348 22.7922Z" fill="#004281"/>
<path d="M16.3146 32.2528L13.255 35.3108C13.0192 35.5465 13.0192 35.9286 13.2548 36.1644C13.3727 36.2824 13.5272 36.3413 13.6817 36.3413C13.8362 36.3413 13.9906 36.2824 14.1085 36.1646L17.1681 33.1067C17.4038 32.871 17.4039 32.4888 17.1683 32.2531C16.9325 32.0173 16.5503 32.0172 16.3146 32.2528Z" fill="#004281"/>
<path d="M32.2016 39.9989C36.5082 39.9989 39.9994 36.5077 39.9994 32.2011C39.9994 27.8945 36.5082 24.4033 32.2016 24.4033C27.895 24.4033 24.4038 27.8945 24.4038 32.2011C24.4038 36.5077 27.895 39.9989 32.2016 39.9989Z" fill="#9BE69D"/>
<path d="M32.2014 24.4033C31.6495 24.4033 31.1113 24.4611 30.5918 24.57C34.126 25.3118 36.78 28.4464 36.78 32.2011C36.78 35.9559 34.1261 39.0904 30.5918 39.8322C31.1113 39.9412 31.6496 39.9989 32.2014 39.9989C36.508 39.9989 39.9992 36.5078 39.9992 32.2011C39.9992 27.8945 36.508 24.4033 32.2014 24.4033Z" fill="#08AC85"/>
<path d="M30.5947 35.5759C30.4401 35.5759 30.2857 35.517 30.1678 35.3992L27.8389 33.0702C27.6032 32.8345 27.6032 32.4524 27.8389 32.2167C28.0747 31.9809 28.4568 31.9809 28.6926 32.2167L30.5947 34.1188L35.7105 29.003C35.9462 28.7672 36.3283 28.7673 36.5641 29.003C36.7998 29.2387 36.7998 29.6209 36.5641 29.8566L31.0215 35.3992C30.9036 35.517 30.7491 35.5759 30.5947 35.5759Z" fill="white"/>
</g>
<defs>
<clipPath id="clip0_8018_20745">
<rect width="40" height="40" fill="white"/>
</clipPath>
</defs>
</svg>
