<svg width="48" height="48" viewBox="0 0 48 48" fill="none" xmlns="http://www.w3.org/2000/svg">
<path d="M24 48C37.2548 48 48 37.2548 48 24C48 10.7452 37.2548 0 24 0C10.7452 0 0 10.7452 0 24C0 37.2548 10.7452 48 24 48Z" fill="#FFCE33"/>
<path d="M24 43.2029C34.4216 43.2029 42.87 34.7545 42.87 24.3329C42.87 13.9113 34.4216 5.46289 24 5.46289C13.5784 5.46289 5.13 13.9113 5.13 24.3329C5.13 34.7545 13.5784 43.2029 24 43.2029Z" fill="#F28A00"/>
<path d="M26.3072 29.1628C26.3072 28.4306 26.1262 27.8559 25.7653 27.4397C25.4044 27.0225 24.7688 26.6287 23.8613 26.2584C22.9528 25.8881 22.1147 25.5131 21.3459 25.1325C20.5772 24.7528 19.9144 24.3122 19.3584 23.8125C18.8025 23.3119 18.3759 22.7334 18.0797 22.0753C17.7834 21.4172 17.6353 20.6203 17.6353 19.6847C17.6353 18.1191 18.1631 16.8281 19.2197 15.8137C20.2762 14.7994 21.6844 14.2087 23.445 14.0419V11.1094H25.6547V14.0972C27.3506 14.3475 28.6819 15.045 29.6503 16.1887C30.6187 17.3334 31.1025 18.7856 31.1025 20.5463H26.4047C26.4047 19.5825 26.2191 18.8419 25.8488 18.3225C25.4784 17.8041 24.9497 17.5444 24.2644 17.5444C23.6531 17.5444 23.1778 17.7366 22.8394 18.1209C22.5009 18.5053 22.3322 19.0359 22.3322 19.7119C22.3322 20.3878 22.5272 20.9419 22.9163 21.345C23.3053 21.7481 23.9306 22.1325 24.7922 22.4981C25.6538 22.8647 26.4666 23.2444 27.2316 23.6381C27.9956 24.0319 28.6566 24.4791 29.2125 24.9797C29.7684 25.4803 30.2034 26.0634 30.5194 26.7309C30.8344 27.3984 30.9919 28.2 30.9919 29.1356C30.9919 30.72 30.4894 32.0128 29.4834 33.0131C28.4775 34.0134 27.1087 34.5975 25.3762 34.7644V37.5581H23.1666V34.7503C21.1463 34.5366 19.5966 33.8447 18.5175 32.6728C17.4375 31.5009 16.8984 29.9559 16.8984 28.0378H21.5822C21.5822 29.0944 21.8156 29.8978 22.2844 30.4491C22.7522 31.0003 23.4169 31.2759 24.2784 31.2759C24.9084 31.2759 25.4044 31.0884 25.7653 30.7134C26.1262 30.3384 26.3072 29.8219 26.3072 29.1637V29.1628Z" fill="#FFCE33"/>
</svg>
