<svg width="23" height="27" viewBox="0 0 23 27" fill="none" xmlns="http://www.w3.org/2000/svg">
<path d="M21.968 21.9371C21.2808 21.6551 20.7145 21.211 20.7556 20.3605C20.7956 19.5111 20.1483 18.9482 20.1483 18.9482C20.1483 18.9482 20.7145 17.0886 20.1883 15.5531C19.6631 14.0153 17.9256 11.5517 16.5921 9.69304C15.2609 7.83335 16.3912 5.69051 15.1799 2.94371C13.9663 0.196905 10.8154 0.357906 9.11782 1.53031C7.41912 2.70056 7.94428 5.60944 8.02421 6.98619C8.10528 8.35845 8.06086 9.33661 7.90429 9.69191C7.74442 10.0472 6.65189 11.3507 5.92358 12.4409C5.19635 13.5312 4.67119 15.795 4.14382 16.7243C3.61866 17.6537 3.98281 18.5019 3.98281 18.5019C3.98281 18.5019 3.61866 18.6218 3.33552 19.2313C3.05237 19.8353 2.48727 20.1184 1.47695 20.3183C0.466626 20.5204 0.466626 21.1699 0.708643 21.8971C0.951792 22.6232 0.709775 23.0296 0.426633 23.9567C0.143491 24.8838 1.55802 25.1691 2.93142 25.3279C4.30595 25.4911 5.84143 26.3804 7.13603 26.5414C8.42728 26.7035 8.83251 25.6532 8.83251 25.6532C8.83251 25.6532 10.287 25.3279 11.8214 25.2901C13.358 25.249 14.8103 25.6132 14.8103 25.6132C14.8103 25.6132 15.0934 26.2593 15.6186 26.5414C16.1448 26.8245 17.2762 26.8656 18.0034 26.0995C18.7317 25.33 20.6714 24.3619 21.7617 23.7546C22.8551 23.1462 22.6553 22.218 21.968 21.9371ZM12.5107 4.11621C13.2035 4.11621 13.7631 4.80346 13.7631 5.65062C13.7631 6.25236 13.4822 6.77088 13.0725 7.02288C12.9682 6.97738 12.8583 6.93075 12.7417 6.88077C12.9882 6.75863 13.1636 6.44445 13.1636 6.07803C13.1636 5.60064 12.8683 5.21311 12.503 5.21311C12.1421 5.21311 11.8457 5.60172 11.8457 6.07803C11.8457 6.25458 11.8879 6.42443 11.96 6.5632C11.7446 6.4777 11.5459 6.39777 11.3905 6.33894C11.3061 6.13244 11.2583 5.89927 11.2583 5.65057C11.2583 4.80346 11.8179 4.11621 12.5107 4.11621ZM12.4208 7.35153C12.7672 7.47145 13.1525 7.69684 13.1125 7.91997C13.0715 8.14423 12.8894 8.14423 12.4208 8.43072C11.9512 8.71494 10.9342 9.34556 10.6088 9.38664C10.2813 9.42771 10.0992 9.24453 9.75282 9.02135C9.40642 8.79709 8.75469 8.26524 8.91898 7.98215C8.91898 7.98215 9.42639 7.59354 9.64956 7.39039C9.87382 7.1861 10.4445 6.69867 10.7909 6.76198C11.1373 6.82081 12.0744 7.22939 12.4208 7.35153ZM9.29761 4.35936C9.84387 4.35936 10.288 5.00996 10.288 5.8127C10.288 5.96037 10.2735 6.09692 10.2458 6.22905C10.1125 6.27455 9.97707 6.34784 9.84608 6.45887C9.77948 6.51327 9.72059 6.56433 9.66398 6.61539C9.7506 6.45331 9.78498 6.22236 9.74612 5.97921C9.67283 5.54067 9.38083 5.22088 9.09105 5.26644C8.8024 5.31642 8.62807 5.71053 8.70137 6.15133C8.77574 6.59212 9.06666 6.91186 9.3553 6.8641C9.37198 6.86075 9.38753 6.85632 9.40415 6.85077C9.26317 6.98624 9.13326 7.10282 9.00113 7.20159C8.60146 7.01619 8.30833 6.46437 8.30833 5.81151C8.30838 5.00888 8.75134 4.35936 9.29761 4.35936ZM8.23066 24.7783C8.10188 25.3579 7.4235 25.7787 7.4235 25.7787C6.80842 25.9718 5.0986 25.2302 4.3236 24.9049C3.54974 24.584 1.57902 24.4841 1.32032 24.1976C1.06384 23.9045 1.4491 23.2595 1.54793 22.6477C1.64341 22.0315 1.35476 21.6462 1.45024 21.2254C1.54793 20.8069 2.80696 20.8069 3.28996 20.5171C3.77513 20.2251 3.87174 19.3857 4.25921 19.1604C4.64669 18.9328 5.35616 19.7399 5.64703 20.194C5.93681 20.6437 7.03484 22.5822 7.48675 23.0663C7.93975 23.5504 8.35944 24.1988 8.23066 24.7783ZM15.3775 19.147C15.2609 19.7166 15.2609 21.775 15.2609 21.775C15.2609 21.775 14.0085 23.5104 12.0666 23.7946C10.127 24.0788 9.15663 23.8745 9.15663 23.8745L8.06632 22.6233C8.06632 22.6233 8.91343 22.5001 8.79355 21.6518C8.67141 20.8036 6.20775 19.6311 5.76253 18.5797C5.31952 17.5305 5.68259 15.7508 6.24882 14.8614C6.81398 13.9732 7.17592 12.0347 7.74215 11.3862C8.30838 10.7423 8.7514 9.36775 8.54932 8.76044C8.54932 8.76044 9.76172 10.216 10.6089 9.97505C11.4571 9.7319 13.359 8.3163 13.6399 8.56058C13.9219 8.80373 16.3468 14.1363 16.5876 15.8339C16.8308 17.5304 16.4256 18.8228 16.4256 18.8228C16.4256 18.8228 15.4973 18.5808 15.3775 19.147ZM21.5794 22.9541C21.2019 23.3005 19.1013 24.1488 18.4717 24.8105C17.8455 25.4666 17.0273 26.0007 16.5266 25.8453C16.0225 25.6865 15.5839 24.997 15.8037 23.9911C16.0224 22.9886 16.2123 21.8894 16.1812 21.2609C16.1501 20.6325 16.0224 19.7832 16.1812 19.6577C16.3378 19.5356 16.5876 19.5967 16.5876 19.5967C16.5876 19.5967 16.4644 20.788 17.1849 21.1044C17.9055 21.4153 18.9425 20.9789 19.2567 20.6625C19.572 20.3506 19.7918 19.8798 19.7918 19.8798C19.7918 19.8798 20.1049 20.0386 20.0738 20.5393C20.0427 21.0412 20.2925 21.765 20.7655 22.0149C21.2352 22.2625 21.9569 22.6099 21.5794 22.9541Z" fill="#8D99A9"/>
</svg>
