<svg width="20" height="20" viewBox="0 0 20 20" fill="none" xmlns="http://www.w3.org/2000/svg">
<path d="M0 10.6612C0 10.2196 0 9.77414 0 9.33255C0.0312567 9.08635 0.0546992 8.84407 0.089863 8.60178C0.37508 6.6674 1.12524 4.93622 2.42239 3.47468C4.81744 0.782173 7.82589 -0.343287 11.3931 0.0904839C13.331 0.328863 15.0618 1.11043 16.5192 2.41565C19.3596 4.95576 20.4692 8.13675 19.8167 11.8844C19.3831 14.3737 18.0781 16.3862 16.0855 17.9376C14.8 18.938 13.3505 19.575 11.7408 19.8486C11.3852 19.9072 11.0219 19.9502 10.6624 20.001C10.2209 20.001 9.77553 20.001 9.33403 20.001C9.27933 19.9893 9.22072 19.9697 9.16602 19.9658C8.81048 19.9189 8.45493 19.8955 8.1033 19.8251C5.64574 19.3366 3.6414 18.0979 2.0942 16.1283C1.07836 14.8309 0.429779 13.3654 0.156283 11.7398C0.09377 11.3803 0.0507921 11.0207 0 10.6612ZM9.40826 6.47982C8.31037 6.38994 7.23202 6.30006 6.15757 6.20627C6.05208 6.19845 6.02473 6.23753 6.0091 6.33132C5.89579 7.05427 5.77077 7.77722 5.66918 8.50408C5.6262 8.79717 5.63402 9.09417 5.61839 9.39117C6.89991 9.39117 8.15018 9.39117 9.40436 9.39117C9.40826 8.4103 9.40826 7.43333 9.40826 6.47982ZM10.596 9.39898C11.8658 9.39898 13.1161 9.39898 14.3664 9.39898C14.4211 8.84407 14.1671 6.89014 13.9639 6.25707C12.8426 6.32741 11.7252 6.39775 10.5999 6.46809C10.596 7.43333 10.596 8.4103 10.596 9.39898ZM4.38375 9.40289C4.52831 8.26961 4.66897 7.14806 4.80962 6.04605C4.02821 5.86238 3.23507 5.6748 2.41849 5.48332C1.7074 6.67912 1.29715 7.98434 1.20338 9.4068C2.28565 9.40289 3.35228 9.40289 4.38375 9.40289ZM10.596 10.5909C10.596 11.56 10.596 12.5135 10.596 13.4866C10.6898 13.4944 10.7796 13.5022 10.8695 13.5061C11.4165 13.5335 11.9596 13.553 12.5066 13.5921C12.9403 13.6195 13.374 13.6664 13.8076 13.7132C13.9249 13.725 13.9796 13.6976 13.9991 13.5687C14.0929 12.9786 14.2101 12.3924 14.2921 11.8023C14.3468 11.4076 14.3585 11.0051 14.3898 10.5948C13.1122 10.5909 11.8658 10.5909 10.596 10.5909ZM15.6166 10.5948C15.4721 11.7007 15.3314 12.7988 15.1907 13.8891C15.98 14.0767 16.7927 14.2682 17.617 14.4596C18.3125 13.2756 18.7071 11.9899 18.8009 10.5948C17.7147 10.5948 16.652 10.5948 15.6166 10.5948ZM15.6205 9.39898C16.6598 9.39898 17.7225 9.39898 18.797 9.39898C18.797 9.34818 18.8009 9.3091 18.797 9.27393C18.6876 7.97262 18.3164 6.75337 17.6678 5.61618C17.6092 5.51067 17.5389 5.53412 17.4569 5.55757C17.1755 5.63181 16.8942 5.71388 16.609 5.77641C16.1285 5.88192 15.6479 5.97961 15.1986 6.06949C15.3392 7.18323 15.4799 8.28915 15.6205 9.39898ZM9.40826 10.5948C8.14237 10.5948 6.88819 10.5948 5.6223 10.5948C5.66527 11.6499 5.78639 12.6855 6.03645 13.6781C7.1695 13.6077 8.28302 13.5374 9.40826 13.4671C9.40826 12.5214 9.40826 11.5639 9.40826 10.5948ZM4.39156 10.5948C3.34837 10.5948 2.28565 10.5948 1.22292 10.5948C1.2151 10.6182 1.2112 10.63 1.2112 10.6417C1.29715 11.9586 1.67223 13.1935 2.32862 14.3385C2.35207 14.3776 2.45756 14.401 2.51616 14.3854C2.98501 14.2799 3.44996 14.1587 3.9149 14.0493C4.22356 13.979 4.53613 13.9243 4.80962 13.8696C4.66897 12.7715 4.52831 11.6929 4.39156 10.5948ZM13.6709 5.09644C13.4482 4.59233 13.2646 4.12729 13.0379 3.6818C12.6824 2.97448 12.237 2.32577 11.6158 1.81775C11.3149 1.57156 10.9867 1.36444 10.596 1.27065C10.596 2.60714 10.596 3.92799 10.596 5.28011C11.6119 5.21758 12.616 5.15896 13.6709 5.09644ZM6.3412 14.8387C6.56 15.3389 6.74363 15.7961 6.96243 16.2338C7.31797 16.9489 7.76729 17.6016 8.39242 18.1135C8.69327 18.3597 9.02146 18.559 9.40045 18.6567C9.40045 17.3202 9.40045 16.0032 9.40045 14.655C8.38851 14.7176 7.39611 14.7762 6.3412 14.8387ZM9.40436 1.28238C9.38873 1.27847 9.3731 1.27456 9.36138 1.27456C9.33012 1.28238 9.29886 1.29019 9.26761 1.30192C8.79485 1.46214 8.40805 1.75132 8.06422 2.10303C7.41565 2.76345 6.98196 3.55675 6.62642 4.40084C6.54046 4.60796 6.46623 4.81898 6.36855 5.06908C7.40393 5.13943 8.40023 5.20195 9.40436 5.26838C9.40436 3.92408 9.40436 2.61495 9.40436 1.28238ZM10.5921 18.7036C12.319 17.9728 12.9989 16.4644 13.6435 14.8582C12.6004 14.7918 11.6001 14.7254 10.5921 14.6629C10.5921 16.0228 10.5921 17.328 10.5921 18.7036ZM6.77489 18.2151C6.46623 17.6953 6.13803 17.203 5.86844 16.6793C5.59885 16.1517 5.38787 15.589 5.14173 15.0107C4.47361 15.1513 3.78597 15.2959 3.06316 15.4483C4.0829 16.7145 5.30191 17.6328 6.77489 18.2151ZM13.2138 18.1956C14.6828 17.6406 15.8901 16.7418 16.9099 15.4913C16.1988 15.335 15.515 15.1826 14.8235 15.0302C14.4367 16.1791 13.9405 17.2459 13.2138 18.1956ZM16.8942 4.50635C16.0816 3.39652 14.0772 1.92717 13.2489 1.82166C13.9717 2.75955 14.4601 3.80685 14.8352 4.93622C15.5268 4.79163 16.1988 4.65094 16.8942 4.50635ZM5.14954 4.89323C5.39178 4.3305 5.59104 3.79122 5.84891 3.2832C6.10677 2.77518 6.42716 2.29451 6.71628 1.79821C5.31364 2.36485 4.12979 3.24412 3.13739 4.44774C3.83676 4.60405 4.50096 4.74864 5.14954 4.89323Z" fill="white"/>
</svg>
