<svg width="20" height="21" viewBox="0 0 20 21" fill="none" xmlns="http://www.w3.org/2000/svg">
<path fill-rule="evenodd" clip-rule="evenodd" d="M2.63576e-06 9.99489C-0.00395059 4.44455 4.43948 -0.0818938 10.1756 0.00112401C15.5994 0.0841418 20.0824 4.43269 19.9994 10.1846C19.9203 15.5848 15.5797 20.0954 9.80797 20.0005C4.39599 19.9096 0.00790909 15.6006 2.63576e-06 9.99489ZM10.1223 11.7667L10.1223 11.7666C10.1022 11.5489 10.082 11.3306 10.0373 11.1176C9.86331 10.2874 9.46799 9.60352 8.71687 9.1568C8.14761 8.81683 7.52695 8.72985 6.87862 8.77334C5.70056 8.8524 4.86643 9.42562 4.42367 10.5286C4.06788 11.4101 4.05602 12.3233 4.2853 13.2326C4.51459 14.1458 5.04432 14.8376 5.94171 15.1934C6.50307 15.4187 7.08814 15.4662 7.68113 15.3713C8.3769 15.2606 8.97383 14.9641 9.42055 14.3988C9.95819 13.7228 10.1282 12.9361 10.1558 12.0941C10.1426 11.9856 10.1325 11.8762 10.1223 11.7667ZM10.7844 13.5291C10.816 14.1023 11.0374 14.5806 11.4999 14.8969C12.5199 15.5887 13.611 15.5848 14.6902 15.0787C15.4413 14.7269 15.718 14.0549 15.6469 13.2524C15.5836 12.5329 15.1053 12.1375 14.4767 11.9122C14.2321 11.8228 13.9805 11.7558 13.7286 11.6888L13.7286 11.6888L13.7285 11.6888C13.557 11.6431 13.3854 11.5974 13.2156 11.5446L13.1239 11.516C12.8365 11.4269 12.5435 11.336 12.2827 11.1967C11.8478 10.9634 11.7648 10.4732 12.0494 10.066C12.3104 9.69444 12.7017 9.58771 13.1287 9.56399C13.947 9.5205 14.3502 9.77746 14.6388 10.5365C14.6546 10.576 14.706 10.6235 14.7416 10.6235C14.9427 10.6294 15.1416 10.6286 15.3449 10.6279H15.3449C15.4134 10.6277 15.4823 10.6274 15.552 10.6274C15.5125 10.0423 15.2832 9.59957 14.8483 9.24773C14.0854 8.63102 12.6266 8.63102 11.8281 9.11332C11.2272 9.47702 10.9109 10.0107 10.9425 10.7144C10.9742 11.4181 11.3814 11.8648 12.0139 12.1099C12.2101 12.185 12.4137 12.2437 12.6174 12.3025C12.7462 12.3397 12.8751 12.3769 13.0022 12.4182C13.1284 12.4591 13.2565 12.496 13.3845 12.5328L13.3846 12.5328C13.6774 12.6171 13.97 12.7013 14.2395 12.8333C14.9155 13.1654 14.8167 14.0153 14.2712 14.3395C14.0419 14.4739 13.7651 14.5411 13.5003 14.5964C13.105 14.6795 12.7175 14.5885 12.3538 14.4186C11.9743 14.2407 11.749 13.9363 11.6739 13.5291H10.7844ZM7.90596 7.11798V7.1177C7.90522 6.81655 7.9045 6.52311 7.91042 6.22746C7.91042 6.11677 7.93018 6.00213 7.96971 5.9033C8.04482 5.71749 8.21086 5.64238 8.40062 5.6582C8.58642 5.67401 8.72083 5.77679 8.75245 5.9705C8.76827 6.07328 8.77222 6.18002 8.77222 6.28281C8.77486 6.53606 8.77397 6.78931 8.77309 7.04139V7.04153C8.77266 7.16716 8.77222 7.29249 8.77222 7.41738H9.16754C9.16754 7.25638 9.16862 7.09681 9.16969 6.93814C9.17218 6.57087 9.17463 6.2084 9.16359 5.844C9.15568 5.59494 8.9936 5.40519 8.75641 5.34194C8.59432 5.29845 8.39666 5.2945 8.24249 5.34589C8.13552 5.38333 8.04303 5.46237 7.94911 5.54263C7.90417 5.58103 7.85891 5.6197 7.81158 5.65424C7.72066 5.421 7.52695 5.29845 7.25813 5.29054C6.99327 5.28264 6.80351 5.41309 6.64143 5.63448C6.63352 5.51588 6.62957 5.42891 6.62562 5.33798H6.24611V7.41343H6.62957C6.62957 7.31189 6.62932 7.21135 6.62907 7.11156V7.11152V7.11148C6.62833 6.81503 6.62761 6.5252 6.63352 6.23537C6.63748 6.12863 6.65724 6.01003 6.70073 5.91516C6.79165 5.71354 6.99722 5.61471 7.18302 5.66215C7.38859 5.71354 7.50323 5.85981 7.50323 6.097C7.50586 6.38896 7.50499 6.68092 7.50412 6.97521C7.50367 7.12323 7.50323 7.27184 7.50323 7.42134C7.64555 7.42529 7.76415 7.42529 7.90646 7.42529C7.90646 7.32172 7.90621 7.21942 7.90596 7.11798ZM11.4248 7.42529V5.9112C11.4248 5.88104 11.4135 5.84803 11.4028 5.817L11.3972 5.80051C11.2667 5.40914 10.82 5.20357 10.3614 5.31822C9.96609 5.41705 9.76843 5.61866 9.76843 5.93887C9.79111 5.93887 9.81378 5.93953 9.83637 5.94017H9.83639C9.89254 5.94178 9.94811 5.94338 10.0017 5.93492C10.057 5.92702 10.1282 5.90725 10.1598 5.86772C10.3061 5.66215 10.5354 5.58704 10.7805 5.68191C10.9742 5.75703 11.0256 5.86772 10.99 6.17607C10.9456 6.18023 10.9007 6.18391 10.8555 6.18761C10.7719 6.19445 10.6872 6.20139 10.6026 6.21165C10.5586 6.21664 10.5141 6.22063 10.4696 6.22462C10.3377 6.23644 10.2048 6.24835 10.0807 6.28676C9.73681 6.38954 9.6103 6.59116 9.64588 6.93509C9.67356 7.19995 9.91075 7.40552 10.2112 7.44506C10.5393 7.48459 10.8042 7.37785 11.0335 7.08531V7.4332C11.1639 7.42529 11.2825 7.42529 11.4248 7.42529ZM13.7493 6.04166C13.7217 5.52379 13.1761 5.17985 12.6306 5.31822C12.176 5.43286 11.9585 5.69773 11.8874 6.23537C11.7806 7.01415 12.3104 7.54784 13.0733 7.43715C13.4449 7.3818 13.7691 7.06159 13.7493 6.73347H13.3777C13.3224 6.90742 13.2275 7.03787 13.0378 7.08136C12.6859 7.16438 12.3973 7.00229 12.342 6.6386C12.3104 6.42907 12.3301 6.19583 12.3855 5.99027C12.4408 5.77284 12.6227 5.6582 12.8638 5.65424C13.1405 5.65029 13.3026 5.7926 13.3817 6.04561C13.5003 6.04166 13.6188 6.04166 13.7493 6.04166H13.7493ZM7.13956 14.5886C6.25403 14.5886 5.58199 14.1221 5.28945 13.2761C4.989 12.4143 5.00481 11.5525 5.36456 10.7065C5.93778 9.35054 7.76021 9.26357 8.57458 10.1807C8.91851 10.5681 9.09245 11.0307 9.15571 11.5327C9.23477 12.1494 9.2071 12.7622 8.9699 13.3512C8.64969 14.1419 7.99346 14.5886 7.13956 14.5886ZM10.3695 7.113C10.6699 7.14858 11.0653 6.97859 10.9941 6.46863C10.9246 6.47483 10.8563 6.47987 10.7889 6.48484C10.6416 6.49569 10.4987 6.50623 10.3576 6.52793C10.1995 6.54769 10.069 6.62676 10.0651 6.81256C10.0611 6.96673 10.1876 7.09324 10.3695 7.113Z" fill="white"/>
</svg>
