<svg width="16" height="21" viewBox="0 0 16 21" fill="none" xmlns="http://www.w3.org/2000/svg">
<path d="M0 11.322C0 11.008 0 10.6961 0 10.3822C0.00589681 10.3442 0.0157248 10.3042 0.0176904 10.2662C0.0570025 9.61229 0.174939 8.97241 0.39312 8.35652C0.841278 7.09075 1.60197 6.08093 2.78329 5.44504C3.88403 4.85115 5.03587 4.69718 6.23096 5.1431C6.62408 5.28907 7.01327 5.44304 7.40246 5.59902C7.86634 5.78498 8.32826 5.80298 8.79607 5.61101C9.1145 5.47904 9.43685 5.36306 9.75725 5.23508C10.5789 4.90914 11.4201 4.75717 12.3027 4.88114C13.2383 5.01312 14.0717 5.36506 14.7813 6.00494C15.0486 6.2469 15.2826 6.51685 15.487 6.8188C14.06 7.80262 13.2737 9.13438 13.3779 10.9141C13.4821 12.7077 14.457 13.9055 16 14.6894C15.9705 14.7834 15.941 14.8813 15.9076 14.9773C15.54 16.0511 15.0093 17.037 14.3489 17.9508C13.9892 18.4487 13.6236 18.9386 13.1577 19.3405C12.5405 19.8724 11.8428 20.0824 11.0408 19.9244C10.6752 19.8524 10.3351 19.7045 9.99902 19.5525C9.60197 19.3745 9.19312 19.2426 8.75872 19.2006C8.07666 19.1346 7.42408 19.2526 6.79509 19.5245C6.41376 19.6885 6.03636 19.8684 5.62555 19.9504C5.53317 19.9684 5.44079 19.9844 5.3484 20.0024C5.20491 20.0024 5.05946 20.0024 4.91597 20.0024C4.80786 19.9784 4.69975 19.9584 4.59361 19.9284C4.11597 19.7945 3.72285 19.5105 3.3887 19.1506C2.514 18.2087 1.77297 17.1669 1.21867 15.9971C0.57199 14.6314 0.165111 13.1976 0.0373464 11.6879C0.0255528 11.5659 0.0117936 11.444 0 11.322Z" fill="white"/>
<path d="M11.9001 0C11.9551 0.307945 11.9473 0.599892 11.904 0.88984C11.7507 1.95565 11.2868 2.86149 10.5124 3.59335C9.96003 4.11526 9.31138 4.4672 8.56052 4.58917C8.38755 4.61717 8.20868 4.59717 8.03374 4.60317C7.96101 4.60517 7.95119 4.55918 7.94332 4.50119C7.89811 4.18725 7.91974 3.8733 7.99246 3.56936C8.40721 1.83167 9.46863 0.697874 11.1296 0.139975C11.2907 0.0859845 11.4598 0.0599892 11.6269 0.027995C11.7133 0.0099982 11.8018 0.0099982 11.9001 0Z" fill="white"/>
</svg>
