<svg width="21" height="21" viewBox="0 0 21 21" fill="none" xmlns="http://www.w3.org/2000/svg">
<g clip-path="url(#clip0_1752_15572)">
<path d="M15.7544 8.97095C14.4513 8.97095 13.3911 10.0311 13.3911 11.3342C13.3911 12.6373 14.4513 13.6975 15.7544 13.6975C17.0575 13.6975 18.1177 12.6373 18.1177 11.3342C18.1177 10.0311 17.0575 8.97095 15.7544 8.97095ZM15.7544 12.5256C15.0975 12.5256 14.563 11.9911 14.563 11.3342C14.563 10.6773 15.0975 10.1428 15.7544 10.1428C16.4113 10.1428 16.9458 10.6773 16.9458 11.3342C16.9458 11.9911 16.4113 12.5256 15.7544 12.5256Z" fill="#8D99A9"/>
<path d="M4.95361 0.72876C2.47662 0.72876 0.461426 2.74396 0.461426 5.22095V16.2366C0.461426 18.7136 2.47662 20.7288 4.95361 20.7288H9.87549V0.72876H4.95361ZM8.70361 19.5569H4.95361C3.12279 19.5569 1.6333 18.0674 1.6333 16.2366V5.22095C1.6333 3.39013 3.12279 1.90063 4.95361 1.90063H8.70361V19.5569Z" fill="#8D99A9"/>
<path d="M15.9692 0.72876H11.0474V20.7288H15.9692C18.4462 20.7288 20.4614 18.7136 20.4614 16.2366V5.22095C20.4614 2.74396 18.4462 0.72876 15.9692 0.72876ZM19.2896 16.2366C19.2896 18.0674 17.8001 19.5569 15.9692 19.5569H12.2192V1.90063H15.9692C17.8001 1.90063 19.2896 3.39013 19.2896 5.22095V16.2366Z" fill="#8D99A9"/>
<path d="M5.16846 4.24438C3.86537 4.24438 2.80518 5.30458 2.80518 6.60767C2.80518 7.91075 3.86537 8.97095 5.16846 8.97095C6.47154 8.97095 7.53174 7.91075 7.53174 6.60767C7.53174 5.30458 6.47154 4.24438 5.16846 4.24438ZM5.16846 7.79907C4.51154 7.79907 3.97705 7.26458 3.97705 6.60767C3.97705 5.95075 4.51154 5.41626 5.16846 5.41626C5.82537 5.41626 6.35986 5.95075 6.35986 6.60767C6.35986 7.26458 5.82537 7.79907 5.16846 7.79907Z" fill="#8D99A9"/>
</g>
<defs>
<clipPath id="clip0_1752_15572">
<rect width="20" height="20" fill="white" transform="translate(0.461426 0.72876)"/>
</clipPath>
</defs>
</svg>
