<svg width="17" height="20" viewBox="0 0 17 20" fill="none" xmlns="http://www.w3.org/2000/svg">
<path d="M5.15553 16.2067C4.80394 16.2067 4.47353 16.2088 4.141 16.2067C3.88472 16.2046 3.65809 16.1114 3.46323 15.9462C3.20272 15.7238 3.08411 15.4358 3.08411 15.0948C3.08411 14.1692 3.08411 13.2457 3.08411 12.3202C3.08411 10.4817 3.08411 8.64114 3.08411 6.8027C3.08411 6.76457 3.08411 6.72645 3.08411 6.67773C6.67628 6.67773 10.26 6.67773 13.8606 6.67773C13.8606 6.72221 13.8606 6.76669 13.8606 6.81117C13.8606 9.56884 13.8606 12.3244 13.8606 15.0821C13.8606 15.7492 13.3947 16.2088 12.7254 16.211C12.4479 16.211 12.1683 16.211 11.876 16.211C11.876 16.2618 11.876 16.302 11.876 16.3444C11.876 17.1344 11.8824 17.9266 11.8718 18.7166C11.8676 19.1127 11.7299 19.4621 11.4355 19.7396C11.2512 19.9133 11.0309 20.0022 10.7747 20.0001C10.0545 19.998 9.56103 19.5596 9.52714 18.8352C9.49749 18.2019 9.51231 17.5644 9.50808 16.929C9.50596 16.7235 9.50808 16.5202 9.50808 16.3147C9.50808 16.2851 9.50384 16.2533 9.50172 16.2152C9.46148 16.2131 9.42547 16.211 9.39158 16.211C8.80277 16.211 8.21184 16.2131 7.62303 16.2088C7.52984 16.2088 7.5129 16.2406 7.5129 16.3253C7.51501 17.0666 7.52137 17.808 7.51078 18.5493C7.50866 18.7568 7.48748 18.9792 7.41759 19.172C7.19308 19.7841 6.79065 20.0361 6.1616 19.9662C5.64903 19.9112 5.37369 19.5723 5.22967 19.1148C5.17671 18.9432 5.15977 18.7547 5.15765 18.5726C5.14918 17.8313 5.15342 17.0899 5.15342 16.3486C5.15553 16.3084 5.15553 16.266 5.15553 16.2067Z" fill="white"/>
<path d="M13.8627 5.6334C10.26 5.6334 6.67839 5.6334 3.08411 5.6334C3.2006 4.77136 3.52677 4.00676 4.04357 3.32052C4.55825 2.63851 5.20637 2.11748 5.97945 1.73412C5.9392 1.67269 5.90743 1.62398 5.87354 1.57526C5.59185 1.15801 5.30803 0.738644 5.02422 0.321393C4.9755 0.24938 4.94161 0.177367 5.00304 0.0990003C5.08564 -0.00690098 5.1979 0.00368915 5.2805 0.126535C5.58549 0.575556 5.89261 1.02458 6.19125 1.47783C6.25479 1.57526 6.30562 1.59009 6.41576 1.54773C7.83907 1.01611 9.26027 1.03729 10.6709 1.6028C10.7535 1.63669 10.7916 1.62398 10.8382 1.55197C11.1601 1.06694 11.4884 0.586146 11.8146 0.103236C11.8866 -0.00266492 11.948 -0.0238452 12.0349 0.0248694C12.1387 0.0820561 12.1556 0.171013 12.0794 0.283268C11.7828 0.7217 11.4863 1.16013 11.1877 1.59856C11.1474 1.65575 11.1093 1.71505 11.0669 1.77859C12.6004 2.62792 13.5704 3.87544 13.8627 5.6334ZM11.3698 3.43701C11.3677 3.13413 11.1326 2.89903 10.834 2.89903C10.5353 2.90115 10.3045 3.13625 10.3045 3.44336C10.3045 3.75259 10.5417 3.98981 10.8467 3.98558C11.1411 3.98346 11.3719 3.742 11.3698 3.43701ZM5.6681 3.44124C5.6681 3.74412 5.90108 3.98558 6.19549 3.98769C6.49624 3.98981 6.73558 3.74836 6.73558 3.44124C6.73558 3.13837 6.50048 2.90115 6.20184 2.90115C5.9032 2.90115 5.6681 3.13837 5.6681 3.44124Z" fill="white"/>
<path d="M0 9.99444C0 9.32726 0 8.66008 0 7.9929C0 7.66884 0.0741309 7.36809 0.243573 7.08639C0.580339 6.51876 1.48685 6.51664 1.82574 7.09062C1.99094 7.3702 2.06296 7.66885 2.06296 7.98867C2.06296 9.32938 2.06296 10.6722 2.06296 12.0129C2.06296 12.3709 1.98035 12.7013 1.76643 12.9978C1.43602 13.4595 0.631172 13.4638 0.296524 12.9914C0.084721 12.6928 0.00211803 12.3624 0 12.0066C0 11.3351 0 10.6637 0 9.99444Z" fill="white"/>
<path d="M16.9314 10.0135C16.9314 10.6743 16.9314 11.333 16.9314 11.9938C16.9314 12.2903 16.8827 12.5763 16.7323 12.8389C16.5523 13.1545 16.2981 13.3388 15.9147 13.343C15.5229 13.3472 15.2581 13.1693 15.0696 12.8474C14.9214 12.5932 14.8705 12.3136 14.8705 12.0235C14.8705 10.6743 14.8705 9.32722 14.8705 7.97804C14.8705 7.61162 14.9616 7.27697 15.1882 6.97833C15.5102 6.55472 16.2917 6.55472 16.6116 6.98045C16.8424 7.28968 16.9314 7.63492 16.9314 8.01192C16.9335 8.6791 16.9314 9.34628 16.9314 10.0135Z" fill="white"/>
</svg>
