<svg width="21" height="21" viewBox="0 0 21 21" fill="none" xmlns="http://www.w3.org/2000/svg">
<path d="M4.91727 2.42548C4.90716 2.43325 4.89939 2.4418 4.89006 2.44957C4.9468 2.38973 5.02841 2.32522 5.08204 2.29024C6.64741 1.27283 8.45605 0.72876 10.4629 0.72876C12.3399 0.72876 14.0981 1.24718 15.5989 2.14878C15.7077 2.21329 16.0046 2.41693 16.1577 2.60191V2.60269C14.7097 1.00624 10.4536 4.43154 10.4536 4.43154C8.98147 3.29677 7.62751 2.52341 6.61943 2.24827C5.7769 2.01743 5.19396 2.21018 4.91727 2.42548ZM17.7977 3.93488C17.7534 3.88592 17.7052 3.84006 17.6609 3.78954C17.2948 3.38771 16.8448 3.29055 16.4391 3.31698C16.0699 3.43279 14.3639 4.04758 12.2614 6.03266C12.2614 6.03266 14.6281 8.33408 16.0777 10.6868C17.5257 13.0395 18.3915 14.8886 17.8591 17.455C19.475 15.679 20.4606 13.3193 20.4606 10.728C20.4606 8.10557 19.4509 5.71866 17.7977 3.93488ZM14.1851 11.6918C13.5431 10.9713 12.5879 9.93908 11.3264 8.68461C11.0505 8.41025 10.759 8.12422 10.4528 7.82809C10.4528 7.82809 9.99188 8.289 9.39185 8.89525V8.89447C8.62393 9.67016 7.62829 10.6821 7.07567 11.2728C6.09168 12.3229 3.27262 15.6207 3.11406 17.4698C3.11406 17.4698 2.48683 16.0031 3.86333 12.6206C4.7626 10.4093 7.47983 7.08893 8.61461 6.00701C8.61461 6.00701 7.57777 4.86602 6.27666 4.0779L6.26889 4.07557C6.26889 4.07557 6.25412 4.06391 6.23081 4.04914C5.60513 3.67606 4.92193 3.38848 4.26438 3.3504C3.59285 3.39781 3.16769 3.88903 3.16769 3.88903C1.48963 5.67824 0.462891 8.08303 0.462891 10.7288C0.462891 16.2511 4.93981 20.7288 10.4629 20.7288C13.3939 20.7288 16.0311 19.465 17.8607 17.4558C17.8599 17.4527 17.65 16.1345 16.3046 14.2435C15.9883 13.8004 14.8325 12.4177 14.1851 11.6918Z" fill="#8D99A9"/>
</svg>
