<svg width="25" height="20" viewBox="0 0 25 20" fill="none" xmlns="http://www.w3.org/2000/svg">
<path d="M3.09304 12.9219L2.28349 13.2368C1.06917 13.754 0.43952 14.2937 0.462008 14.7659C0.52947 15.463 1.31653 15.9802 2.75573 16.3625C4.62219 16.8572 6.51114 16.9697 8.46756 16.6773V14.7209L6.91592 15.3056C5.29682 15.8678 4.46478 15.3956 4.46478 15.3956C4.21742 15.2381 4.10498 14.8559 4.77961 14.6085L5.63413 14.2937L8.46756 13.2817V11.0105L7.74795 11.2579L3.09304 12.9219Z" fill="#8D99A9"/>
<path d="M14.9213 5.02885V10.8531C16.1356 11.4378 17.215 11.4828 18.0245 10.8756C18.8566 10.2909 19.3063 9.27899 19.3063 7.74984C19.3063 6.15323 18.9915 4.9389 18.2944 4.12935C17.6647 3.27483 16.5404 2.55523 14.8763 1.99304C12.8074 1.31842 11.0534 0.733744 9.65918 0.441406V17.8692L13.4146 19.0161V4.53413C13.3921 3.65712 14.9213 3.72458 14.9213 5.02885Z" fill="#8D99A9"/>
<path d="M24.4563 14.0238C24.4338 13.4166 23.7142 12.9444 22.4324 12.5171C20.9932 12.0449 19.7564 11.82 18.4071 11.865C17.1703 11.8875 15.6861 12.2923 14.3594 12.7195V14.9458L18.0023 13.664C18.0023 13.664 19.1042 13.2592 20.0487 13.5066C20.7683 13.6865 20.7233 14.0913 20.0037 14.3386L19.1717 14.6759L14.3594 16.4075V18.6787L16.6081 17.8692L22.0051 15.9577L22.6348 15.6654C23.939 15.1932 24.5237 14.6759 24.4563 14.0238Z" fill="#8D99A9"/>
</svg>
