<svg width="23" height="22" viewBox="0 0 23 22" fill="none" xmlns="http://www.w3.org/2000/svg">
<path d="M11.3724 21.8615C17.3481 21.8615 22.1925 17.0172 22.1925 11.0414C22.1925 5.06564 17.3481 0.221313 11.3724 0.221313C5.39657 0.221313 0.552246 5.06564 0.552246 11.0414C0.552246 17.0172 5.39657 21.8615 11.3724 21.8615Z" fill="url(#paint0_linear_412_7881)"/>
<path d="M17.4959 6.97618C15.6692 5.66525 13.9671 5.61091 13.6418 5.60413L13.4343 5.8011C15.7661 6.45317 16.8939 7.47202 16.8939 7.47202C14.8926 6.50538 13.0063 6.16547 11.3723 6.14499C9.73833 6.16546 7.85205 6.50537 5.85075 7.47202C5.85075 7.47202 6.97857 6.45317 9.31039 5.8011L9.1028 5.60413C8.7776 5.61091 7.07545 5.66525 5.24877 6.97618C5.24877 6.97618 3.20758 10.3995 3.20758 14.604C3.27677 14.5225 4.4738 16.4108 7.55981 16.4787C7.55981 16.4787 8.07876 15.9014 8.45238 15.3919C6.65337 14.8825 5.97529 13.8636 5.97529 13.8636C7.8456 15.0202 9.59249 15.4651 11.3723 15.4073C13.1522 15.4651 14.899 15.0202 16.7694 13.8636C16.7694 13.8636 16.0913 14.8825 14.2923 15.3919C14.6659 15.9014 15.1849 16.4787 15.1849 16.4787C18.2708 16.4108 19.4679 14.5225 19.5371 14.604C19.5371 10.3995 17.4959 6.97618 17.4959 6.97618ZM8.86063 13.2863C8.07184 13.2863 7.43527 12.6342 7.43527 11.8327C7.43527 11.0312 8.07183 10.3791 8.86063 10.3791V10.3859C9.64251 10.3859 10.286 11.038 10.286 11.8395C10.286 12.6342 9.64945 13.2863 8.86063 13.2863ZM13.884 13.2863C13.0952 13.2863 12.4587 12.6342 12.4587 11.8395C12.4587 11.038 13.1022 10.3859 13.884 10.3859V10.3791C14.6728 10.3791 15.3094 11.0312 15.3094 11.8327C15.3094 12.6342 14.6728 13.2863 13.884 13.2863Z" fill="white"/>
<path style="mix-blend-mode:multiply" d="M21.3221 6.78384C21.4032 7.31943 21.444 7.86036 21.444 8.40206C21.444 14.4698 16.3995 19.3888 10.1768 19.3888C6.65243 19.3888 3.50647 17.8105 1.4404 15.3396C3.10331 19.1768 6.92401 21.8615 11.3723 21.8615C17.3481 21.8615 22.1924 17.0172 22.1924 11.0414C22.1942 9.57787 21.8981 8.12927 21.3221 6.78384Z" fill="url(#paint1_radial_412_7881)"/>
<path d="M1.25176 9.3884C2.28114 12.0251 6.69963 12.7634 11.1207 11.0373C15.5418 9.3113 18.5522 5.65724 17.2619 3.1379C16.4995 1.64944 14.008 0.310625 11.0686 0.226105H11.0526C6.32129 0.363453 2.35242 3.53848 1.02608 7.86854C0.991933 8.38546 1.06889 8.90371 1.25176 9.3884Z" fill="url(#paint2_radial_412_7881)"/>
<defs>
<linearGradient id="paint0_linear_412_7881" x1="0.552246" y1="11.0414" x2="22.1924" y2="11.0414" gradientUnits="userSpaceOnUse">
<stop stop-color="#5C6BC0"/>
<stop offset="1" stop-color="#2D2E83"/>
</linearGradient>
<radialGradient id="paint1_radial_412_7881" cx="0" cy="0" r="1" gradientUnits="userSpaceOnUse" gradientTransform="translate(11.824 14.3195) rotate(-40.0917) scale(12.681 9.62041)">
<stop/>
<stop offset="1" stop-color="white" stop-opacity="0"/>
</radialGradient>
<radialGradient id="paint2_radial_412_7881" cx="0" cy="0" r="1" gradientUnits="userSpaceOnUse" gradientTransform="translate(9.29139 6.09805) scale(10.2837)">
<stop stop-color="white"/>
<stop offset="0.0736" stop-color="white" stop-opacity="0.824"/>
<stop offset="0.1652" stop-color="white" stop-opacity="0.633"/>
<stop offset="0.262" stop-color="white" stop-opacity="0.463"/>
<stop offset="0.362" stop-color="white" stop-opacity="0.32"/>
<stop offset="0.4663" stop-color="white" stop-opacity="0.203"/>
<stop offset="0.5761" stop-color="white" stop-opacity="0.113"/>
<stop offset="0.6941" stop-color="white" stop-opacity="0.05"/>
<stop offset="0.8259" stop-color="white" stop-opacity="0.012"/>
<stop offset="1" stop-color="white" stop-opacity="0"/>
</radialGradient>
</defs>
</svg>
