<svg width="10" height="16" viewBox="0 0 10 16" fill="none" xmlns="http://www.w3.org/2000/svg">
<path d="M9.03335 11.86C8.97137 11.7975 8.89764 11.7479 8.8164 11.7141C8.73516 11.6802 8.64802 11.6628 8.56001 11.6628C8.47201 11.6628 8.38487 11.6802 8.30363 11.7141C8.22239 11.7479 8.14865 11.7975 8.08668 11.86L5.66668 14.28L5.66668 0.666668C5.66668 0.489857 5.59644 0.320287 5.47142 0.195263C5.34639 0.0702387 5.17683 7.80088e-07 5.00001 7.49174e-07V7.49174e-07C4.8232 7.18259e-07 4.65363 0.0702386 4.52861 0.195263C4.40359 0.320287 4.33335 0.489856 4.33335 0.666667L4.33335 14.2733L1.92001 11.86C1.86287 11.7819 1.7894 11.7171 1.70471 11.6703C1.62002 11.6234 1.52614 11.5955 1.42959 11.5886C1.33304 11.5817 1.23615 11.5959 1.14563 11.6302C1.05512 11.6645 0.973164 11.7181 0.90546 11.7872C0.837755 11.8564 0.785926 11.9395 0.753575 12.0307C0.721224 12.122 0.709127 12.2192 0.718125 12.3155C0.727123 12.4119 0.756999 12.5052 0.805679 12.5888C0.854358 12.6725 0.920672 12.7446 1.00001 12.8L3.61335 15.4133C3.98835 15.7879 4.49668 15.9982 5.02668 15.9982C5.55668 15.9982 6.06501 15.7879 6.44001 15.4133L9.05335 12.8C9.17489 12.6725 9.24102 12.502 9.23727 12.3259C9.23352 12.1497 9.16021 11.9822 9.03335 11.86V11.86Z" fill="#FF6060"/>
</svg>
