<svg width="160" height="142" viewBox="0 0 160 142" fill="none" xmlns="http://www.w3.org/2000/svg">
<path d="M160 50.5585V141.041H38.3325C36.2947 141.041 34.6462 139.389 34.6462 137.354V38.0935C34.6462 36.0557 36.2947 34.4072 38.3325 34.4072H83.0359C84.0112 34.4072 84.9481 34.7935 85.6403 35.4857L95.9484 45.7938C96.6406 46.486 97.5775 46.8722 98.5559 46.8722H156.314C158.348 46.8725 160 48.5241 160 50.5585Z" fill="#756F6F"/>
<path d="M101.27 64.8444C106.233 64.8444 110.256 60.8213 110.256 55.8585C110.256 50.8957 106.233 46.8726 101.27 46.8726C96.3073 46.8726 92.2842 50.8957 92.2842 55.8585C92.2842 60.8213 96.3073 64.8444 101.27 64.8444Z" fill="#5B5555"/>
<path d="M68.2849 77.0697C69.9074 78.6891 68.7615 81.4641 66.4662 81.4641H38.0912C36.929 81.4641 35.7796 81.406 34.6465 81.2966V38.0935C34.6465 36.0557 36.2949 34.4072 38.3327 34.4072H70.368C71.8618 38.2735 72.6827 42.4782 72.6827 46.8725C72.6827 56.4244 68.8099 65.0713 62.5515 71.3329L68.2849 77.0697Z" fill="#5B5555"/>
<path d="M160 50.5583V141.041H147.76V50.5583C147.76 48.5236 146.112 46.8721 144.074 46.8721H156.313C158.348 46.8724 160 48.5239 160 50.5583Z" fill="#5B5555"/>
<path d="M122.406 94.8178L160 141.042H36.3977C35.2884 141.042 34.2384 140.542 33.5384 139.681L0.833055 99.4688C-1.12569 97.0603 0.588055 93.4575 3.69243 93.4575H119.546C120.656 93.4575 121.706 93.9572 122.406 94.8178Z" fill="#64B9FC"/>
<path d="M160 141.041H144.148L106.556 94.8179C105.854 93.9582 104.805 93.4561 103.698 93.4561H119.546C120.657 93.4561 121.706 93.9582 122.405 94.8179L160 141.041Z" fill="#31A7FB"/>
<path d="M132.008 130.2H99.487C98.4817 130.2 97.5342 129.73 96.9251 128.93L88.5908 117.979C87.7842 116.919 88.5401 115.395 89.8717 115.395H122.393C123.398 115.395 124.345 115.864 124.955 116.664L133.289 127.615C134.095 128.675 133.34 130.2 132.008 130.2Z" fill="#F8F3F1"/>
<path d="M132.008 130.198H121.545C122.878 130.198 123.635 128.676 122.826 127.613L114.492 116.665C113.883 115.863 112.937 115.393 111.932 115.393H122.392C123.4 115.393 124.346 115.863 124.955 116.665L133.289 127.613C134.094 128.676 133.341 130.198 132.008 130.198Z" fill="#EFE2DD"/>
<path d="M79.9999 132.613H65.2274C63.8939 132.613 62.813 131.532 62.813 130.199C62.813 128.865 63.8939 127.784 65.2274 127.784H79.9999C81.3333 127.784 82.4142 128.865 82.4142 130.199C82.4142 131.532 81.3333 132.613 79.9999 132.613Z" fill="#F8F3F1"/>
<path d="M74.609 124.605H68.3387C67.0053 124.605 65.9243 123.524 65.9243 122.19C65.9243 120.857 67.0053 119.776 68.3387 119.776H74.609C75.9424 119.776 77.0234 120.857 77.0234 122.19C77.0237 123.524 75.9428 124.605 74.609 124.605Z" fill="#F8F3F1"/>
<path d="M72.6821 35.5505C72.6821 16.4462 57.195 0.958984 38.0909 0.958984C19.0043 0.958984 3.49902 16.4643 3.49902 35.5509C3.49934 54.6552 18.9862 70.1421 38.0906 70.1421H66.4656C68.7596 70.1421 69.9087 67.3684 68.2865 65.7462L62.5506 60.0102C68.8106 53.7509 72.6821 45.1027 72.6821 35.5505Z" fill="#31A7FB"/>
<path d="M68.2849 65.7472C69.9074 67.3697 68.7614 70.1416 66.4661 70.1416H54.7992C57.0914 70.1416 58.2408 67.3697 56.618 65.7472L53.0611 62.1885C51.878 61.0047 51.803 59.1154 52.8817 57.8357C57.9561 51.8169 61.0155 44.0394 61.0155 35.55C61.0155 18.4363 48.5858 4.22286 32.2605 1.45098C33.8402 1.18005 35.4558 1.01879 37.0999 0.972232C56.4452 0.427232 72.3555 15.6104 72.6774 34.9607C72.8402 44.7454 68.9377 53.6232 62.5511 60.01L68.2849 65.7472Z" fill="#1C96F9"/>
<path d="M44.9196 35.5506L51.3542 29.1159C53.2402 27.23 53.2402 24.1725 51.3542 22.2868C49.4686 20.4009 46.4108 20.4009 44.5252 22.2868L38.0905 28.7215L31.6561 22.2865C29.7705 20.4006 26.7127 20.4006 24.8271 22.2865C22.9411 24.1721 22.9411 27.2296 24.8271 29.1156L31.2617 35.5503L24.8271 41.985C22.9411 43.8709 22.9411 46.9284 24.8271 48.814C25.7699 49.7572 27.0058 50.2284 28.2417 50.2284C29.4777 50.2284 30.7133 49.7568 31.6564 48.814L38.0911 42.3793L44.5258 48.814C45.4689 49.7572 46.7042 50.2284 47.9405 50.2284C49.1761 50.2284 50.4121 49.7568 51.3552 48.814C53.2411 46.9284 53.2411 43.8709 51.3552 41.985L44.9196 35.5506Z" fill="#F8F3F1"/>
<path d="M101.27 57.238C106.233 57.238 110.256 53.2148 110.256 48.252C110.256 43.2893 106.233 39.2661 101.27 39.2661C96.3073 39.2661 92.2842 43.2893 92.2842 48.252C92.2842 53.2148 96.3073 57.238 101.27 57.238Z" fill="#BCEA73"/>
<path d="M110.256 48.2508C110.256 53.2155 106.231 57.2399 101.271 57.2399C99.6074 57.2399 98.0471 56.788 96.7124 55.9955C100.24 55.1824 102.868 52.0246 102.868 48.2508C102.868 44.4811 100.244 41.3192 96.7165 40.5061C98.0512 39.7177 99.6074 39.2661 101.271 39.2661C106.231 39.2658 110.256 43.2902 110.256 48.2508Z" fill="#99D53B"/>
<path d="M132.741 37.4774C136.657 37.4774 139.832 34.3026 139.832 30.3862C139.832 26.4698 136.657 23.2949 132.741 23.2949C128.824 23.2949 125.649 26.4698 125.649 30.3862C125.649 34.3026 128.824 37.4774 132.741 37.4774Z" fill="#BCEA73"/>
<path d="M139.831 30.3855C139.831 34.3034 136.655 37.479 132.741 37.479C131.428 37.479 130.197 37.1224 129.144 36.4971C131.927 35.8555 134.001 33.3634 134.001 30.3855C134.001 27.4105 131.93 24.9155 129.147 24.2737C130.2 23.6515 131.428 23.2949 132.74 23.2949C136.655 23.2949 139.831 26.4709 139.831 30.3855Z" fill="#99D53B"/>
<path d="M116.538 17.4249L117.844 16.1186C118.787 15.1755 118.787 13.6471 117.844 12.7039C116.901 11.7611 115.372 11.7611 114.429 12.7039L113.123 14.0102L111.817 12.7039C110.874 11.7608 109.345 11.7608 108.402 12.7039C107.459 13.6467 107.459 15.1755 108.402 16.1186L109.708 17.4249L108.402 18.7311C107.459 19.6742 107.459 21.2027 108.402 22.1458C108.873 22.6174 109.491 22.853 110.109 22.853C110.727 22.853 111.345 22.6171 111.816 22.1458L113.123 20.8396L114.429 22.1458C114.9 22.6174 115.518 22.853 116.136 22.853C116.754 22.853 117.372 22.6171 117.843 22.1458C118.786 21.203 118.786 19.6742 117.843 18.7311L116.538 17.4249Z" fill="#64B9FC"/>
<path d="M18.0781 72.2388C17.1353 71.296 15.6066 71.296 14.6635 72.2388L12.3891 74.5132L10.1147 72.2388C9.17189 71.296 7.64314 71.296 6.70002 72.2388C5.75689 73.1817 5.75689 74.7104 6.70002 75.6535L8.97439 77.9279L6.70002 80.2023C5.75689 81.1451 5.75689 82.6738 6.70002 83.617C7.17158 84.0885 7.78939 84.3242 8.40721 84.3242C9.02502 84.3242 9.64314 84.0882 10.1144 83.617L12.3888 81.3426L14.6631 83.617C15.1347 84.0885 15.7525 84.3242 16.3703 84.3242C16.9881 84.3242 17.6063 84.0882 18.0775 83.617C19.0206 82.6742 19.0206 81.1454 18.0775 80.2023L15.8031 77.9279L18.0775 75.6535C19.021 74.7104 19.021 73.1817 18.0781 72.2388Z" fill="#A8E7EF"/>
</svg>
