<svg width="55" height="55" viewBox="0 0 55 55" fill="none" xmlns="http://www.w3.org/2000/svg">
<g clip-path="url(#clip0_1611_196)">
<path d="M50.3536 27.4262L38.9286 47.2149C38.2785 48.3431 37.3731 49.3034 36.285 50.0188L34.7565 43.0163L33.4907 37.2337C33.1472 35.6786 32.1695 34.1471 30.7316 33.9376C29.0482 33.9362 27.3683 34.0923 25.7138 34.4036L24.6443 29.456C24.5086 28.8264 24.2425 28.2321 23.8631 27.7116C23.4837 27.191 22.9995 26.7557 22.4417 26.4336C21.8839 26.1116 21.2648 25.9099 20.6243 25.8416C19.9838 25.7734 19.3361 25.84 18.7229 26.0373L9.94729 28.8371L3.1512 31.0333C3.21736 29.6876 3.6072 28.3778 4.28762 27.2149L15.7126 7.42624C16.8497 5.4567 18.7227 4.01954 20.9194 3.43092C23.1162 2.84231 25.4567 3.15046 27.4263 4.28757L47.215 15.7126C49.1845 16.8497 50.6217 18.7226 51.2103 20.9194C51.7989 23.1161 51.4908 25.4567 50.3536 27.4262Z" fill="url(#paint0_linear_1611_196)"/>
<path d="M36.2728 50.0404C35.2744 50.7154 34.1447 51.1716 32.9577 51.3793C31.7707 51.587 30.5531 51.5414 29.385 51.2455L26.651 38.4809L25.7682 34.4349C27.4001 34.115 29.0581 33.9464 30.721 33.9314C32.1697 34.1471 33.1474 35.6787 33.4801 37.2275L34.7334 43.0318L36.2728 50.0404Z" fill="url(#paint1_linear_1611_196)"/>
<path d="M29.3844 51.2453C28.6322 51.0498 27.9097 50.754 27.2363 50.366L7.426 38.9285C6.05239 38.1372 4.92542 36.9801 4.17062 35.5861C3.41581 34.1921 3.0628 32.6159 3.1509 31.0332L9.947 28.837L18.7055 26.0417C19.3187 25.8445 19.9664 25.7778 20.6069 25.8461C21.2474 25.9144 21.8665 26.116 22.4243 26.4381C22.9822 26.7601 23.4664 27.1955 23.8457 27.716C24.2251 28.2366 24.4912 28.8308 24.627 29.4605L25.6965 34.4081L26.5855 38.4432L29.3844 51.2453Z" fill="url(#paint2_linear_1611_196)"/>
<path d="M29.3844 51.2453C28.6322 51.0498 27.9097 50.754 27.2363 50.366L7.426 38.9285C6.05239 38.1372 4.92542 36.9801 4.17062 35.5861C3.41581 34.1921 3.0628 32.6159 3.1509 31.0332L9.947 28.837L18.7055 26.0417C19.3187 25.8445 19.9664 25.7778 20.6069 25.8461C21.2474 25.9144 21.8665 26.116 22.4243 26.4381C22.9822 26.7601 23.4664 27.1955 23.8457 27.716C24.2251 28.2366 24.4912 28.8308 24.627 29.4605L25.6965 34.4081L26.5855 38.4432L29.3844 51.2453Z" fill="url(#paint3_linear_1611_196)"/>
<path d="M35.639 27.1871C37.0081 27.9776 38.7587 27.5085 39.5492 26.1393C40.3397 24.7702 39.8706 23.0196 38.5015 22.2291C37.1323 21.4386 35.3817 21.9077 34.5912 23.2768C33.8008 24.646 34.2698 26.3966 35.639 27.1871Z" fill="url(#paint4_linear_1611_196)"/>
</g>
<defs>
<linearGradient id="paint0_linear_1611_196" x1="19.6706" y1="40.5708" x2="37.3206" y2="10.0001" gradientUnits="userSpaceOnUse">
<stop stop-color="#F6F0EA"/>
<stop offset="1" stop-color="#F1DFD1"/>
</linearGradient>
<linearGradient id="paint1_linear_1611_196" x1="35.2794" y1="50.636" x2="25.8648" y2="34.3175" gradientUnits="userSpaceOnUse">
<stop stop-color="#FEB692"/>
<stop offset="1" stop-color="#EA5455"/>
</linearGradient>
<linearGradient id="paint2_linear_1611_196" x1="19.9714" y1="53.7493" x2="12.9574" y2="27.5728" gradientUnits="userSpaceOnUse">
<stop stop-color="#FEB692"/>
<stop offset="1" stop-color="#EA5455"/>
</linearGradient>
<linearGradient id="paint3_linear_1611_196" x1="26.3456" y1="52.9838" x2="11.0459" y2="26.4836" gradientUnits="userSpaceOnUse">
<stop stop-color="#FEB692"/>
<stop offset="1" stop-color="#EA5455"/>
</linearGradient>
<linearGradient id="paint4_linear_1611_196" x1="38.5011" y1="27.1797" x2="35.6455" y2="22.2257" gradientUnits="userSpaceOnUse">
<stop stop-color="#FEB692"/>
<stop offset="1" stop-color="#EA5455"/>
</linearGradient>
<clipPath id="clip0_1611_196">
<rect width="40" height="40" fill="white" transform="translate(20) rotate(30)"/>
</clipPath>
</defs>
</svg>
