<svg width="80" height="80" viewBox="0 0 80 80" fill="none" xmlns="http://www.w3.org/2000/svg">
<path d="M13.3337 21.333C11.5655 21.333 9.86986 22.0354 8.61961 23.2856C7.36937 24.5359 6.66699 26.2316 6.66699 27.9997V59.9997C6.66699 61.7678 7.36937 63.4635 8.61961 64.7137C9.86986 65.964 11.5655 66.6663 13.3337 66.6663H17.3337C17.6873 66.6663 18.0264 66.8068 18.2765 67.0569C18.5265 67.3069 18.667 67.646 18.667 67.9997V77.373C18.6691 77.6149 18.7384 77.8515 18.8673 78.0563C18.9962 78.2611 19.1795 78.426 19.3967 78.5325C19.614 78.6391 19.8566 78.6831 20.0974 78.6596C20.3382 78.6361 20.5677 78.5461 20.7603 78.3997L35.6403 66.9437C35.8734 66.764 36.1594 66.6665 36.4537 66.6663H66.667C68.4351 66.6663 70.1308 65.964 71.381 64.7137C72.6313 63.4635 73.3337 61.7678 73.3337 59.9997V27.9997C73.3337 26.2316 72.6313 24.5359 71.381 23.2856C70.1308 22.0354 68.4351 21.333 66.667 21.333H13.3337Z" fill="white"/>
<path d="M45.3725 4.28958L64.3418 34.2669C64.9492 35.2271 65.2874 36.3327 65.3214 37.4683C65.3553 38.6039 65.0835 39.7277 64.5346 40.7224C63.9856 41.7171 63.1795 42.546 62.2006 43.1226C61.2217 43.6992 60.1059 44.0023 58.9698 44.0002H21.0311C19.895 44.0023 18.7792 43.6992 17.8003 43.1226C16.8214 42.546 16.0154 41.7171 15.4664 40.7224C14.9174 39.7277 14.6457 38.6039 14.6796 37.4683C14.7135 36.3327 15.0518 35.2271 15.6591 34.2669L34.6285 4.28958C35.2021 3.38387 35.9953 2.63788 36.9345 2.12097C37.8738 1.60406 38.9284 1.33301 40.0005 1.33301C41.0725 1.33301 42.1272 1.60406 43.0664 2.12097C44.0056 2.63788 44.7989 3.38387 45.3725 4.28958Z" fill="#D84557"/>
<path d="M39.9997 38.6663C41.4724 38.6663 42.6663 37.4724 42.6663 35.9997C42.6663 34.5269 41.4724 33.333 39.9997 33.333C38.5269 33.333 37.333 34.5269 37.333 35.9997C37.333 37.4724 38.5269 38.6663 39.9997 38.6663Z" fill="#F0F2F5"/>
<path d="M39.9999 28C39.274 28.0002 38.5745 27.7274 38.0403 27.2359C37.5061 26.7444 37.1761 26.0701 37.1159 25.3467L36.3359 15.9853C36.2937 15.4784 36.3571 14.9682 36.522 14.4869C36.6869 14.0057 36.9499 13.5639 37.2942 13.1894C37.6385 12.8149 38.0567 12.5158 38.5224 12.3111C38.9881 12.1064 39.4912 12.0005 39.9999 12C40.509 11.9999 41.0125 12.1054 41.4787 12.3099C41.9449 12.5144 42.3636 12.8133 42.7083 13.1879C43.0531 13.5624 43.3164 14.0045 43.4815 14.486C43.6467 14.9675 43.7102 15.478 43.6679 15.9853L42.8879 25.3467C42.8277 26.0708 42.4971 26.7457 41.9621 27.2373C41.427 27.7289 40.7265 28.0012 39.9999 28Z" fill="#F0F2F5"/>
<path d="M20.0003 51.9997H16.0003C15.6467 51.9997 15.3076 51.8592 15.0575 51.6092C14.8075 51.3591 14.667 51.02 14.667 50.6663C14.667 50.3127 14.8075 49.9736 15.0575 49.7235C15.3076 49.4735 15.6467 49.333 16.0003 49.333H20.0003C20.3539 49.333 20.6931 49.4735 20.9431 49.7235C21.1932 49.9736 21.3337 50.3127 21.3337 50.6663C21.3337 51.02 21.1932 51.3591 20.9431 51.6092C20.6931 51.8592 20.3539 51.9997 20.0003 51.9997Z" fill="#8991A0"/>
<path d="M52.0003 58.6667H48.0003C47.6467 58.6667 47.3076 58.5262 47.0575 58.2761C46.8075 58.0261 46.667 57.687 46.667 57.3333C46.667 56.9797 46.8075 56.6406 47.0575 56.3905C47.3076 56.1405 47.6467 56 48.0003 56H52.0003C52.3539 56 52.6931 56.1405 52.9431 56.3905C53.1932 56.6406 53.3337 56.9797 53.3337 57.3333C53.3337 57.687 53.1932 58.0261 52.9431 58.2761C52.6931 58.5262 52.3539 58.6667 52.0003 58.6667Z" fill="#8991A0"/>
<path d="M57.3333 51.9997H25.3333C24.9797 51.9997 24.6406 51.8592 24.3905 51.6092C24.1405 51.3591 24 51.02 24 50.6663C24 50.3127 24.1405 49.9736 24.3905 49.7235C24.6406 49.4735 24.9797 49.333 25.3333 49.333H57.3333C57.687 49.333 58.0261 49.4735 58.2761 49.7235C58.5262 49.9736 58.6667 50.3127 58.6667 50.6663C58.6667 51.02 58.5262 51.3591 58.2761 51.6092C58.0261 51.8592 57.687 51.9997 57.3333 51.9997Z" fill="#8991A0"/>
<path d="M42.667 58.6667H16.0003C15.6467 58.6667 15.3076 58.5262 15.0575 58.2761C14.8075 58.0261 14.667 57.687 14.667 57.3333C14.667 56.9797 14.8075 56.6406 15.0575 56.3905C15.3076 56.1405 15.6467 56 16.0003 56H42.667C43.0206 56 43.3598 56.1405 43.6098 56.3905C43.8599 56.6406 44.0003 56.9797 44.0003 57.3333C44.0003 57.687 43.8599 58.0261 43.6098 58.2761C43.3598 58.5262 43.0206 58.6667 42.667 58.6667Z" fill="#8991A0"/>
<path d="M64.0007 51.9997H62.6673C62.3137 51.9997 61.9746 51.8592 61.7245 51.6092C61.4745 51.3591 61.334 51.02 61.334 50.6663C61.334 50.3127 61.4745 49.9736 61.7245 49.7235C61.9746 49.4735 62.3137 49.333 62.6673 49.333H64.0007C64.3543 49.333 64.6934 49.4735 64.9435 49.7235C65.1935 49.9736 65.334 50.3127 65.334 50.6663C65.334 51.02 65.1935 51.3591 64.9435 51.6092C64.6934 51.8592 64.3543 51.9997 64.0007 51.9997Z" fill="#8991A0"/>
</svg>
