<svg width="16" height="16" viewBox="0 0 16 16" fill="none" xmlns="http://www.w3.org/2000/svg">
<g clip-path="url(#clip0_144_15341)">
<path d="M15.514 6.27935C14.48 4.59535 12.128 1.77002 8.00003 1.77002C3.87203 1.77002 1.52003 4.59535 0.486034 6.27935C0.166386 6.79636 -0.00292969 7.39218 -0.00292969 8.00002C-0.00292969 8.60786 0.166386 9.20368 0.486034 9.72069C1.52003 11.4047 3.87203 14.23 8.00003 14.23C12.128 14.23 14.48 11.4047 15.514 9.72069C15.8337 9.20368 16.003 8.60786 16.003 8.00002C16.003 7.39218 15.8337 6.79636 15.514 6.27935ZM14.3774 9.02269C13.4894 10.4667 11.4794 12.8967 8.00003 12.8967C4.5207 12.8967 2.5107 10.4667 1.6227 9.02269C1.43279 8.71538 1.3322 8.36127 1.3322 8.00002C1.3322 7.63877 1.43279 7.28466 1.6227 6.97735C2.5107 5.53335 4.5207 3.10335 8.00003 3.10335C11.4794 3.10335 13.4894 5.53069 14.3774 6.97735C14.5673 7.28466 14.6679 7.63877 14.6679 8.00002C14.6679 8.36127 14.5673 8.71538 14.3774 9.02269Z" fill="#8595AC"/>
<path d="M7.99984 4.66675C7.34057 4.66675 6.6961 4.86224 6.14794 5.22852C5.59977 5.59479 5.17253 6.11538 4.92024 6.72447C4.66795 7.33356 4.60194 8.00378 4.73055 8.65038C4.85917 9.29699 5.17664 9.89093 5.64282 10.3571C6.10899 10.8233 6.70293 11.1407 7.34954 11.2694C7.99614 11.398 8.66636 11.332 9.27545 11.0797C9.88454 10.8274 10.4051 10.4001 10.7714 9.85198C11.1377 9.30382 11.3332 8.65935 11.3332 8.00008C11.3321 7.11635 10.9806 6.26912 10.3557 5.64423C9.7308 5.01934 8.88357 4.66781 7.99984 4.66675ZM7.99984 10.0001C7.60428 10.0001 7.2176 9.88278 6.8887 9.66302C6.5598 9.44326 6.30345 9.1309 6.15208 8.76545C6.0007 8.4 5.9611 7.99786 6.03827 7.6099C6.11544 7.22194 6.30592 6.86557 6.58562 6.58587C6.86533 6.30616 7.2217 6.11568 7.60966 6.03851C7.99762 5.96134 8.39975 6.00095 8.76521 6.15232C9.13066 6.3037 9.44302 6.56004 9.66278 6.88894C9.88254 7.21784 9.99984 7.60452 9.99984 8.00008C9.99984 8.53051 9.78913 9.03922 9.41405 9.4143C9.03898 9.78937 8.53027 10.0001 7.99984 10.0001Z" fill="#8595AC"/>
</g>
<defs>
<clipPath id="clip0_144_15341">
<rect width="16" height="16" fill="white"/>
</clipPath>
</defs>
</svg>
