<svg width="32" height="32" viewBox="0 0 32 32" fill="none" xmlns="http://www.w3.org/2000/svg">
<path d="M31.5 16C31.5 24.5604 24.5604 31.5 16 31.5C7.43959 31.5 0.5 24.5604 0.5 16C0.5 7.43959 7.43959 0.5 16 0.5C24.5604 0.5 31.5 7.43959 31.5 16Z" fill="white" stroke="#EBEFF3"/>
<path d="M21.2137 22.2816L21.8356 18.3301H17.9452V15.7659C17.9452 14.6848 18.4887 13.6311 20.2312 13.6311H22V10.267C22 10.267 20.3947 10 18.86 10C15.6558 10 13.5616 11.8924 13.5616 15.3184V18.3301H10V22.2816H13.5616V31.8339C14.2758 31.9431 15.0078 32 15.7534 32C16.4991 32 17.231 31.9431 17.9452 31.8339V22.2816H21.2137Z" fill="#0E1D44"/>
</svg>
