<svg width="24" height="24" viewBox="0 0 24 24" fill="none" xmlns="http://www.w3.org/2000/svg">
<path d="M11.9999 23.9998C18.6273 23.9998 23.9998 18.6273 23.9998 11.9999C23.9998 5.37254 18.6273 0 11.9999 0C5.37254 0 0 5.37254 0 11.9999C0 18.6273 5.37254 23.9998 11.9999 23.9998Z" fill="#5C6BC0"/>
<g clip-path="url(#clip0_412_7803)">
<path d="M11.9992 4.16653C7.58224 4.16653 4.00024 7.76253 4.00024 12.1985C4.00024 15.7465 6.29224 18.7565 9.47224 19.8195C9.87224 19.8935 10.0182 19.6455 10.0182 19.4325C10.0182 19.2415 10.0112 18.7365 10.0072 18.0665C7.78224 18.5515 7.31224 16.9895 7.31224 16.9895C6.94924 16.0615 6.42424 15.8145 6.42424 15.8145C5.69724 15.3165 6.47824 15.3265 6.47824 15.3265C7.28124 15.3835 7.70324 16.1545 7.70324 16.1545C8.41724 17.3815 9.57624 17.0275 10.0322 16.8215C10.1042 16.3025 10.3112 15.9485 10.5402 15.7475C8.76424 15.5445 6.89624 14.8555 6.89624 11.7785C6.89624 10.9015 7.20824 10.1845 7.72024 9.62253C7.63724 9.41953 7.36324 8.60253 7.79824 7.49753C7.79824 7.49753 8.47024 7.28153 9.99824 8.32053C10.6362 8.14253 11.3202 8.05353 12.0012 8.05053C12.6802 8.05453 13.3652 8.14253 14.0042 8.32153C15.5312 7.28253 16.2022 7.49853 16.2022 7.49853C16.6382 8.60453 16.3642 9.42053 16.2822 9.62353C16.7952 10.1855 17.1042 10.9025 17.1042 11.7795C17.1042 14.8645 15.2342 15.5435 13.4522 15.7425C13.7392 15.9905 13.9952 16.4805 13.9952 17.2295C13.9952 18.3035 13.9852 19.1695 13.9852 19.4325C13.9852 19.6475 14.1292 19.8975 14.5352 19.8185C17.7102 18.7545 20.0002 15.7455 20.0002 12.1985C20.0002 7.76253 16.4182 4.16653 11.9992 4.16653Z" fill="white"/>
</g>
<defs>
<clipPath id="clip0_412_7803">
<rect width="16" height="16" fill="white" transform="translate(4.00024 4)"/>
</clipPath>
</defs>
</svg>
