<svg width="16" height="16" viewBox="0 0 16 16" fill="none" xmlns="http://www.w3.org/2000/svg">
<path d="M11.6667 0.611328C10.916 0.623005 10.1817 0.832564 9.5379 1.21884C8.8941 1.60512 8.36363 2.15444 8.00005 2.81133C7.63648 2.15444 7.10601 1.60512 6.46221 1.21884C5.81841 0.832564 5.08409 0.623005 4.33339 0.611328C3.13668 0.663322 2.00919 1.18683 1.19724 2.06748C0.385293 2.94814 -0.0451135 4.11435 5.35741e-05 5.31133C5.35741e-05 9.828 7.30405 15.0447 7.61472 15.266L8.00005 15.5387L8.38539 15.266C8.69605 15.046 16.0001 9.828 16.0001 5.31133C16.0452 4.11435 15.6148 2.94814 14.8029 2.06748C13.9909 1.18683 12.8634 0.663322 11.6667 0.611328V0.611328ZM8.00005 13.8973C5.83139 12.2773 1.33339 8.29733 1.33339 5.31133C1.28781 4.46781 1.57763 3.64048 2.13963 3.00979C2.70163 2.37911 3.49021 1.99623 4.33339 1.94466C5.17656 1.99623 5.96515 2.37911 6.52714 3.00979C7.08914 3.64048 7.37896 4.46781 7.33339 5.31133H8.66672C8.62115 4.46781 8.91096 3.64048 9.47296 3.00979C10.035 2.37911 10.8235 1.99623 11.6667 1.94466C12.5099 1.99623 13.2985 2.37911 13.8605 3.00979C14.4225 3.64048 14.7123 4.46781 14.6667 5.31133C14.6667 8.29866 10.1687 12.2773 8.00005 13.8973Z" fill="#0E1D44"/>
</svg>
