<svg width="24" height="24" viewBox="0 0 24 24" fill="none" xmlns="http://www.w3.org/2000/svg">
<path d="M24 12C24 5.37258 18.6274 0 12 0C5.37258 0 0 5.37258 0 12C0 18.6274 5.37258 24 12 24C18.6274 24 24 18.6274 24 12Z" fill="url(#paint0_linear_412_7822)"/>
<path opacity="0.1" d="M21.0316 4.10526C19.2821 7.31684 16.8079 10.6295 13.7163 13.721C10.6247 16.8126 7.31209 19.2821 4.10525 21.0316C3.9042 20.8568 3.70894 20.6747 3.51946 20.4853C2.37418 19.3782 1.46076 18.0542 0.832466 16.5905C0.204169 15.1268 -0.126434 13.5527 -0.140064 11.9599C-0.153693 10.3671 0.149922 8.78748 0.75308 7.31323C1.35624 5.83898 2.24687 4.49956 3.37303 3.37308C4.4992 2.2466 5.83837 1.3556 7.31245 0.752029C8.78653 0.14846 10.366 -0.155596 11.9588 -0.142411C13.5516 -0.129226 15.1259 0.200937 16.5898 0.828826C18.0537 1.45671 19.3779 2.36976 20.4853 3.51473C20.6747 3.70421 20.8568 3.90105 21.0316 4.10526Z" fill="white"/>
<path d="M14.8421 5.6842H9.15789C8.23661 5.6842 7.35306 6.05018 6.70162 6.70162C6.05018 7.35306 5.6842 8.23661 5.6842 9.15789V14.8421C5.6842 15.7634 6.05018 16.6469 6.70162 17.2984C7.35306 17.9498 8.23661 18.3158 9.15789 18.3158H14.8421C15.7634 18.3158 16.6469 17.9498 17.2984 17.2984C17.9498 16.6469 18.3158 15.7634 18.3158 14.8421V9.15789C18.3158 8.23661 17.9498 7.35306 17.2984 6.70162C16.6469 6.05018 15.7634 5.6842 14.8421 5.6842ZM17.2105 14.3432C17.2105 15.1036 16.9084 15.833 16.3707 16.3707C15.833 16.9084 15.1036 17.2105 14.3432 17.2105H9.65684C8.89636 17.2105 8.16704 16.9084 7.6293 16.3707C7.09156 15.833 6.78947 15.1036 6.78947 14.3432V9.65684C6.78947 8.89636 7.09156 8.16704 7.6293 7.6293C8.16704 7.09156 8.89636 6.78947 9.65684 6.78947H14.3432C15.1036 6.78947 15.833 7.09156 16.3707 7.6293C16.9084 8.16704 17.2105 8.89636 17.2105 9.65684V14.3432Z" fill="white"/>
<path d="M14.3037 9.71998L14.2737 9.68998L14.2484 9.66472C13.6514 9.06978 12.8428 8.7359 12 8.7363C11.5744 8.73919 11.1535 8.82591 10.7614 8.99152C10.3693 9.15712 10.0137 9.39835 9.71486 9.70144C9.41603 10.0045 9.17984 10.3635 9.0198 10.7579C8.85975 11.1523 8.77898 11.5744 8.7821 12C8.78146 12.8637 9.12194 13.6928 9.72947 14.3068C10.027 14.608 10.3817 14.8469 10.7726 15.0096C11.1635 15.1722 11.5829 15.2554 12.0063 15.2542C12.6414 15.2409 13.2589 15.043 13.7835 14.6848C14.3081 14.3265 14.7172 13.8234 14.9607 13.2367C15.2043 12.65 15.2718 12.0051 15.1552 11.3806C15.0385 10.7562 14.7426 10.1792 14.3037 9.71998ZM12 14.141C11.5753 14.147 11.1584 14.0265 10.8024 13.7949C10.4464 13.5633 10.1673 13.231 10.0007 12.8403C9.834 12.4497 9.7873 12.0183 9.86649 11.601C9.94568 11.1837 10.1472 10.7994 10.4454 10.497C10.7436 10.1945 11.125 9.9876 11.5411 9.90253C11.9573 9.81746 12.3893 9.85807 12.7823 10.0192C13.1752 10.1803 13.5114 10.4547 13.748 10.8074C13.9846 11.1601 14.111 11.5753 14.111 12C14.1131 12.2792 14.0602 12.5561 13.9552 12.8149C13.8502 13.0736 13.6952 13.3091 13.4992 13.508C13.3031 13.7068 13.0698 13.8651 12.8126 13.9737C12.5553 14.0823 12.2792 14.1392 12 14.141Z" fill="white"/>
<path d="M16.1731 8.58631C16.174 8.68763 16.1548 8.78812 16.1168 8.88202C16.0787 8.97593 16.0225 9.06141 15.9514 9.13356C15.8803 9.20572 15.7956 9.26314 15.7022 9.30254C15.6089 9.34193 15.5087 9.36253 15.4074 9.36315C15.3069 9.3631 15.2074 9.34312 15.1147 9.30436C15.022 9.26561 14.938 9.20884 14.8674 9.13736C14.7604 9.02883 14.6876 8.89129 14.6581 8.74179C14.6286 8.5923 14.6436 8.43742 14.7012 8.29637C14.7589 8.15532 14.8567 8.03429 14.9825 7.9483C15.1083 7.86231 15.2566 7.81513 15.4089 7.81262C15.5873 7.81259 15.7599 7.87518 15.8968 7.98946L15.9126 8.00525C15.9381 8.02598 15.9614 8.04926 15.9821 8.07473L15.9995 8.09367C16.1125 8.23291 16.1739 8.40697 16.1731 8.58631Z" fill="white"/>
<defs>
<linearGradient id="paint0_linear_412_7822" x1="3.51474" y1="3.51474" x2="20.4853" y2="20.4853" gradientUnits="userSpaceOnUse">
<stop stop-color="#FAE100"/>
<stop offset="0.15" stop-color="#FCB720"/>
<stop offset="0.3" stop-color="#FF7950"/>
<stop offset="0.5" stop-color="#FF1C74"/>
<stop offset="1" stop-color="#6C1CD1"/>
</linearGradient>
</defs>
</svg>
