<svg width="13" height="15" viewBox="0 0 13 15" fill="none" xmlns="http://www.w3.org/2000/svg">
<path d="M10.5796 0.891945H8.23967C8.12225 0.381739 7.66472 0 7.11945 0H4.88145C4.33615 0 3.87862 0.381739 3.76123 0.891945H1.47982C0.66381 0.891945 0 1.55578 0 2.37176V13.5202C0 14.3362 0.663839 15 1.47982 15H10.5797C11.3957 15 12.0595 14.3362 12.0595 13.5202V2.37176C12.0595 1.55576 11.3956 0.891945 10.5796 0.891945ZM4.60964 1.14979C4.60964 0.999904 4.73157 0.877941 4.88145 0.877941H7.11945C7.2693 0.877941 7.39126 0.999875 7.39126 1.14979V1.68759C7.39126 1.83747 7.26933 1.95944 7.11945 1.95944H4.88145C4.7316 1.95944 4.60964 1.8375 4.60964 1.68759V1.14979ZM10.5796 14.1221H1.47979C1.14788 14.1221 0.877912 13.8521 0.877912 13.5202V2.37176C0.877912 2.03986 1.14791 1.76989 1.47979 1.76989H3.73495C3.77731 2.36558 4.27518 2.83741 4.88143 2.83741H7.11942C7.72572 2.83741 8.22356 2.36558 8.2659 1.76989H10.5796C10.9115 1.76989 11.1815 2.03989 11.1815 2.37176V13.5202H11.1815C11.1815 13.8521 10.9115 14.1221 10.5796 14.1221Z" fill="#0E1D44"/>
<path d="M9.83538 4.82812H5.55764C5.31521 4.82812 5.11865 5.02468 5.11865 5.26711C5.11865 5.50954 5.31521 5.7061 5.55764 5.7061H9.83536C10.0778 5.7061 10.2743 5.50954 10.2743 5.26711C10.2743 5.02468 10.0778 4.82812 9.83538 4.82812Z" fill="#0E1D44"/>
<path d="M4.27334 4.1917C4.09044 4.03268 3.81312 4.05193 3.65404 4.23491L2.67394 5.36199L2.312 4.99165C2.14255 4.81818 1.86461 4.81508 1.69126 4.9845C1.51782 5.15395 1.51469 5.43184 1.68411 5.60524L2.3788 6.31613C2.38261 6.32003 2.38674 6.32334 2.39063 6.32706C2.39538 6.33157 2.39975 6.33629 2.4047 6.34059C2.40605 6.34177 2.40748 6.34273 2.40883 6.34388C2.41352 6.34786 2.41841 6.35149 2.42318 6.35527C2.4296 6.36028 2.43602 6.36526 2.44261 6.36983C2.44785 6.37349 2.45324 6.37686 2.45857 6.38026C2.4652 6.38445 2.47185 6.38852 2.47861 6.39233C2.484 6.39535 2.48942 6.39819 2.4949 6.40098C2.50208 6.40461 2.50926 6.40801 2.51655 6.4112C2.52186 6.41351 2.52716 6.4158 2.53252 6.41791C2.54031 6.42096 2.54816 6.42371 2.55607 6.42629C2.56117 6.42796 2.56624 6.42966 2.57137 6.43115C2.57992 6.43361 2.58851 6.43563 2.59715 6.43754C2.60184 6.43859 2.60649 6.43976 2.61118 6.44067C2.62082 6.44249 2.63046 6.44375 2.64019 6.44492C2.64405 6.44539 2.64789 6.44609 2.65176 6.44644C2.66529 6.4477 2.67889 6.44844 2.69245 6.44844C2.69248 6.44844 2.69251 6.44844 2.69254 6.44844C2.69257 6.44844 2.6926 6.44844 2.69266 6.44844C2.70728 6.44844 2.72195 6.44759 2.73651 6.44615C2.7407 6.44574 2.74483 6.44492 2.74902 6.44436C2.75945 6.44302 2.7698 6.44155 2.78014 6.43947C2.78523 6.43845 2.79027 6.43704 2.79531 6.43581C2.80454 6.43358 2.81374 6.43127 2.82285 6.42846C2.82839 6.42673 2.83381 6.42474 2.83926 6.4228C2.84767 6.41981 2.85602 6.41671 2.86428 6.41319C2.87008 6.41073 2.87576 6.40807 2.88145 6.40534C2.88906 6.40171 2.89656 6.39787 2.90403 6.39377C2.91001 6.39049 2.91587 6.38706 2.9217 6.38348C2.92856 6.37927 2.93529 6.37481 2.94191 6.37021C2.94786 6.36608 2.95378 6.36192 2.95952 6.3575C2.96582 6.35264 2.97194 6.34745 2.97801 6.34224C2.9836 6.33743 2.9892 6.33268 2.99456 6.32759C2.99614 6.32609 2.99784 6.32483 2.9994 6.32331C3.00426 6.31853 3.00851 6.31341 3.01311 6.30851C3.01662 6.30474 3.02046 6.30137 3.02389 6.29744L4.31641 4.81106C4.47564 4.62805 4.45627 4.35081 4.27334 4.1917Z" fill="#0E1D44"/>
<path d="M9.83538 7.88477H5.55764C5.31521 7.88477 5.11865 8.08132 5.11865 8.32375C5.11865 8.56618 5.31521 8.76274 5.55764 8.76274H9.83536C10.0778 8.76274 10.2743 8.56618 10.2743 8.32375C10.2744 8.08129 10.0778 7.88477 9.83538 7.88477Z" fill="#0E1D44"/>
<path d="M9.83538 10.9297H5.55764C5.31521 10.9297 5.11865 11.1262 5.11865 11.3687C5.11865 11.6111 5.31521 11.8077 5.55764 11.8077H9.83536C10.0778 11.8077 10.2743 11.6111 10.2743 11.3687C10.2743 11.1262 10.0778 10.9297 9.83538 10.9297Z" fill="#0E1D44"/>
<path d="M3.85928 7.88477H2.07228C1.82985 7.88477 1.6333 8.08132 1.6333 8.32375C1.6333 8.56618 1.82985 8.76274 2.07228 8.76274H3.8593C4.10174 8.76274 4.29829 8.56618 4.29829 8.32375C4.29826 8.08129 4.10171 7.88477 3.85928 7.88477Z" fill="#0E1D44"/>
<path d="M3.85928 10.875H2.07228C1.82985 10.875 1.6333 11.0716 1.6333 11.314C1.6333 11.5564 1.82985 11.753 2.07228 11.753H3.8593C4.10174 11.753 4.29829 11.5564 4.29829 11.314C4.29829 11.0716 4.10171 10.875 3.85928 10.875Z" fill="#0E1D44"/>
</svg>
