<svg width="18" height="18" viewBox="0 0 18 18" fill="none" xmlns="http://www.w3.org/2000/svg">
<path d="M9.17089 1.44021C6.49022 1.43318 4.13124 2.8201 2.783 4.91541C2.72323 5.00857 2.79003 5.13162 2.90077 5.13162H4.13651C4.22089 5.13162 4.29999 5.0947 4.35273 5.02967C4.47577 4.88025 4.60761 4.73611 4.74647 4.599C5.31952 4.02771 5.98573 3.57771 6.72753 3.26482C7.49394 2.94138 8.30956 2.77615 9.15155 2.77615C9.99354 2.77615 10.8092 2.93963 11.5756 3.26482C12.3174 3.57771 12.9836 4.02771 13.5566 4.599C14.1297 5.17029 14.5779 5.8365 14.8926 6.57654C15.2178 7.34295 15.3812 8.15681 15.3812 8.99881C15.3812 9.8408 15.216 10.6547 14.8926 11.4211C14.5797 12.1611 14.1297 12.8273 13.5566 13.3986C12.9836 13.9699 12.3174 14.4199 11.5756 14.7328C10.8086 15.0568 9.98417 15.2229 9.15155 15.2215C8.30956 15.2215 7.49394 15.0562 6.72753 14.7328C5.98719 14.4202 5.31444 13.9671 4.74647 13.3986C4.60761 13.2597 4.47753 13.1156 4.35273 12.9679C4.29999 12.9029 4.21913 12.866 4.13651 12.866H2.90077C2.79003 12.866 2.72147 12.989 2.783 13.0822C4.12948 15.1722 6.47792 16.5574 9.15155 16.5574C13.3035 16.5574 16.675 13.2158 16.7172 9.07615C16.7594 4.8697 13.3826 1.45076 9.17089 1.44021ZM6.94409 10.9676V9.63162H1.42456C1.34722 9.63162 1.28394 9.56834 1.28394 9.49099V8.50662C1.28394 8.42928 1.34722 8.36599 1.42456 8.36599H6.94409V7.03006C6.94409 6.91228 7.0812 6.84549 7.17261 6.91931L9.66694 8.88806C9.68375 8.90122 9.69734 8.91803 9.70669 8.93721C9.71604 8.9564 9.7209 8.97746 9.7209 8.99881C9.7209 9.02015 9.71604 9.04121 9.70669 9.0604C9.69734 9.07959 9.68375 9.09639 9.66694 9.10955L7.17261 11.0783C7.0812 11.1504 6.94409 11.0853 6.94409 10.9676Z" fill="white"/>
</svg>
