<svg width="16" height="16" viewBox="0 0 16 16" fill="none" xmlns="http://www.w3.org/2000/svg">
<path d="M14.2582 11.8653H13.0225C12.9381 11.8653 12.859 11.9022 12.8062 11.9672C12.6832 12.1166 12.5514 12.2608 12.4125 12.3979C11.8445 12.9664 11.1718 13.4195 10.4314 13.7321C9.66443 14.056 8.84004 14.2222 8.00742 14.2207C7.16543 14.2207 6.3498 14.0555 5.5834 13.7321C4.84306 13.4195 4.1703 12.9664 3.60234 12.3979C3.03337 11.8313 2.57968 11.1597 2.26641 10.4203C1.94121 9.65393 1.77773 8.84007 1.77773 7.99807C1.77773 7.15608 1.94297 6.34221 2.26641 5.57581C2.5793 4.83577 3.0293 4.16956 3.60234 3.59827C4.17539 3.02698 4.8416 2.57698 5.5834 2.26409C6.3498 1.94065 7.16543 1.77542 8.00742 1.77542C8.84941 1.77542 9.66504 1.93889 10.4314 2.26409C11.1732 2.57698 11.8395 3.02698 12.4125 3.59827C12.5514 3.73714 12.6814 3.88128 12.8062 4.02893C12.859 4.09397 12.9398 4.13089 13.0225 4.13089H14.2582C14.3689 4.13089 14.4375 4.00784 14.376 3.91468C13.0277 1.81936 10.6687 0.432448 7.98809 0.43948C3.77637 0.450027 0.39961 3.86897 0.441797 8.07542C0.483985 12.2151 3.85547 15.5567 8.00742 15.5567C10.6811 15.5567 13.0295 14.1715 14.376 12.0815C14.4357 11.9883 14.3689 11.8653 14.2582 11.8653ZM15.8209 7.88733L13.3266 5.91858C13.2334 5.84475 13.098 5.91155 13.098 6.02932V7.36526H7.57852C7.50117 7.36526 7.43789 7.42854 7.43789 7.50589V8.49026C7.43789 8.56761 7.50117 8.63089 7.57852 8.63089H13.098V9.96682C13.098 10.0846 13.2352 10.1514 13.3266 10.0776L15.8209 8.10882C15.8377 8.09566 15.8513 8.07885 15.8606 8.05967C15.87 8.04048 15.8749 8.01942 15.8749 7.99807C15.8749 7.97673 15.87 7.95567 15.8606 7.93648C15.8513 7.91729 15.8377 7.90049 15.8209 7.88733Z" fill="#0E1D44"/>
</svg>
