<svg width="80" height="67" viewBox="0 0 80 67" fill="none" xmlns="http://www.w3.org/2000/svg">
<path d="M32.4968 0H29.8774V12.9687L19.2898 13.2231C8.6582 13.2231 -0.199692 21.8204 0.00342523 33.345C0.201197 44.5161 8.60543 53.4283 18.9537 53.4283H39.5474V50.1186C39.5474 45.8809 36.4833 43.229 32.5813 43.229H19.4C16.3746 43.229 13.2208 41.1583 11.6547 38.6308C10.6712 37.1409 10.0753 35.0007 10.0753 33.0296C10.0753 31.0586 10.7141 28.8457 11.6976 27.3558C13.2691 24.8225 16.3618 23.2356 19.4037 23.168L32.4461 23.2356C36.3534 23.2356 39.5474 20.0375 39.5474 15.8056V7.70016C39.5528 3.46246 36.4042 0 32.4968 0Z" fill="url(#paint0_linear_620_198)"/>
<path d="M8.20386 25.3817C9.07634 17.7916 13.6479 14.3892 17.6784 13.3571C13.0056 13.705 9.29754 15.7142 6.02375 18.7261C2.33042 22.5531 -0.103435 27.3764 0.00361761 33.285C0.105318 39.1588 2.48724 44.4296 6.22338 48.1058C10.5751 45.8792 12.7936 40.2662 12.7936 40.2662C12.7936 40.2662 7.09587 35.0245 8.20386 25.3817Z" fill="#0050B2"/>
<path d="M39.5474 53.4283L39.5476 50.0208C39.5476 45.7847 36.329 43.1537 32.4291 43.1537H19.3223C17.3937 43.1537 15.3363 42.1409 13.8499 41.1281C13.8499 41.1281 6.28081 35.9508 6.8471 23.9089C7.08751 18.7978 10.0435 16.485 13.2008 14.4046C5.70161 16.4302 -0.162048 24.0596 0.00356468 33.2735C0.201231 44.4403 8.60473 53.4282 18.9475 53.4282L39.5474 53.4283Z" fill="url(#paint1_linear_620_198)"/>
<path d="M18.2088 52.0892C6.70141 50.4002 0.812309 40.1986 0.812309 32.3615C0.721315 27.3285 3.24573 22.3501 6.02375 18.7261C2.34648 22.5415 -0.0984207 27.4705 0.00327944 33.3733C0.201327 44.5469 8.62103 53.5403 18.9837 53.5403L39.6668 53.4405C39.6668 53.4405 29.7163 53.2378 18.2088 52.0892Z" fill="#FB885B"/>
<path d="M47.1317 66.8972H49.7548L49.7548 53.9255L60.3572 53.6711C71.0036 53.6711 79.8738 45.0719 79.6704 33.5446C79.4724 22.371 71.0564 13.4567 60.6937 13.4567L40.0713 13.4567L40.0713 16.7672C40.0713 21.0059 43.1397 23.6584 47.0471 23.6584L60.2468 23.6584C63.2764 23.6584 66.6623 25.7244 68.2307 28.2525C69.2155 29.7427 69.6663 31.9449 69.6663 33.9163C69.6663 35.8878 68.9448 38.0449 67.9599 39.5351C66.3862 42.069 63.2892 43.6563 60.2431 43.7239L47.1825 43.6563C43.2697 43.6563 40.0713 46.8551 40.0713 51.088L40.0713 59.1953C40.0659 63.4339 43.2189 66.8972 47.1317 66.8972Z" fill="url(#paint2_linear_620_198)"/>
<path d="M71.7961 41.5155C70.9236 49.1056 66.3521 52.508 62.3215 53.5401C66.9944 53.1922 70.7024 51.183 73.9762 48.1711C77.6696 44.3441 80.1034 39.5208 79.9964 33.6122C79.8947 27.7384 77.5127 22.4676 73.7766 18.7914C69.4249 21.018 67.2064 26.631 67.2064 26.631C67.2064 26.631 72.9041 31.8727 71.7961 41.5155Z" fill="#0050B2"/>
<path d="M40.3762 13.4452L40.3762 16.8547C40.3762 21.0934 43.601 23.726 47.5084 23.726L60.6404 23.726C62.5727 23.726 64.6342 24.7394 66.1234 25.7528C66.1234 25.7528 73.7071 30.9333 73.1397 42.9825C72.8988 48.0967 69.9371 50.4109 66.7737 52.4926C74.2874 50.4657 80.1623 42.8317 79.9964 33.6122C79.7983 22.4386 71.3787 13.4452 61.016 13.4452L40.3762 13.4452Z" fill="url(#paint3_linear_620_198)"/>
<path d="M61.7912 14.8079C73.2986 16.497 79.1877 26.6986 79.1877 34.5357C79.2787 39.5687 76.7543 44.547 73.9762 48.1711C77.6535 44.3557 80.0984 39.4267 79.9967 33.5239C79.7987 22.3503 71.379 13.3569 61.0162 13.3569L40.3332 13.4567C40.3332 13.4567 50.2837 13.6594 61.7912 14.8079Z" fill="#FB885B"/>
<path d="M50.6603 34.9262C49.8793 35.7073 48.6129 35.7073 47.8319 34.9262C47.0508 34.1452 47.0508 32.8788 47.8319 32.0978C48.6129 31.3167 49.8793 31.3167 50.6603 32.0978C51.4414 32.8788 51.4414 34.1452 50.6603 34.9262Z" fill="#0085FF"/>
<path d="M58.6864 34.9262C57.9054 35.7073 56.6391 35.7073 55.858 34.9262C55.077 34.1452 55.077 32.8788 55.858 32.0978C56.6391 31.3167 57.9054 31.3167 58.6864 32.0978C59.4675 32.8788 59.4675 34.1452 58.6864 34.9262Z" fill="#0085FF"/>
<path d="M54.677 30.9095C53.896 31.6906 52.6297 31.6906 51.8487 30.9095C51.0677 30.1284 51.0677 28.862 51.8487 28.0809C52.6297 27.2998 53.896 27.2998 54.677 28.0809C55.458 28.862 55.458 30.1284 54.677 30.9095Z" fill="#0085FF"/>
<path d="M54.6771 38.9353C53.896 39.7164 52.6297 39.7164 51.8486 38.9353C51.0676 38.1543 51.0676 36.8879 51.8486 36.1069C52.6297 35.3258 53.896 35.3258 54.6771 36.1069C55.4581 36.8879 55.4581 38.1543 54.6771 38.9353Z" fill="#0085FF"/>
<path d="M25.5242 29.3095C25.5242 28.5863 26.1105 28 26.8338 28C27.557 28 28.1433 28.5863 28.1433 29.3095V37.1666C28.1433 37.8898 27.557 38.4761 26.8338 38.4761C26.1105 38.4761 25.5242 37.8898 25.5242 37.1666V29.3095Z" fill="#FB885B"/>
<path d="M30.7623 31.9285C31.4856 31.9285 32.0718 32.5148 32.0718 33.2381C32.0718 33.9613 31.4856 34.5476 30.7623 34.5476L22.9052 34.5476C22.182 34.5476 21.5957 33.9613 21.5957 33.2381C21.5957 32.5148 22.182 31.9285 22.9052 31.9285L30.7623 31.9285Z" fill="#FB885B"/>
<defs>
<linearGradient id="paint0_linear_620_198" x1="14.565" y1="45.0491" x2="47.0649" y2="13.934" gradientUnits="userSpaceOnUse">
<stop stop-color="#0069E8"/>
<stop offset="1" stop-color="#3C94FF"/>
</linearGradient>
<linearGradient id="paint1_linear_620_198" x1="2.97496" y1="9.09736" x2="47.2256" y2="38.4826" gradientUnits="userSpaceOnUse">
<stop stop-color="#0058C3"/>
<stop offset="1" stop-color="#00A3FF"/>
</linearGradient>
<linearGradient id="paint2_linear_620_198" x1="54.7324" y1="58.406" x2="87.2409" y2="27.0773" gradientUnits="userSpaceOnUse">
<stop stop-color="#0069E8"/>
<stop offset="1" stop-color="#3C94FF"/>
</linearGradient>
<linearGradient id="paint3_linear_620_198" x1="43.0659" y1="22.4543" x2="87.4287" y2="52.1084" gradientUnits="userSpaceOnUse">
<stop stop-color="#0058C3"/>
<stop offset="1" stop-color="#00A3FF"/>
</linearGradient>
</defs>
</svg>
