<svg width="20" height="20" viewBox="0 0 20 20" fill="none" xmlns="http://www.w3.org/2000/svg">
<g clip-path="url(#clip0_7928_20382)">
<path d="M9.9822 15.8819C14.3679 15.8819 17.9231 12.3266 17.9231 7.94094C17.9231 3.55528 14.3679 0 9.9822 0C5.59654 0 2.04126 3.55528 2.04126 7.94094C2.04126 12.3266 5.59654 15.8819 9.9822 15.8819Z" fill="#FFD15C"/>
<path d="M3.54918 12.5869L0.816895 17.3231L4.00587 17.1538L5.45469 20.0003L7.98225 15.6184C6.17123 15.1499 4.61611 14.0594 3.54918 12.5869Z" fill="white"/>
<path d="M16.431 12.5635C15.372 14.0399 13.8169 15.1343 12.0098 15.6107L14.5452 20.0005L15.994 17.154L19.183 17.3233L16.431 12.5635Z" fill="white"/>
<path d="M9.98222 13.6964C13.1611 13.6964 15.7381 11.1194 15.7381 7.94048C15.7381 4.76158 13.1611 2.18457 9.98222 2.18457C6.80333 2.18457 4.22632 4.76158 4.22632 7.94048C4.22632 11.1194 6.80333 13.6964 9.98222 13.6964Z" fill="#F8B64C"/>
<path d="M13.9271 7.31922C14.1043 7.14599 14.0058 6.84284 13.7617 6.80741L11.4901 6.4767C11.3917 6.46095 11.309 6.4019 11.2657 6.31135L10.2499 4.25229C10.1397 4.02788 9.8208 4.02788 9.71056 4.25229L8.69875 6.31135C8.65545 6.39796 8.56883 6.46095 8.47434 6.4767L6.20269 6.80741C5.9586 6.84284 5.86017 7.14599 6.03734 7.31922L7.67907 8.92158C7.74993 8.99245 7.78143 9.09087 7.76568 9.18536L7.37986 11.4452C7.33655 11.6893 7.59639 11.8783 7.81686 11.7602L9.84836 10.6932C9.93497 10.646 10.0413 10.646 10.1279 10.6932L12.1594 11.7602C12.3799 11.8743 12.6358 11.6893 12.5964 11.4452L12.2066 9.18536C12.1909 9.08694 12.2224 8.98851 12.2932 8.92158L13.9271 7.31922Z" fill="white"/>
</g>
<defs>
<clipPath id="clip0_7928_20382">
<rect width="20" height="20" fill="white"/>
</clipPath>
</defs>
</svg>
