<svg width="32" height="32" viewBox="0 0 32 32" fill="none" xmlns="http://www.w3.org/2000/svg">
<path d="M31.5 16C31.5 24.5604 24.5604 31.5 16 31.5C7.43959 31.5 0.5 24.5604 0.5 16C0.5 7.43959 7.43959 0.5 16 0.5C24.5604 0.5 31.5 7.43959 31.5 16Z" fill="white" stroke="#EBEFF3"/>
<path d="M22.953 11.395L24.25 10.2509V10H19.7576L16.5564 17.3541L12.9149 10H8.20534V10.2509L9.71955 11.9336C9.79183 11.9953 9.8476 12.0716 9.88247 12.1566C9.91734 12.2415 9.93034 12.3328 9.92045 12.4232V19.0368C9.94306 19.1545 9.93503 19.2755 9.89701 19.3898C9.859 19.5041 9.79209 19.6084 9.70182 19.6941L8 21.6018V21.85H12.8381V21.5991L11.1318 19.69C11.0406 19.6045 10.972 19.5007 10.9312 19.3867C10.8905 19.2727 10.8788 19.1516 10.8969 19.0327V13.3164L15.1426 21.8527H15.6375L19.2878 13.3164V20.1168C19.2878 20.2955 19.2878 20.3323 19.1608 20.4509L17.8475 21.6236V21.8745H24.2205V21.6236L22.9544 20.4795C22.8992 20.4416 22.8562 20.3904 22.8302 20.3315C22.8041 20.2726 22.796 20.2083 22.8067 20.1455V11.7291C22.7959 11.6663 22.8039 11.6019 22.8299 11.543C22.856 11.4841 22.8991 11.4329 22.9544 11.395H22.953Z" fill="#0E1D44"/>
</svg>
