<svg width="9" height="17" viewBox="0 0 9 17" fill="none" xmlns="http://www.w3.org/2000/svg">
<path d="M1.55334 0.50002C1.64108 0.499512 1.72806 0.516328 1.80928 0.549505C1.89051 0.582681 1.96438 0.631566 2.02668 0.693353L7.47334 6.14002C7.78377 6.44966 8.03005 6.81749 8.19809 7.22246C8.36614 7.62743 8.45264 8.06157 8.45264 8.50002C8.45264 8.93847 8.36614 9.37261 8.19809 9.77758C8.03005 10.1825 7.78377 10.5504 7.47334 10.86L2.02668 16.3067C1.96452 16.3688 1.89073 16.4182 1.80951 16.4518C1.7283 16.4854 1.64125 16.5027 1.55334 16.5027C1.46544 16.5027 1.37839 16.4854 1.29718 16.4518C1.21596 16.4182 1.14217 16.3688 1.08001 16.3067C1.01785 16.2445 0.968545 16.1707 0.934905 16.0895C0.901264 16.0083 0.88395 15.9213 0.88395 15.8334C0.88395 15.7454 0.901264 15.6584 0.934904 15.5772C0.968545 15.496 1.01785 15.4222 1.08001 15.36L6.52668 9.91335C6.90121 9.53835 7.11158 9.03002 7.11158 8.50002C7.11158 7.97002 6.90121 7.46169 6.52668 7.08669L1.08001 1.64002C1.01752 1.57804 0.967928 1.50431 0.934082 1.42307C0.900236 1.34183 0.882811 1.25469 0.882811 1.16669C0.882811 1.07868 0.900236 0.991541 0.934082 0.910302C0.967928 0.829062 1.01752 0.755329 1.08001 0.693353C1.1423 0.631566 1.21618 0.582681 1.2974 0.549505C1.37863 0.516328 1.46561 0.499512 1.55334 0.50002Z" fill="#5F8FBF"/>
</svg>
