<svg width="19" height="17" viewBox="0 0 19 17" fill="none" xmlns="http://www.w3.org/2000/svg">
<path d="M13.7373 5.6506C13.5656 5.55925 13.3739 5.5115 13.1792 5.5115C12.9846 5.5115 12.7929 5.55925 12.6212 5.6506L10.0167 7.18065L8.24945 8.1543L5.69155 9.68435C5.5198 9.77565 5.3281 9.82345 5.13345 9.82345C4.9388 9.82345 4.7471 9.77565 4.57535 9.68435L2.57554 8.47885C2.40566 8.3789 2.26484 8.23655 2.16697 8.0658C2.0691 7.89505 2.01757 7.70185 2.01745 7.5052V5.18695C2.01893 4.99055 2.07104 4.79785 2.16878 4.62735C2.26651 4.45685 2.40658 4.31425 2.57554 4.2133L4.57535 3.05415C4.7471 2.96283 4.9388 2.91506 5.13345 2.91506C5.3281 2.91506 5.5198 2.96283 5.69155 3.05415L7.69135 4.25965C7.86125 4.3596 8.00205 4.50195 8.09995 4.6727C8.1978 4.84345 8.24935 5.03665 8.24945 5.2333V6.76335L10.0167 5.7433V4.1669C10.0153 3.97054 9.96315 3.77783 9.8654 3.60732C9.76765 3.43681 9.6276 3.29422 9.45865 3.19325L5.73805 1.0141C5.5663 0.92277 5.3746 0.875 5.17995 0.875C4.9853 0.875 4.79365 0.92277 4.62185 1.0141L0.808261 3.23961C0.637406 3.32649 0.494486 3.45951 0.395811 3.62347C0.297131 3.78743 0.246666 3.97574 0.250171 4.1669V8.5252C0.251651 8.7216 0.303761 8.9143 0.401491 9.0848C0.499226 9.25535 0.639301 9.3979 0.808261 9.4989L4.57535 11.6781C4.7471 11.7694 4.9388 11.8172 5.13345 11.8172C5.3281 11.8172 5.5198 11.7694 5.69155 11.6781L8.24945 10.1944L10.0167 9.17435L12.5747 7.69065C12.7464 7.59935 12.9381 7.55155 13.1327 7.55155C13.3274 7.55155 13.5191 7.59935 13.6908 7.69065L15.6906 8.8498C15.8605 8.9497 16.0014 9.0921 16.0992 9.2628C16.1971 9.43355 16.2486 9.6268 16.2487 9.82345V12.1417C16.2473 12.338 16.1952 12.5308 16.0974 12.7013C15.9997 12.8718 15.8596 13.0144 15.6906 13.1153L13.7373 14.2745C13.5656 14.3658 13.3739 14.4136 13.1792 14.4136C12.9846 14.4136 12.7929 14.3658 12.6212 14.2745L10.6213 13.1153C10.4515 13.0154 10.3106 12.873 10.2128 12.7023C10.1149 12.5316 10.0634 12.3383 10.0633 12.1417V10.658L8.29595 11.6781V13.2081C8.29745 13.4045 8.34955 13.5971 8.44725 13.7677C8.545 13.9382 8.6851 14.0808 8.85405 14.1818L12.6212 16.3609C12.7929 16.4523 12.9846 16.5 13.1792 16.5C13.3739 16.5 13.5656 16.4523 13.7373 16.3609L17.5044 14.1818C17.6743 14.0818 17.8151 13.9394 17.913 13.7687C18.0109 13.5979 18.0624 13.4047 18.0625 13.2081V8.8034C18.061 8.60705 18.0089 8.41435 17.9112 8.2438C17.8134 8.0733 17.6733 7.9307 17.5044 7.82975L13.7373 5.6506Z" fill="#AA83EB"/>
</svg>
