<svg width="16" height="18" viewBox="0 0 16 18" fill="none" xmlns="http://www.w3.org/2000/svg">
<path d="M1.07239 4.5H2.55923H14.454" stroke="#98B7D7" stroke-width="1.5" stroke-linecap="round" stroke-linejoin="round"/>
<path d="M4.78953 4.49976V2.99976C4.78953 2.60193 4.94618 2.2204 5.22501 1.9391C5.50385 1.65779 5.88204 1.49976 6.27637 1.49976H9.25005C9.64439 1.49976 10.0226 1.65779 10.3014 1.9391C10.5802 2.2204 10.7369 2.60193 10.7369 2.99976V4.49976M12.9672 4.49976V14.9998C12.9672 15.3976 12.8105 15.7791 12.5317 16.0604C12.2528 16.3417 11.8747 16.4998 11.4803 16.4998H4.04611C3.65177 16.4998 3.27359 16.3417 2.99475 16.0604C2.71591 15.7791 2.55927 15.3976 2.55927 14.9998V4.49976H12.9672Z" stroke="#98B7D7" stroke-width="1.5" stroke-linecap="round" stroke-linejoin="round"/>
<path d="M6.27631 8.24976V12.7498" stroke="#98B7D7" stroke-width="1.5" stroke-linecap="round" stroke-linejoin="round"/>
<path d="M9.25006 8.24976V12.7498" stroke="#98B7D7" stroke-width="1.5" stroke-linecap="round" stroke-linejoin="round"/>
</svg>
