<svg width="24" height="24" viewBox="0 0 24 24" fill="none" xmlns="http://www.w3.org/2000/svg">
<path d="M12 24C18.6274 24 24 18.6274 24 12C24 5.37258 18.6274 0 12 0C5.37258 0 0 5.37258 0 12C0 18.6274 5.37258 24 12 24Z" fill="#FF4500"/>
<path d="M18.3158 12.0853C18.3052 11.8186 18.218 11.5607 18.0644 11.3424C17.9109 11.1241 17.6976 10.9548 17.4502 10.8548C17.2028 10.7547 16.9318 10.7282 16.6697 10.7785C16.4076 10.8287 16.1655 10.9535 15.9726 11.1379C14.8928 10.4017 13.6224 9.99523 12.3158 9.96789L12.9316 7.00894L14.9653 7.43684C14.9894 7.66071 15.0926 7.86865 15.2561 8.02339C15.4197 8.17812 15.6331 8.26952 15.858 8.28121C16.0828 8.29291 16.3045 8.22412 16.4833 8.08719C16.662 7.95025 16.7861 7.75413 16.8334 7.53397C16.8807 7.31381 16.848 7.08402 16.7412 6.88578C16.6344 6.68755 16.4605 6.53384 16.2506 6.4522C16.0407 6.37057 15.8087 6.36635 15.596 6.44031C15.3833 6.51427 15.2039 6.66156 15.09 6.85579L12.7658 6.39158C12.728 6.38321 12.689 6.38237 12.6509 6.38912C12.6129 6.39587 12.5765 6.41006 12.544 6.43089C12.5114 6.45173 12.4833 6.47878 12.4612 6.51051C12.4391 6.54224 12.4235 6.57801 12.4153 6.61579L11.7158 9.91105C10.3955 9.93267 9.11007 10.3381 8.01631 11.0779C7.7464 10.8404 7.39474 10.7173 7.03566 10.7344C6.67659 10.7515 6.33825 10.9076 6.09218 11.1697C5.84611 11.4318 5.7116 11.7792 5.71708 12.1387C5.72257 12.4981 5.86762 12.8414 6.12157 13.0958C6.23048 13.1998 6.35655 13.2842 6.4942 13.3453C6.48473 13.4846 6.48473 13.6244 6.4942 13.7637C6.4942 15.8874 8.96841 17.6147 12.0205 17.6147C15.0726 17.6147 17.5468 15.8889 17.5468 13.7637C17.5563 13.6244 17.5563 13.4846 17.5468 13.3453C17.7809 13.2293 17.9774 13.0494 18.1134 12.8264C18.2495 12.6034 18.3197 12.3465 18.3158 12.0853ZM8.83262 13.0326C8.83262 12.8453 8.88818 12.6621 8.99228 12.5063C9.09638 12.3505 9.24434 12.2291 9.41745 12.1574C9.59056 12.0857 9.78104 12.0669 9.96481 12.1035C10.1486 12.14 10.3174 12.2302 10.4499 12.3627C10.5824 12.4952 10.6726 12.664 10.7092 12.8478C10.7457 13.0316 10.7269 13.2221 10.6552 13.3952C10.5835 13.5683 10.4621 13.7162 10.3063 13.8203C10.1505 13.9244 9.96736 13.98 9.77999 13.98C9.529 13.98 9.28828 13.8804 9.11066 13.7031C8.93304 13.5258 8.83304 13.2852 8.83262 13.0342V13.0326ZM14.3416 15.6426C13.6689 16.1495 12.8415 16.4078 12 16.3737C11.1579 16.4083 10.3298 16.1499 9.65683 15.6426C9.61445 15.5938 9.59212 15.5308 9.59432 15.4662C9.59652 15.4016 9.6231 15.3402 9.6687 15.2944C9.7143 15.2486 9.77555 15.2218 9.84013 15.2193C9.90472 15.2168 9.96785 15.2389 10.0168 15.281C10.5874 15.6993 11.2838 15.9099 11.9905 15.8779C12.697 15.9154 13.3952 15.7116 13.9705 15.3C14.0209 15.2512 14.0883 15.2239 14.1584 15.2239C14.2285 15.2239 14.2959 15.2512 14.3463 15.3C14.3712 15.3212 14.3911 15.3477 14.4046 15.3775C14.4181 15.4073 14.4249 15.4397 14.4244 15.4724C14.4239 15.5051 14.4163 15.5374 14.402 15.5668C14.3877 15.5962 14.367 15.6221 14.3416 15.6426ZM13.2221 13.0674C13.2221 12.8161 13.3219 12.5751 13.4996 12.3975C13.6772 12.2198 13.9182 12.12 14.1695 12.12C14.4207 12.12 14.6617 12.2198 14.8394 12.3975C15.017 12.5751 15.1168 12.8161 15.1168 13.0674C15.1421 13.5916 14.8421 14.0526 14.2105 14.0526C14.0794 14.0584 13.9486 14.0369 13.8263 13.9895C13.7039 13.9421 13.5928 13.8698 13.4998 13.7771C13.4069 13.6845 13.3343 13.5736 13.2864 13.4514C13.2386 13.3292 13.2167 13.1985 13.2221 13.0674Z" fill="white"/>
</svg>
