<svg width="12" height="12" viewBox="0 0 12 12" fill="none" xmlns="http://www.w3.org/2000/svg">
<g clip-path="url(#clip0_144_16837)">
<path d="M5.99994 1.00016C7.33959 1.00457 8.62181 1.54467 9.56083 2.50012H7.99987C7.72374 2.50012 7.49989 2.72396 7.49989 3.00009C7.49989 3.27623 7.72374 3.50007 7.99987 3.50007H10.0713C10.584 3.49979 10.9995 3.08425 10.9998 2.5716V0.500164C10.9998 0.224032 10.7759 0.000187194 10.4998 0.000187194C10.2237 0.000187194 9.99982 0.224032 9.99982 0.500164V1.53914C7.54147 -0.674862 3.75378 -0.476774 1.53978 1.98158C0.673349 2.94366 0.141921 4.16056 0.0251353 5.45001C-0.000551404 5.72689 0.203091 5.97216 0.479973 5.99784C0.494972 5.99923 0.510042 5.99995 0.525135 6C0.778557 6.00323 0.992793 5.81304 1.01963 5.56101C1.25029 2.98146 3.41011 1.00356 5.99994 1.00016Z" fill="black"/>
<path d="M11.4752 6.00004C11.2217 5.99681 11.0075 6.187 10.9807 6.43904C10.7421 9.18615 8.32167 11.2197 5.57453 10.9811C4.38593 10.8779 3.2736 10.3524 2.43895 9.49992H3.99991C4.27604 9.49992 4.49988 9.27608 4.49988 8.99995C4.49988 8.72382 4.27604 8.49997 3.99991 8.49997H1.92847C1.41596 8.49969 1.00028 8.91494 1 9.42743C1 9.42776 1 9.42809 1 9.42844V11.4999C1 11.776 1.22384 11.9999 1.49998 11.9999C1.77611 11.9999 1.99995 11.776 1.99995 11.4999V10.4609C4.45831 12.6749 8.24597 12.4768 10.46 10.0185C11.3264 9.05638 11.8579 7.83948 11.9746 6.55001C12.0003 6.27313 11.7967 6.02786 11.5198 6.00217C11.505 6.00081 11.4901 6.00009 11.4752 6.00004Z" fill="black"/>
</g>
<defs>
<clipPath id="clip0_144_16837">
<rect width="12" height="12" fill="white"/>
</clipPath>
</defs>
</svg>
