<svg width="86" height="86" viewBox="0 0 86 86" fill="none" xmlns="http://www.w3.org/2000/svg">
<path d="M38.5983 81.4612C17.3906 81.4612 0.136719 64.2073 0.136719 42.9996C0.136719 21.7919 17.3906 4.53809 38.5983 4.53809C44.2554 4.53809 49.705 5.73847 54.7958 8.10597C55.7588 8.55386 56.1765 9.69751 55.7286 10.6606C55.2808 11.6235 54.1373 12.0415 53.174 11.5935C48.595 9.46386 43.6909 8.38424 38.5983 8.38424C19.5113 8.38424 3.98287 23.9127 3.98287 42.9996C3.98287 62.0865 19.5113 77.615 38.5983 77.615C57.6852 77.615 73.2136 62.0865 73.2136 42.9996C73.2136 37.199 71.7517 31.4623 68.9863 26.4094C68.4765 25.4777 68.8185 24.309 69.7502 23.7992C70.6813 23.2892 71.8502 23.6312 72.3604 24.5629C75.4348 30.1802 77.06 36.5556 77.06 42.9996C77.0598 64.2073 59.8061 81.4612 38.5983 81.4612Z" fill="#2B4986"/>
<path d="M38.5984 73.7695C37.5363 73.7695 36.6753 72.9083 36.6753 71.8464C36.6753 70.7845 37.5363 69.9233 38.5984 69.9233C53.4438 69.9233 65.5214 57.8456 65.5214 43.0003C65.5214 39.1705 64.7343 35.4722 63.1818 32.0078C62.7476 31.0385 63.1813 29.9006 64.1503 29.4664C65.1201 29.0322 66.2574 29.4658 66.6918 30.4349C68.4672 34.3972 69.3676 38.6247 69.3676 43.0001C69.3676 59.9666 55.5645 73.7695 38.5984 73.7695Z" fill="#2B4986"/>
<path d="M21.2874 67.9999C20.8853 67.9999 20.4799 67.8743 20.1337 67.6141C16.397 64.8066 13.3012 61.1287 11.1808 56.9778C8.95679 52.6243 7.8291 47.9212 7.8291 42.9997C7.8291 26.0335 21.6322 12.2305 38.5983 12.2305C47.0891 12.2305 54.9962 15.6149 60.8624 21.7603C61.5956 22.5285 61.5674 23.7459 60.7993 24.4791C60.0312 25.2124 58.8139 25.1843 58.0803 24.4159C52.947 19.0382 46.0279 16.0766 38.5983 16.0766C23.7529 16.0766 11.6753 28.1543 11.6753 42.9997C11.6753 51.5466 15.6003 59.3976 22.4439 64.5391C23.2931 65.177 23.4643 66.3826 22.8262 67.2318C22.4485 67.7347 21.8714 67.9997 21.2874 67.9999Z" fill="#2B4986"/>
<path d="M16.483 0.692383C18.0772 0.692383 19.3676 1.98469 19.3676 3.577C19.3676 5.16931 18.0772 6.46161 16.483 6.46161C14.8907 6.46161 13.5984 5.16931 13.5984 3.577C13.5984 1.98469 14.8909 0.692383 16.483 0.692383Z" fill="#193772"/>
<path d="M4.94443 79.5381C6.53866 79.5381 7.82905 80.8304 7.82905 82.4227C7.82905 84.015 6.53866 85.3073 4.94443 85.3073C3.35212 85.3073 2.05981 84.015 2.05981 82.4227C2.05981 80.8304 3.35231 79.5381 4.94443 79.5381Z" fill="#193772"/>
<path d="M77.0598 71.8467C79.1848 71.8467 80.9059 73.5678 80.9059 75.6928C80.9059 77.8178 79.1848 79.539 77.0598 79.539C74.9367 79.539 73.2136 77.8178 73.2136 75.6928C73.2136 73.5678 74.9367 71.8467 77.0598 71.8467Z" fill="#193772"/>
<path d="M84.4541 4.90571C86.3331 6.78263 86.3331 9.82686 84.4541 11.7038L70.6735 25.4865L64.9369 31.2211L48.4194 47.7384L41.6216 54.5384L34.8216 47.7384L24.6235 37.5403C23.685 36.6019 23.2139 35.3711 23.2139 34.1422C23.2139 32.9115 23.685 31.6807 24.6235 30.7422C26.5004 28.8634 29.5446 28.8634 31.4216 30.7422L41.6216 40.9403L77.656 4.90571C78.5944 3.96532 79.8252 3.49609 81.0541 3.49609C82.2848 3.49609 83.5156 3.96532 84.4541 4.90571Z" fill="#08AC85"/>
</svg>
