<svg width="24" height="24" viewBox="0 0 24 24" fill="none" xmlns="http://www.w3.org/2000/svg">
<path d="M14.9565 11.0158H9.83652C9.39505 11.0158 9.03711 10.6579 9.03711 10.2164C9.03711 9.77493 9.39505 9.41699 9.83652 9.41699H14.9565C15.398 9.41699 15.7559 9.77493 15.7559 10.2164C15.7559 10.6579 15.398 11.0158 14.9565 11.0158Z" fill="#939598"/>
<path d="M15.2359 9.46777C15.2684 9.55487 15.2871 9.64871 15.2871 9.74724C15.2871 10.1887 14.9292 10.5466 14.4877 10.5466H9.36773C9.26929 10.5466 9.17535 10.528 9.08826 10.4955C9.20169 10.7989 9.49344 11.0154 9.83648 11.0154H14.9564C15.3979 11.0154 15.7558 10.6575 15.7558 10.216C15.7558 9.87296 15.5394 9.58121 15.2359 9.46777Z" fill="#808285"/>
<path d="M18.0215 1.8623H6.77148V7.00496C6.77148 7.33721 6.94727 7.64462 7.23367 7.81299L9.95898 9.41612H14.834L17.5593 7.81299C17.8456 7.64452 18.0215 7.33712 18.0215 7.00496V1.8623Z" fill="#A54AF4"/>
<path d="M7.33398 6.38724C7.23048 6.38724 7.14648 6.30324 7.14648 6.19974V3.19974C7.14648 3.09624 7.23048 3.01224 7.33398 3.01224C7.43748 3.01224 7.52148 3.09624 7.52148 3.19974V6.19974C7.52148 6.30334 7.43748 6.38724 7.33398 6.38724ZM7.33398 2.63724C7.23048 2.63724 7.14648 2.55324 7.14648 2.44974V2.4248C7.14648 2.3213 7.23048 2.2373 7.33398 2.2373C7.43748 2.2373 7.52148 2.3213 7.52148 2.4248V2.44974C7.52148 2.55334 7.43748 2.63724 7.33398 2.63724Z" fill="#B171F4"/>
<path d="M17.0841 1.8623V6.06746C17.0841 6.39971 16.9083 6.70712 16.6219 6.87549L13.8966 8.47862H9.02158L6.78687 7.16405C6.83327 7.43293 6.99396 7.6719 7.23377 7.81299L9.95908 9.41612H14.8341L17.5594 7.81299C17.8457 7.64452 18.0216 7.33712 18.0216 7.00496V1.8623H17.0841Z" fill="#893ADD"/>
<path d="M17.5528 1.8623V6.53621C17.5528 6.86846 17.377 7.17587 17.0906 7.34424L14.3653 8.94737H9.49033L6.86121 7.40087C6.94014 7.5699 7.06755 7.71521 7.23367 7.81299L9.95899 9.41612H14.834L17.5593 7.81299C17.8456 7.64452 18.0215 7.33712 18.0215 7.00496V1.8623H17.5528Z" fill="#6C2BC1"/>
<path d="M18.6199 1.86276H6.17308C5.83052 1.86276 5.55273 1.58507 5.55273 1.24241C5.55273 0.899852 5.83042 0.62207 6.17308 0.62207H18.6199C18.9625 0.62207 19.2402 0.899758 19.2402 1.24241C19.2402 1.58507 18.9625 1.86276 18.6199 1.86276Z" fill="#939598"/>
<path d="M18.9544 0.720703C19.0163 0.817266 19.0528 0.931828 19.0528 1.05511C19.0528 1.39767 18.7751 1.67545 18.4325 1.67545H5.98565C5.86237 1.67545 5.74781 1.63908 5.65125 1.57702C5.76159 1.74877 5.95387 1.86295 6.17315 1.86295H18.6201C18.9626 1.86295 19.2404 1.58527 19.2404 1.24261C19.2403 1.02333 19.1262 0.831047 18.9544 0.720703Z" fill="#808285"/>
<path d="M10.5215 1.8623H14.2715V9.41612H10.5215V1.8623Z" fill="#F1F2F2"/>
<path d="M10.5215 8.94824H14.2715V9.41699H10.5215V8.94824Z" fill="#E6E7E8"/>
<path d="M18.0215 19.7342V14.3216C18.0215 13.9866 17.8428 13.6771 17.5527 13.5097L12.8652 10.8033C12.5752 10.6359 12.2178 10.6359 11.9277 10.8033L7.24023 13.5097C6.95017 13.6771 6.77148 13.9867 6.77148 14.3216V19.7342C6.77148 20.0692 6.95017 20.3787 7.24023 20.5461L11.9277 23.2525C12.2178 23.4199 12.5752 23.4199 12.8652 23.2525L17.5527 20.5461C17.8428 20.3787 18.0215 20.0692 18.0215 19.7342Z" fill="#FFC91D"/>
<path d="M17.5527 13.5104L17.4639 13.459C17.5205 13.5809 17.5527 13.7145 17.5527 13.8535V19.2661C17.5527 19.6011 17.374 19.9106 17.084 20.078L12.3965 22.7843C12.1064 22.9517 11.749 22.9517 11.459 22.7843L6.86035 20.1293C6.94032 20.3012 7.07044 20.4487 7.24023 20.5467L11.9277 23.253C12.2178 23.4204 12.5752 23.4204 12.8652 23.253L17.5527 20.5467C17.8428 20.3792 18.0215 20.0697 18.0215 19.7348V14.3221C18.0215 13.9873 17.8428 13.6778 17.5527 13.5104Z" fill="#FFA91A"/>
<path d="M16.7235 18.9848V15.0711C16.7235 14.7361 16.5448 14.4266 16.2547 14.2592L12.8653 12.3023C12.5752 12.1349 12.2178 12.1349 11.9278 12.3023L8.53833 14.2592C8.24827 14.4266 8.06958 14.7362 8.06958 15.0711V18.9848C8.06958 19.3198 8.24827 19.6293 8.53833 19.7967L11.9278 21.7536C12.2178 21.921 12.5752 21.921 12.8653 21.7536L16.2547 19.7967C16.5448 19.6293 16.7235 19.3198 16.7235 18.9848Z" fill="#F79219"/>
<path d="M16.2547 14.2594L16.1658 14.208C16.2224 14.3299 16.2547 14.4636 16.2547 14.6025V18.5163C16.2547 18.8513 16.076 19.1607 15.7859 19.3282L12.3965 21.285C12.1064 21.4524 11.7491 21.4524 11.459 21.285L8.15845 19.3794C8.23842 19.5514 8.36854 19.6989 8.53832 19.7968L11.9278 21.7537C12.2178 21.9211 12.5752 21.9211 12.8653 21.7537L16.2547 19.7968C16.5448 19.6294 16.7234 19.3198 16.7234 18.9849V15.0712C16.7234 14.7363 16.5448 14.4268 16.2547 14.2594Z" fill="#EF7816"/>
<path d="M12.5748 14.4733L13.1456 16.2298H14.9926C15.1741 16.2298 15.2497 16.4622 15.1028 16.569L13.6086 17.6546L14.1794 19.4111C14.2355 19.5839 14.0378 19.7276 13.8908 19.6208L12.3966 18.5351L10.9024 19.6208C10.7555 19.7276 10.5578 19.5839 10.6139 19.4111L11.1846 17.6546L9.69043 16.569C9.54352 16.4622 9.61899 16.2298 9.80068 16.2298H11.6476L12.2183 14.4733C12.2743 14.3006 12.5187 14.3006 12.5748 14.4733Z" fill="white"/>
<path d="M4.5189 17.3873L4.57872 17.6659C4.64162 17.9587 4.87028 18.1873 5.16306 18.2502L5.44168 18.31C5.5089 18.3245 5.5089 18.4203 5.44168 18.4347L5.16306 18.4945C4.87028 18.5574 4.64162 18.7861 4.57872 19.0789L4.5189 19.3575C4.50447 19.4247 4.40865 19.4247 4.39422 19.3575L4.3344 19.0789C4.2715 18.7861 4.04284 18.5574 3.75006 18.4945L3.47143 18.4347C3.40422 18.4203 3.40422 18.3245 3.47143 18.31L3.75006 18.2502C4.04284 18.1873 4.2715 17.9587 4.3344 17.6659L4.39422 17.3873C4.40865 17.3201 4.50447 17.3201 4.5189 17.3873Z" fill="#FFC91D"/>
<path d="M5.71637 20.2262L5.80403 20.6345C5.89618 21.0635 6.23124 21.3985 6.66024 21.4907L7.06853 21.5783C7.16696 21.5994 7.16696 21.74 7.06853 21.761L6.66024 21.8487C6.23124 21.9409 5.89618 22.2759 5.80403 22.7049L5.71637 23.1132C5.69528 23.2116 5.55474 23.2116 5.53365 23.1132L5.44599 22.7049C5.35384 22.2759 5.01878 21.9409 4.58978 21.8487L4.18149 21.761C4.08306 21.74 4.08306 21.5994 4.18149 21.5783L4.58978 21.4907C5.01878 21.3985 5.35384 21.0635 5.44599 20.6345L5.53365 20.2262C5.55474 20.1277 5.69528 20.1277 5.71637 20.2262Z" fill="#FFC91D"/>
<path d="M19.3421 11.2905L19.4182 11.6447C19.4981 12.0168 19.7888 12.3075 20.1609 12.3874L20.5151 12.4635C20.6005 12.4818 20.6005 12.6036 20.5151 12.622L20.1609 12.698C19.7888 12.7779 19.4981 13.0686 19.4182 13.4407L19.3421 13.7949C19.3238 13.8803 19.202 13.8803 19.1836 13.7949L19.1076 13.4407C19.0277 13.0686 18.737 12.778 18.3649 12.698L18.0107 12.622C17.9253 12.6036 17.9253 12.4818 18.0107 12.4635L18.3649 12.3874C18.737 12.3075 19.0276 12.0168 19.1076 11.6447L19.1836 11.2905C19.202 11.2052 19.3238 11.2052 19.3421 11.2905Z" fill="#FFC91D"/>
</svg>
