<svg width="18" height="33" viewBox="0 0 18 33" fill="none" xmlns="http://www.w3.org/2000/svg">
<path d="M13.2245 22.5879C13.04 22.8816 12.7891 23.1148 12.4976 23.2633C12.2061 23.4119 11.8846 23.4704 11.5662 23.4328C10.0445 23.4055 8.52251 23.4055 7.00021 23.4328C6.68564 23.4628 6.36964 23.3981 6.08474 23.2454C5.79984 23.0927 5.55634 22.8574 5.37935 22.5639C5.02312 22.8459 4.68025 23.1198 4.3356 23.3968C3.99094 23.6738 3.66231 23.9528 3.31766 24.2168C3.1646 24.3541 2.98193 24.4434 2.78817 24.4758C2.59442 24.5082 2.39648 24.4825 2.21444 24.4013C2.03239 24.32 1.87274 24.1862 1.75165 24.0133C1.63055 23.8404 1.55231 23.6346 1.52493 23.4168C1.27111 22.0419 1.01646 20.667 0.776001 19.289C0.734589 19.0547 0.742731 18.8128 0.799809 18.5827C0.856887 18.3525 0.961268 18.1407 1.10459 17.9641C1.73244 17.1412 2.37098 16.3282 2.99973 15.5063C3.0667 15.4232 3.1077 15.3179 3.11643 15.2063C3.12801 14.0803 3.09506 12.9534 3.13959 11.8304C3.20704 10.4648 3.47794 9.12162 3.94108 7.85665C4.86788 5.30457 6.3153 3.0324 8.16687 1.22299C8.32587 1.04129 8.5167 0.898557 8.72728 0.803777C8.93787 0.708997 9.16362 0.664235 9.39038 0.672315C9.61714 0.680394 9.83997 0.74113 10.0448 0.850711C10.2496 0.960292 10.4319 1.11633 10.5804 1.30898C12.8617 3.57167 14.4809 6.5556 15.2256 9.86954C15.4929 11.2276 15.604 12.6185 15.556 14.0083C15.5453 14.4083 15.5106 14.8083 15.5026 15.2083C15.507 15.3087 15.5415 15.4046 15.6006 15.4803C16.142 16.1902 16.6639 16.9222 17.2445 17.5921C17.507 17.8728 17.6956 18.229 17.7899 18.622C17.8841 19.0149 17.8803 19.4294 17.7789 19.82C17.5295 21.014 17.3194 22.2199 17.0931 23.4198C17.0702 23.6431 16.9932 23.855 16.8706 24.0327C16.748 24.2103 16.5844 24.3469 16.3976 24.4275C16.2108 24.5082 16.0078 24.5299 15.8108 24.4903C15.6138 24.4507 15.4302 24.3512 15.2799 24.2028C14.6173 23.6848 13.9663 23.1499 13.31 22.6239C13.2826 22.6087 13.254 22.5967 13.2245 22.5879ZM9.30591 18.7931C10.6266 18.7931 11.9474 18.7841 13.2673 18.8011C13.3167 18.8104 13.3674 18.8085 13.4161 18.7953C13.4649 18.7822 13.5108 18.7582 13.5512 18.7247C13.5915 18.6912 13.6254 18.6489 13.6508 18.6003C13.6762 18.5517 13.6927 18.4979 13.6992 18.4421C14.0039 17.2954 14.2012 16.116 14.2879 14.9233C14.4166 13.3071 14.322 11.6783 14.0073 10.0945C13.3117 7.05107 11.7983 4.3219 9.67287 2.27794C9.38789 1.98596 9.22758 1.98996 8.93547 2.27794C7.95811 3.25282 7.09692 4.36529 6.37326 5.58777C5.33246 7.28323 4.65741 9.22742 4.40153 11.2665C4.25739 12.489 4.23138 13.7255 4.32402 14.9543C4.41092 16.1682 4.62007 17.3671 4.94743 18.5281C4.95356 18.5711 4.9673 18.6123 4.98782 18.6493C5.00834 18.6863 5.03522 18.7183 5.06691 18.7435C5.09861 18.7687 5.13446 18.7864 5.17236 18.7958C5.21027 18.8052 5.24948 18.806 5.28765 18.7981C6.62886 18.7891 7.96916 18.7931 9.31037 18.7931H9.30591ZM5.47643 20.148C5.82643 20.77 6.13193 21.3479 6.4748 21.8979C6.53058 21.9598 6.59681 22.0085 6.66961 22.0411C6.74242 22.0737 6.82035 22.0896 6.89873 22.0879C8.50711 22.1012 10.1155 22.1012 11.7239 22.0879C11.8648 22.0958 12.0028 22.0408 12.1077 21.9349C12.4586 21.3669 12.7783 20.777 13.1354 20.147L5.47643 20.148ZM4.73284 21.4029C4.08882 20.0641 3.62282 18.6266 3.34973 17.1362C3.07028 17.5368 2.77056 17.9191 2.45203 18.2811C2.2577 18.4595 2.11778 18.7015 2.0517 18.9734C1.98561 19.2453 1.99664 19.5335 2.08333 19.798C2.33002 20.854 2.493 21.9339 2.69783 23.0439L4.73284 21.4029ZM15.9131 23.0419C16.1536 21.7599 16.3914 20.523 16.6123 19.283C16.6447 19.1214 16.6201 18.9519 16.5437 18.8101C16.142 18.2511 15.7119 17.7161 15.2853 17.1632C15.0929 17.8991 14.9371 18.6211 14.7135 19.3161C14.49 20.011 14.1908 20.706 13.912 21.4309L15.9131 23.0419Z" fill="#98B7D7"/>
<path d="M8.67273 28.7326C8.67273 27.6866 8.67273 26.6407 8.67273 25.5947C8.66455 25.4932 8.67493 25.3909 8.70328 25.2941C8.73163 25.1973 8.77736 25.108 8.83759 25.0317C8.89783 24.9555 8.97133 24.8939 9.05355 24.8507C9.13578 24.8076 9.22498 24.7838 9.31572 24.7808C9.49723 24.7979 9.66566 24.8937 9.78536 25.0478C9.90505 25.202 9.96663 25.4025 9.95696 25.6067C9.93826 27.6866 9.94983 29.7675 9.94805 31.8474C9.94805 32.4253 9.76992 32.6743 9.32463 32.6713C9.23123 32.6691 9.13926 32.6452 9.05448 32.6011C8.96969 32.5571 8.89391 32.4938 8.83194 32.4153C8.76997 32.3368 8.72315 32.2448 8.69437 32.145C8.66559 32.0452 8.65546 31.9398 8.66469 31.8354C8.68962 30.8014 8.67273 29.7665 8.67273 28.7326Z" fill="#98B7D7"/>
<path d="M11.2411 27.1917C11.2411 26.6347 11.2367 26.0777 11.2411 25.5218C11.2398 25.4255 11.2555 25.3299 11.2872 25.2405C11.3188 25.151 11.3659 25.0695 11.4258 25.0006C11.4856 24.9317 11.557 24.8767 11.6358 24.8388C11.7146 24.8009 11.7993 24.7808 11.885 24.7798C12.0533 24.7877 12.2125 24.8676 12.3299 25.0032C12.4473 25.1388 12.5141 25.3197 12.5164 25.5088C12.5224 26.622 12.5224 27.7353 12.5164 28.8486C12.5248 28.9465 12.5137 29.0454 12.4839 29.138C12.4541 29.2305 12.4064 29.3145 12.3442 29.3839C12.282 29.4532 12.2069 29.5062 12.1242 29.539C12.0416 29.5718 11.9535 29.5836 11.8663 29.5735C11.7805 29.5753 11.6953 29.5568 11.6162 29.5193C11.5372 29.4818 11.466 29.4261 11.4072 29.3558C11.3485 29.2855 11.3036 29.2022 11.2753 29.1112C11.2469 29.0202 11.2359 28.9236 11.2429 28.8276C11.2376 28.2826 11.2411 27.7396 11.2411 27.1917Z" fill="#98B7D7"/>
<path d="M7.3769 27.1847C7.3769 27.7296 7.3769 28.2756 7.3769 28.8206C7.38381 28.9195 7.37188 29.0189 7.34195 29.1123C7.31202 29.2057 7.26477 29.2909 7.20329 29.3622C7.1418 29.4335 7.06752 29.4893 6.98537 29.5259C6.90322 29.5625 6.81509 29.5791 6.7268 29.5745C6.64072 29.5748 6.55549 29.5551 6.47654 29.5166C6.39759 29.4781 6.32659 29.4216 6.26803 29.3508C6.20946 29.28 6.16461 29.1963 6.13627 29.105C6.10792 29.0138 6.09674 28.9169 6.10338 28.8206C6.09982 27.7299 6.09982 26.6393 6.10338 25.5487C6.10077 25.4496 6.11576 25.3508 6.14752 25.2582C6.17928 25.1656 6.22717 25.0811 6.28836 25.0095C6.34954 24.9379 6.42279 24.8807 6.50388 24.8413C6.58496 24.8018 6.67225 24.7809 6.76061 24.7798C6.93411 24.7894 7.09719 24.8758 7.21405 25.0201C7.3309 25.1644 7.39201 25.3549 7.38402 25.5497C7.37957 26.0937 7.3769 26.6377 7.3769 27.1847Z" fill="#98B7D7"/>
<path d="M9.05606 12.7944C8.66328 12.796 8.27407 12.7195 7.91104 12.5693C7.54801 12.419 7.21838 12.1981 6.94129 11.9192C6.6642 11.6403 6.44516 11.3091 6.29689 10.9447C6.14863 10.5803 6.07412 10.1901 6.07763 9.7966C6.08136 8.99729 6.40166 8.23214 6.9682 7.66927C7.53474 7.10639 8.30116 6.79183 9.09909 6.7947C9.89157 6.80493 10.6482 7.1271 11.2055 7.69159C11.7628 8.25609 12.0761 9.01758 12.0775 9.81152C12.0774 10.2069 11.999 10.5984 11.8465 10.9631C11.6941 11.3278 11.4709 11.6586 11.1897 11.9361C10.9086 12.2137 10.5752 12.4325 10.2089 12.5798C9.84258 12.7271 9.45073 12.8001 9.05606 12.7944ZM9.08005 8.018C8.61244 8.01832 8.1635 8.20188 7.82923 8.52945C7.49497 8.85702 7.30192 9.3026 7.29133 9.77091C7.28448 10.2488 7.46725 10.7099 7.79954 11.0529C8.13183 11.3958 8.58643 11.5926 9.06349 11.6001C9.29779 11.6028 9.53036 11.5591 9.74772 11.4714C9.96509 11.3837 10.163 11.2538 10.33 11.0892C10.497 10.9246 10.6299 10.7284 10.721 10.5122C10.812 10.2959 10.8594 10.0637 10.8605 9.82893C10.8671 9.59163 10.8258 9.35544 10.739 9.13454C10.6522 8.91365 10.5217 8.7126 10.3554 8.54346C10.1891 8.37433 9.99047 8.2406 9.77131 8.15031C9.55214 8.06001 9.31701 8.01501 9.08005 8.018Z" fill="#0085FF"/>
</svg>
