<svg width="16" height="16" viewBox="0 0 16 16" fill="none" xmlns="http://www.w3.org/2000/svg">
<g clip-path="url(#clip0_1084_6918)">
<path d="M7.99968 6.66663C7.47226 6.66663 6.95669 6.82302 6.51816 7.11604C6.07962 7.40906 5.73783 7.82553 5.536 8.3128C5.33416 8.80007 5.28135 9.33625 5.38425 9.85353C5.48714 10.3708 5.74112 10.846 6.11406 11.2189C6.487 11.5919 6.96215 11.8458 7.47944 11.9487C7.99672 12.0516 8.5329 11.9988 9.02017 11.797C9.50744 11.5951 9.92391 11.2533 10.2169 10.8148C10.5099 10.3763 10.6663 9.86071 10.6663 9.33329C10.6663 8.62605 10.3854 7.94777 9.88529 7.44767C9.3852 6.94758 8.70692 6.66663 7.99968 6.66663ZM7.99968 10.6666C7.73597 10.6666 7.47818 10.5884 7.25892 10.4419C7.03965 10.2954 6.86985 10.0872 6.76784 9.84354C6.66692 9.5999 6.64052 9.33181 6.69196 9.07317C6.74341 8.81453 6.8704 8.57695 7.05687 8.39048C7.24334 8.20401 7.48091 8.07703 7.73956 8.02558C7.9982 7.97413 8.26629 8.00054 8.50992 8.10145C8.75356 8.20237 8.96179 8.37327 9.1083 8.59253C9.25481 8.8118 9.33301 9.06958 9.33301 9.33329C9.33301 9.68691 9.19253 10.0261 8.94248 10.2761C8.69244 10.5261 8.3533 10.6666 7.99968 10.6666Z" fill="white"/>
<path d="M15.024 2.74801L13.252 0.976013C12.9432 0.665575 12.576 0.419466 12.1714 0.251935C11.7669 0.0844031 11.3332 -0.00122304 10.8953 1.31975e-05H3.33333C2.4496 0.00107177 1.60237 0.352601 0.97748 0.977493C0.352588 1.60239 0.00105857 2.44962 0 3.33335L0 12.6667C0.00105857 13.5504 0.352588 14.3976 0.97748 15.0225C1.60237 15.6474 2.4496 15.999 3.33333 16H12.6667C13.5504 15.999 14.3976 15.6474 15.0225 15.0225C15.6474 14.3976 15.9989 13.5504 16 12.6667V5.10468C16.0012 4.66684 15.9156 4.2331 15.7481 3.82858C15.5805 3.42405 15.3344 3.05678 15.024 2.74801ZM11.3333 1.38668V2.00001C11.3333 2.53045 11.1226 3.03915 10.7475 3.41423C10.3725 3.7893 9.86377 4.00001 9.33333 4.00001H6.66667C6.13623 4.00001 5.62753 3.7893 5.25245 3.41423C4.87738 3.03915 4.66667 2.53045 4.66667 2.00001V1.33335H10.8953C11.0429 1.33466 11.1898 1.35255 11.3333 1.38668ZM14.6667 12.6667C14.6667 13.1971 14.456 13.7058 14.0809 14.0809C13.7058 14.456 13.1971 14.6667 12.6667 14.6667H3.33333C2.8029 14.6667 2.29419 14.456 1.91912 14.0809C1.54405 13.7058 1.33333 13.1971 1.33333 12.6667V3.33335C1.33333 2.80291 1.54405 2.29421 1.91912 1.91913C2.29419 1.54406 2.8029 1.33335 3.33333 1.33335V2.00001C3.33439 2.88374 3.68592 3.73097 4.31081 4.35587C4.93571 4.98076 5.78294 5.33229 6.66667 5.33335H9.33333C10.1717 5.33074 10.9781 5.01179 11.5914 4.44026C12.2047 3.86982 12.5797 3.08674 12.6413 2.25068L14.0813 3.69068C14.455 4.0666 14.6653 4.57468 14.6667 5.10468V12.6667Z" fill="white"/>
</g>
<defs>
<clipPath id="clip0_1084_6918">
<rect width="16" height="16" fill="white"/>
</clipPath>
</defs>
</svg>
