<svg width="16" height="16" viewBox="0 0 16 16" fill="none" xmlns="http://www.w3.org/2000/svg">
<path d="M15.805 14.8619L11.8257 10.8825C12.9101 9.55625 13.4433 7.86392 13.3149 6.15556C13.1865 4.44721 12.4065 2.85354 11.1361 1.7042C9.86565 0.554862 8.20207 -0.0622172 6.48944 -0.019396C4.7768 0.0234252 3.14614 0.72287 1.93475 1.93426C0.723359 3.14566 0.0239135 4.77632 -0.0189077 6.48895C-0.0617289 8.20158 0.55535 9.86516 1.70469 11.1356C2.85403 12.406 4.4477 13.1861 6.15605 13.3144C7.8644 13.4428 9.55674 12.9096 10.883 11.8252L14.8623 15.8045C14.9881 15.926 15.1565 15.9932 15.3313 15.9916C15.5061 15.9901 15.6733 15.92 15.7969 15.7964C15.9205 15.6728 15.9906 15.5056 15.9921 15.3308C15.9936 15.156 15.9264 14.9876 15.805 14.8619ZM6.66701 11.9999C5.61218 11.9999 4.58103 11.6871 3.70397 11.101C2.82691 10.515 2.14332 9.68204 1.73965 8.7075C1.33598 7.73296 1.23037 6.6606 1.43615 5.62604C1.64194 4.59147 2.14989 3.64117 2.89577 2.89529C3.64165 2.14941 4.59196 1.64145 5.62653 1.43567C6.66109 1.22988 7.73345 1.3355 8.70799 1.73916C9.68253 2.14283 10.5155 2.82642 11.1015 3.70348C11.6875 4.58054 12.0003 5.61169 12.0003 6.66652C11.9988 8.08052 11.4363 9.43615 10.4365 10.436C9.43664 11.4359 8.08101 11.9983 6.66701 11.9999Z" fill="#9CAABE"/>
</svg>
