<svg width="16" height="16" viewBox="0 0 16 16" fill="none" xmlns="http://www.w3.org/2000/svg">
<g clip-path="url(#clip0_94_6398)">
<path d="M0.666667 3.16666H2.49067C2.63376 3.69314 2.94612 4.15792 3.37955 4.48928C3.81299 4.82063 4.34341 5.00016 4.889 5.00016C5.43459 5.00016 5.96501 4.82063 6.39845 4.48928C6.83188 4.15792 7.14424 3.69314 7.28733 3.16666H15.3333C15.5101 3.16666 15.6797 3.09642 15.8047 2.97139C15.9298 2.84637 16 2.6768 16 2.49999C16 2.32318 15.9298 2.15361 15.8047 2.02858C15.6797 1.90356 15.5101 1.83332 15.3333 1.83332H7.28733C7.14424 1.30684 6.83188 0.84206 6.39845 0.510702C5.96501 0.179344 5.43459 -0.000183105 4.889 -0.000183105C4.34341 -0.000183105 3.81299 0.179344 3.37955 0.510702C2.94612 0.84206 2.63376 1.30684 2.49067 1.83332H0.666667C0.489856 1.83332 0.320286 1.90356 0.195262 2.02858C0.0702379 2.15361 0 2.32318 0 2.49999C0 2.6768 0.0702379 2.84637 0.195262 2.97139C0.320286 3.09642 0.489856 3.16666 0.666667 3.16666ZM4.88867 1.33332C5.11941 1.33332 5.34497 1.40175 5.53683 1.52994C5.72869 1.65814 5.87822 1.84035 5.96653 2.05353C6.05483 2.26671 6.07793 2.50128 6.03292 2.7276C5.9879 2.95391 5.87679 3.16179 5.71362 3.32495C5.55046 3.48811 5.34258 3.59922 5.11627 3.64424C4.88996 3.68926 4.65538 3.66615 4.4422 3.57785C4.22902 3.48955 4.04681 3.34001 3.91862 3.14815C3.79042 2.9563 3.722 2.73073 3.722 2.49999C3.72235 2.19068 3.84538 1.89414 4.0641 1.67542C4.28281 1.45671 4.57936 1.33368 4.88867 1.33332Z" fill="#0E1D44"/>
<path d="M15.3333 7.33336H13.5093C13.3665 6.80675 13.0542 6.34181 12.6208 6.01031C12.1874 5.67882 11.657 5.49921 11.1113 5.49921C10.5657 5.49921 10.0352 5.67882 9.60182 6.01031C9.16842 6.34181 8.85619 6.80675 8.71333 7.33336H0.666667C0.489856 7.33336 0.320286 7.4036 0.195262 7.52863C0.0702379 7.65365 0 7.82322 0 8.00003C0 8.17684 0.0702379 8.34641 0.195262 8.47143C0.320286 8.59646 0.489856 8.6667 0.666667 8.6667H8.71333C8.85619 9.19331 9.16842 9.65825 9.60182 9.98974C10.0352 10.3212 10.5657 10.5009 11.1113 10.5009C11.657 10.5009 12.1874 10.3212 12.6208 9.98974C13.0542 9.65825 13.3665 9.19331 13.5093 8.6667H15.3333C15.5101 8.6667 15.6797 8.59646 15.8047 8.47143C15.9298 8.34641 16 8.17684 16 8.00003C16 7.82322 15.9298 7.65365 15.8047 7.52863C15.6797 7.4036 15.5101 7.33336 15.3333 7.33336ZM11.1113 9.1667C10.8806 9.1667 10.655 9.09827 10.4632 8.97008C10.2713 8.84188 10.1218 8.65967 10.0335 8.44649C9.94517 8.23331 9.92207 7.99874 9.96708 7.77242C10.0121 7.54611 10.1232 7.33823 10.2864 7.17507C10.4495 7.01191 10.6574 6.9008 10.8837 6.85578C11.11 6.81076 11.3446 6.83387 11.5578 6.92217C11.771 7.01047 11.9532 7.16001 12.0814 7.35186C12.2096 7.54372 12.278 7.76928 12.278 8.00003C12.2776 8.30934 12.1546 8.60588 11.9359 8.8246C11.7172 9.04331 11.4206 9.16634 11.1113 9.1667Z" fill="#0E1D44"/>
<path d="M15.3333 12.8333H7.28733C7.14424 12.3068 6.83188 11.8421 6.39845 11.5107C5.96501 11.1793 5.43459 10.9998 4.889 10.9998C4.34341 10.9998 3.81299 11.1793 3.37955 11.5107C2.94612 11.8421 2.63376 12.3068 2.49067 12.8333H0.666667C0.489856 12.8333 0.320286 12.9036 0.195262 13.0286C0.0702379 13.1536 0 13.3232 0 13.5C0 13.6768 0.0702379 13.8464 0.195262 13.9714C0.320286 14.0964 0.489856 14.1667 0.666667 14.1667H2.49067C2.63376 14.6931 2.94612 15.1579 3.37955 15.4893C3.81299 15.8206 4.34341 16.0002 4.889 16.0002C5.43459 16.0002 5.96501 15.8206 6.39845 15.4893C6.83188 15.1579 7.14424 14.6931 7.28733 14.1667H15.3333C15.5101 14.1667 15.6797 14.0964 15.8047 13.9714C15.9298 13.8464 16 13.6768 16 13.5C16 13.3232 15.9298 13.1536 15.8047 13.0286C15.6797 12.9036 15.5101 12.8333 15.3333 12.8333ZM4.88867 14.6667C4.65792 14.6667 4.43236 14.5982 4.2405 14.47C4.04864 14.3418 3.89911 14.1596 3.81081 13.9465C3.72251 13.7333 3.6994 13.4987 3.74442 13.2724C3.78943 13.0461 3.90055 12.8382 4.06371 12.675C4.22687 12.5119 4.43475 12.4008 4.66106 12.3557C4.88737 12.3107 5.12195 12.3338 5.33513 12.4221C5.54831 12.5104 5.73052 12.66 5.85871 12.8518C5.98691 13.0437 6.05533 13.2692 6.05533 13.5C6.0548 13.8092 5.93172 14.1057 5.71304 14.3244C5.49436 14.543 5.19792 14.6661 4.88867 14.6667Z" fill="#0E1D44"/>
</g>
<defs>
<clipPath id="clip0_94_6398">
<rect width="16" height="16" fill="white"/>
</clipPath>
</defs>
</svg>
