<svg width="15" height="16" viewBox="0 0 15 16" fill="none" xmlns="http://www.w3.org/2000/svg">
<path d="M14.3906 8H13.4062C13.3289 8 13.2656 8.06328 13.2656 8.14062V13.7656H1.73438V2.23438H7.35938C7.43672 2.23438 7.5 2.17109 7.5 2.09375V1.10938C7.5 1.03203 7.43672 0.96875 7.35938 0.96875H1.03125C0.720117 0.96875 0.46875 1.22012 0.46875 1.53125V14.4688C0.46875 14.7799 0.720117 15.0312 1.03125 15.0312H13.9688C14.2799 15.0312 14.5312 14.7799 14.5312 14.4688V8.14062C14.5312 8.06328 14.468 8 14.3906 8Z" fill="white"/>
<path d="M4.75601 8.40254L4.72261 10.4926C4.72085 10.649 4.84742 10.7773 5.00386 10.7773H5.01089L7.08511 10.7264C7.12027 10.7246 7.15542 10.7105 7.18003 10.6859L14.4908 3.39102C14.5453 3.33652 14.5453 3.24687 14.4908 3.19238L12.3058 1.00918C12.2777 0.981055 12.2425 0.96875 12.2056 0.96875C12.1687 0.96875 12.1335 0.982813 12.1054 1.00918L4.79644 8.3041C4.77105 8.33065 4.75661 8.36581 4.75601 8.40254ZM5.87222 8.81738L12.2056 2.49805L13.0002 3.29082L6.66324 9.61367L5.85992 9.63301L5.87222 8.81738Z" fill="white"/>
</svg>
