<svg width="84" height="26" viewBox="0 0 84 26" fill="none" xmlns="http://www.w3.org/2000/svg">
<g clip-path="url(#clip0_7841_37484)">
<path d="M49.5754 5.72303L44.6568 4.9717L42.4521 0.275695C42.2874 -0.0749714 41.7121 -0.0749714 41.5474 0.275695L39.3434 4.9717L34.4248 5.72303C34.0208 5.78503 33.8594 6.27636 34.1428 6.56636L37.7161 10.229L36.8714 15.407C36.8041 15.8184 37.2434 16.127 37.6068 15.925L42.0001 13.497L46.3934 15.9257C46.7534 16.1257 47.1968 15.823 47.1288 15.4077L46.2841 10.2297L49.8574 6.56703C50.1408 6.27636 49.9788 5.78503 49.5754 5.72303Z" fill="#FB885B"/>
</g>
<g clip-path="url(#clip1_7841_37484)">
<path d="M26.7345 13.5768L23.6604 13.1072L22.2824 10.1722C22.1795 9.95302 21.8199 9.95302 21.717 10.1722L20.3395 13.1072L17.2654 13.5768C17.0129 13.6155 16.912 13.9226 17.0891 14.1039L19.3224 16.393L18.7945 19.6293C18.7524 19.8864 19.027 20.0793 19.2541 19.953L21.9999 18.4355L24.7458 19.9534C24.9708 20.0784 25.2479 19.8893 25.2054 19.6297L24.6774 16.3934L26.9108 14.1043C27.0879 13.9226 26.9866 13.6155 26.7345 13.5768Z" fill="#FB885B"/>
</g>
<g clip-path="url(#clip2_7841_37484)">
<path d="M66.7345 13.5768L63.6604 13.1072L62.2824 10.1722C62.1795 9.95302 61.8199 9.95302 61.717 10.1722L60.3395 13.1072L57.2654 13.5768C57.0129 13.6155 56.912 13.9226 57.0891 14.1039L59.3224 16.393L58.7945 19.6293C58.7524 19.8864 59.027 20.0793 59.2541 19.953L61.9999 18.4355L64.7458 19.9534C64.9708 20.0784 65.2479 19.8893 65.2054 19.6297L64.6774 16.3934L66.9108 14.1043C67.0879 13.9226 66.9866 13.6155 66.7345 13.5768Z" fill="#FB885B"/>
</g>
<g clip-path="url(#clip3_7841_37484)">
<path d="M7.78772 20.861L5.32838 20.4854L4.22605 18.1374C4.14372 17.962 3.85605 17.962 3.77372 18.1374L2.67172 20.4854L0.212383 20.861C0.0103831 20.892 -0.0702836 21.1377 0.0713831 21.2827L1.85805 23.114L1.43572 25.703C1.40205 25.9087 1.62172 26.063 1.80338 25.962L4.00005 24.748L6.19672 25.9624C6.37672 26.0624 6.59838 25.911 6.56438 25.7034L6.14205 23.1144L7.92872 21.283C8.07038 21.1377 7.98938 20.892 7.78772 20.861Z" fill="#FB885B"/>
</g>
<g clip-path="url(#clip4_7841_37484)">
<path d="M83.7877 20.861L81.3284 20.4854L80.226 18.1374C80.1437 17.962 79.856 17.962 79.7737 18.1374L78.6717 20.4854L76.2124 20.861C76.0104 20.892 75.9297 21.1377 76.0714 21.2827L77.858 23.114L77.4357 25.703C77.402 25.9087 77.6217 26.063 77.8034 25.962L80 24.748L82.1967 25.9624C82.3767 26.0624 82.5984 25.911 82.5644 25.7034L82.142 23.1144L83.9287 21.283C84.0704 21.1377 83.9894 20.892 83.7877 20.861Z" fill="#FB885B"/>
</g>
<defs>
<clipPath id="clip0_7841_37484">
<rect width="16" height="16" fill="white" transform="translate(34)"/>
</clipPath>
<clipPath id="clip1_7841_37484">
<rect width="10" height="10" fill="white" transform="translate(17 10)"/>
</clipPath>
<clipPath id="clip2_7841_37484">
<rect width="10" height="10" fill="white" transform="translate(57 10)"/>
</clipPath>
<clipPath id="clip3_7841_37484">
<rect width="8" height="8" fill="white" transform="translate(0 18)"/>
</clipPath>
<clipPath id="clip4_7841_37484">
<rect width="8" height="8" fill="white" transform="translate(76 18)"/>
</clipPath>
</defs>
</svg>
