<svg width="24" height="25" viewBox="0 0 24 25" fill="none" xmlns="http://www.w3.org/2000/svg">
<g clip-path="url(#clip0_798_14275)">
<path d="M21.5161 3.31627C21.467 3.31428 21.4179 3.31395 21.3688 3.31533H19.5182V1.72495C19.5183 1.0888 18.911 0.712891 18.2749 0.712891H16.5689C15.9327 0.712891 15.4701 1.0888 15.4701 1.72495V3.31528H8.5303V1.72495C8.5303 1.0888 8.06767 0.712891 7.43151 0.712891H5.72546C5.08937 0.712891 4.48211 1.0888 4.48211 1.72495V3.31528H2.63155C1.45024 3.28234 0.465901 4.21333 0.432969 5.39458C0.431586 5.44362 0.431918 5.49277 0.43391 5.5418V22.255C0.43391 23.5273 1.35919 24.7128 2.63149 24.7128H21.3689C22.6412 24.7128 23.5665 23.5273 23.5665 22.255V5.5418C23.6148 4.36104 22.6968 3.36464 21.5161 3.31627ZM16.5689 1.86952H18.3616V5.05022H16.5689V1.86952ZM5.72552 1.86952H7.37373V5.05022H5.72552V1.86952ZM22.4098 22.255C22.4098 22.8912 22.005 23.5562 21.3689 23.5562H2.63155C1.9954 23.5562 1.59059 22.8912 1.59059 22.255V9.96591H22.4098V22.255ZM22.4098 5.5418V8.80929H1.59054V5.5418C1.54156 5.00107 1.94022 4.52299 2.48095 4.47401C2.53098 4.46947 2.58135 4.4688 2.63149 4.47196H4.48211V5.10811C4.48211 5.74426 5.08931 6.2069 5.72546 6.2069H7.43151C8.02217 6.22312 8.51409 5.75738 8.5303 5.16672C8.53086 5.14718 8.53086 5.12765 8.5303 5.10811V4.4719H15.4701V5.10805C15.4539 5.69871 15.9196 6.19063 16.5103 6.20685C16.5298 6.2074 16.5493 6.2074 16.5689 6.20685H18.2749C18.9111 6.20685 19.5183 5.74421 19.5183 5.10805V4.4719H21.3689C21.9108 4.43775 22.3777 4.84937 22.4119 5.39126C22.415 5.44141 22.4144 5.49177 22.4098 5.5418Z" fill="#98B7D7"/>
<path d="M8.79079 17.8598L8.27031 20.7514C8.24972 20.8754 8.27009 21.0028 8.32837 21.1143C8.47642 21.3972 8.82588 21.5067 9.10886 21.3586L11.7112 19.9996L14.3136 21.3586L14.5739 21.4164C14.6993 21.4187 14.8218 21.3778 14.9208 21.3008C15.0937 21.1745 15.1826 20.9632 15.1522 20.7513L14.6317 17.8598L16.7426 15.8357C16.8936 15.6725 16.9484 15.4422 16.8871 15.2285C16.8093 15.0309 16.6338 14.8884 16.4245 14.8526L13.5329 14.4188L12.2317 11.7875C12.175 11.6704 12.0805 11.5758 11.9634 11.5191C11.6759 11.3799 11.33 11.5001 11.1908 11.7875L9.88958 14.4188L6.99801 14.8526C6.78869 14.8883 6.61324 15.0309 6.53537 15.2285C6.4741 15.4422 6.52895 15.6725 6.67993 15.8357L8.79079 17.8598ZM10.3812 15.5177C10.5628 15.4905 10.7166 15.3696 10.786 15.1996L11.7112 13.349L12.6365 15.1996C12.7059 15.3696 12.8597 15.4905 13.0413 15.5177L15.0943 15.8068L13.6196 17.2237C13.4823 17.3597 13.4179 17.5529 13.4461 17.7442L13.7931 19.7972L11.9714 18.8141L11.7112 18.7562L11.451 18.8141L9.62928 19.7972L9.97625 17.7442C10.0046 17.5529 9.94011 17.3597 9.80274 17.2237L8.32804 15.8068L10.3812 15.5177Z" fill="#0085FF"/>
</g>
<defs>
<clipPath id="clip0_798_14275">
<rect width="24" height="24" fill="white" transform="translate(0 0.712891)"/>
</clipPath>
</defs>
</svg>
