<svg width="24" height="24" viewBox="0 0 24 24" fill="none" xmlns="http://www.w3.org/2000/svg">
<path d="M12.0649 0.162079C5.72726 0.162079 0.535356 4.9939 0.0419922 11.1344L6.50836 13.7779C7.05627 13.4074 7.71817 13.1903 8.43027 13.1903C8.49408 13.1903 8.55763 13.1925 8.62063 13.196L11.4963 9.07471C11.4963 9.05502 11.496 9.03588 11.496 9.01646C11.496 6.53583 13.5368 4.51767 16.0459 4.51767C18.5547 4.51767 20.5955 6.53583 20.5955 9.01646C20.5955 11.4971 18.5547 13.5155 16.0459 13.5155C16.0113 13.5155 15.9769 13.5147 15.9425 13.5139L11.8413 16.4074C11.8434 16.46 11.8454 16.5136 11.8454 16.567C11.8454 18.4293 10.3134 19.9437 8.43027 19.9437C6.77727 19.9437 5.39508 18.7772 5.08199 17.2323L0.457629 15.3419C1.88945 20.349 6.5419 24.02 12.0649 24.02C18.7282 24.02 24.1295 18.679 24.1295 12.0914C24.1295 5.50275 18.7279 0.162079 12.0649 0.162079Z" fill="#C5C3C0"/>
<path d="M7.60227 18.2624L6.12027 17.657C6.38291 18.1977 6.83727 18.6504 7.44054 18.8991C8.74472 19.4362 10.2483 18.8244 10.7918 17.5338C11.055 16.9098 11.0566 16.2208 10.7956 15.5952C10.5352 14.9693 10.0437 14.4812 9.41181 14.2207C8.78481 13.9626 8.11309 13.9721 7.52291 14.1924L9.05372 14.8183C10.0156 15.2147 10.4705 16.3068 10.0696 17.2579C9.66954 18.2093 8.56418 18.6591 7.60227 18.2624Z" fill="#C5C3C0"/>
<path d="M19.0772 9.01646C19.0772 7.3637 17.7174 6.01889 16.0456 6.01889C14.3741 6.01889 13.014 7.3637 13.014 9.01646C13.014 10.6695 14.3741 12.0138 16.0456 12.0138C17.7174 12.0135 19.0772 10.6692 19.0772 9.01646ZM13.7732 9.01134C13.7732 7.76765 14.793 6.75965 16.0508 6.75965C17.3086 6.75965 18.3283 7.76765 18.3283 9.01134C18.3283 10.255 17.3086 11.263 16.0508 11.263C14.793 11.263 13.7732 10.2548 13.7732 9.01134Z" fill="#C5C3C0"/>
</svg>
