<svg width="32" height="32" viewBox="0 0 32 32" fill="none" xmlns="http://www.w3.org/2000/svg">
<path d="M31.5 16C31.5 24.5604 24.5604 31.5 16 31.5C7.43959 31.5 0.5 24.5604 0.5 16C0.5 7.43959 7.43959 0.5 16 0.5C24.5604 0.5 31.5 7.43959 31.5 16Z" fill="white" stroke="#EBEFF3"/>
<path fill-rule="evenodd" clip-rule="evenodd" d="M7.76607 16.2212C12.0596 13.9632 14.9227 12.4746 16.3551 11.7554C20.4453 9.70192 21.2952 9.34518 21.8491 9.33338C21.971 9.33081 22.2434 9.36726 22.4198 9.54011C22.6816 9.7965 22.6831 10.353 22.654 10.7214C22.4324 13.5325 21.4733 20.3542 20.9854 23.5027C20.7789 24.8349 20.3724 25.2816 19.9789 25.3253C19.1236 25.4203 18.4741 24.643 17.6457 23.9876C16.3495 22.9619 15.6172 22.3234 14.3589 21.3226C12.9048 20.1659 13.8474 19.5303 14.6761 18.4913C14.893 18.2194 18.6614 14.082 18.7343 13.7066C18.7435 13.6597 18.752 13.4847 18.6658 13.3923C18.5797 13.3 18.4526 13.3315 18.3609 13.3566C18.2309 13.3923 16.1601 15.0444 12.1485 18.313C11.5607 18.8003 11.0283 19.0376 10.5513 19.0252C10.0254 19.0115 9.01393 18.6663 8.26193 18.3712C7.33959 18.0093 6.60652 17.818 6.67038 17.2034C6.70364 16.8832 7.06885 16.5558 7.76607 16.2212V16.2212Z" fill="#0E1D44"/>
</svg>
