<svg width="24" height="24" viewBox="0 0 24 24" fill="none" xmlns="http://www.w3.org/2000/svg">
<g clip-path="url(#clip0_7841_45148)">
<path d="M20.5714 9.92848H18.2264L17.9353 9.16658L17.7295 8.6331L17.5653 8.20694L17.0705 6.92272L16.7429 6.06967L16.5372 5.53674L16.2625 4.82413L19.8168 3.45639C20.4075 3.23168 21.0705 3.52502 21.2952 4.11543L22.3882 6.95731C21.8019 7.18592 21.5082 7.84459 21.7329 8.43555C21.9044 8.88849 22.3391 9.16695 22.7957 9.16695L23.2111 9.09069L23.6568 10.2549L20.5714 9.92848Z" fill="#FB885B"/>
<path d="M20.2094 11.0304C20.1329 11.0304 20.0605 10.9842 20.0315 10.9083L17.9173 5.4143C17.8796 5.31608 17.9283 5.20559 18.0265 5.1682C18.1264 5.13007 18.2354 5.17918 18.2726 5.27758L20.387 10.7716C20.4248 10.8698 20.3758 10.9803 20.2776 11.0177C20.2551 11.0265 20.2319 11.0304 20.2094 11.0304Z" fill="#FFD5C5"/>
<path d="M20.9291 10.7817C20.8524 10.7817 20.7801 10.7352 20.7512 10.6598L19.3115 6.91878C19.2739 6.82056 19.3227 6.71044 19.4209 6.67268C19.5204 6.63548 19.6296 6.68384 19.667 6.78206L21.1065 10.5231C21.1443 10.6213 21.0955 10.7315 20.9973 10.7692C20.9752 10.7776 20.9519 10.7817 20.9291 10.7817Z" fill="#FFD5C5"/>
<path d="M19.0476 20.5954H1.14286C0.510417 20.5954 0 20.0848 0 19.4525V16.4049C0.632441 16.4049 1.14286 15.8943 1.14286 15.262C1.14286 14.6296 0.632441 14.1192 0 14.1192V11.0716C0 10.4391 0.510417 9.92871 1.14286 9.92871H19.0476V20.5954Z" fill="#0085FF"/>
<path d="M19.0476 19.4525V9.92871H22.8571C23.4896 9.92871 24 10.4391 24 11.0716V14.1192C23.3675 14.1192 22.8571 14.6296 22.8571 15.262C22.8571 15.8943 23.3675 16.4049 24 16.4049V19.4525C24 20.0848 23.4896 20.5954 22.8571 20.5954H19.0476V19.4525Z" fill="#FB885B"/>
<path d="M4.97135 9.92815H2.98828L16.2625 4.82324L16.5372 5.53604L16.7429 6.06896L17.0709 6.92239L17.5653 8.20661L17.7295 8.63277L18.2264 9.92815H4.97135Z" fill="#0069E8"/>
<path d="M19.0477 11.4524C18.9426 11.4524 18.8572 11.367 18.8572 11.2619V10.6905C18.8572 10.5852 18.9426 10.5 19.0477 10.5C19.1528 10.5 19.2381 10.5852 19.2381 10.6905V11.2619C19.2381 11.3674 19.1528 11.4524 19.0477 11.4524Z" fill="#0085FF"/>
<path d="M19.0477 18.3101C18.9426 18.3101 18.8572 18.2247 18.8572 18.1196V16.9767C18.8572 16.8715 18.9426 16.7863 19.0477 16.7863C19.1528 16.7863 19.2381 16.8715 19.2381 16.9767V18.1196C19.2381 18.2247 19.1528 18.3101 19.0477 18.3101ZM19.0477 16.0244C18.9426 16.0244 18.8572 15.939 18.8572 15.8339V14.691C18.8572 14.5858 18.9426 14.5006 19.0477 14.5006C19.1528 14.5006 19.2381 14.5858 19.2381 14.691V15.8339C19.2381 15.939 19.1528 16.0244 19.0477 16.0244ZM19.0477 13.7387C18.9426 13.7387 18.8572 13.6533 18.8572 13.5482V12.4053C18.8572 12.2997 18.9426 12.2148 19.0477 12.2148C19.1528 12.2148 19.2381 12.3 19.2381 12.4053V13.5482C19.2381 13.6533 19.1528 13.7387 19.0477 13.7387Z" fill="#0085FF"/>
<path d="M19.0477 20.0246C18.9426 20.0246 18.8572 19.9393 18.8572 19.8342V19.2627C18.8572 19.1575 18.9426 19.0723 19.0477 19.0723C19.1528 19.0723 19.2381 19.1575 19.2381 19.2627V19.8342C19.2381 19.9393 19.1528 20.0246 19.0477 20.0246Z" fill="#0085FF"/>
<path d="M20.5713 19.6428C20.4662 19.6428 20.3809 19.5574 20.3809 19.4523V11.0713C20.3809 10.9661 20.4662 10.8809 20.5713 10.8809C20.6764 10.8809 20.7618 10.9661 20.7618 11.0713V19.4523C20.7618 19.5574 20.6764 19.6428 20.5713 19.6428Z" fill="#FB885B"/>
<path d="M21.3333 17.7385C21.2282 17.7385 21.1428 17.6531 21.1428 17.548V12.9766C21.1428 12.8713 21.2282 12.7861 21.3333 12.7861C21.4384 12.7861 21.5238 12.8713 21.5238 12.9766V17.548C21.5238 17.6531 21.4384 17.7385 21.3333 17.7385Z" fill="#FFD2C0"/>
<path d="M5.53523 18.8809H5.53151C5.42678 18.8809 5.34326 18.9661 5.34326 19.0713C5.34326 19.1764 5.4305 19.2618 5.5356 19.2618C5.64051 19.2618 5.72607 19.1764 5.72607 19.0713C5.72607 18.9661 5.64051 18.8809 5.53523 18.8809Z" fill="#0069E8"/>
<path d="M8.00758 15.0713C7.90286 15.0713 7.81934 15.1565 7.81934 15.2618C7.81934 15.3669 7.90658 15.4522 8.01167 15.4522C8.11658 15.4522 8.20215 15.3669 8.20215 15.2618C8.20215 15.1565 8.11658 15.0713 8.01167 15.0713H8.00758Z" fill="#0069E8"/>
<path d="M9.53523 11.2618C9.64014 11.2618 9.7257 11.1764 9.7257 11.0713C9.7257 10.9661 9.64014 10.8809 9.53523 10.8809H9.53151C9.42678 10.8809 9.34326 10.9661 9.34326 11.0713C9.34326 11.1764 9.43013 11.2618 9.53523 11.2618Z" fill="#0069E8"/>
<path d="M16.3924 12.0235C16.4973 12.0235 16.5829 11.9382 16.5829 11.8331C16.5829 11.7278 16.4973 11.6426 16.3924 11.6426H16.3887C16.284 11.6426 16.2004 11.7278 16.2004 11.8331C16.2004 11.9382 16.2873 12.0235 16.3924 12.0235Z" fill="#0069E8"/>
<path d="M12.96 15.4531C12.8552 15.4531 12.7717 15.5383 12.7717 15.6436C12.7717 15.7487 12.859 15.8341 12.9641 15.8341C13.069 15.8341 13.1545 15.7487 13.1545 15.6436C13.1545 15.5383 13.069 15.4531 12.9641 15.4531H12.96Z" fill="#0069E8"/>
<path d="M6.67805 18.8809H6.67433C6.5696 18.8809 6.48608 18.9661 6.48608 19.0713C6.48608 19.1764 6.57332 19.2618 6.67842 19.2618C6.78333 19.2618 6.8689 19.1764 6.8689 19.0713C6.8689 18.9661 6.78333 18.8809 6.67805 18.8809Z" fill="#0069E8"/>
<path d="M7.82087 18.8809H7.81715C7.71243 18.8809 7.62891 18.9661 7.62891 19.0713C7.62891 19.1764 7.71615 19.2618 7.82124 19.2618C7.92615 19.2618 8.01172 19.1764 8.01172 19.0713C8.01172 18.9661 7.92615 18.8809 7.82087 18.8809Z" fill="#0069E8"/>
<path d="M8.96369 18.8809H8.95997C8.85525 18.8809 8.77173 18.9661 8.77173 19.0713C8.77173 19.1764 8.85897 19.2618 8.96406 19.2618C9.06898 19.2618 9.15454 19.1764 9.15454 19.0713C9.15454 18.9661 9.06898 18.8809 8.96369 18.8809Z" fill="#0069E8"/>
<path d="M10.1068 18.8809H10.103C9.99831 18.8809 9.91479 18.9661 9.91479 19.0713C9.91479 19.1764 10.002 19.2618 10.1071 19.2618C10.212 19.2618 10.2976 19.1764 10.2976 19.0713C10.2976 18.9661 10.212 18.8809 10.1068 18.8809Z" fill="#0069E8"/>
<path d="M11.2496 18.8809H11.2459C11.1411 18.8809 11.0576 18.9661 11.0576 19.0713C11.0576 19.1764 11.1449 19.2618 11.25 19.2618C11.3549 19.2618 11.4404 19.1764 11.4404 19.0713C11.4404 18.9661 11.3549 18.8809 11.2496 18.8809Z" fill="#0069E8"/>
<path d="M12.3924 18.8809H12.3887C12.284 18.8809 12.2004 18.9661 12.2004 19.0713C12.2004 19.1764 12.2877 19.2618 12.3928 19.2618C12.4977 19.2618 12.5833 19.1764 12.5833 19.0713C12.5833 18.9661 12.4977 18.8809 12.3924 18.8809Z" fill="#0069E8"/>
<path d="M13.5352 18.8809H13.5315C13.4268 18.8809 13.3433 18.9661 13.3433 19.0713C13.3433 19.1764 13.4305 19.2618 13.5356 19.2618C13.6405 19.2618 13.7261 19.1764 13.7261 19.0713C13.7261 18.9661 13.6405 18.8809 13.5352 18.8809Z" fill="#0069E8"/>
<path d="M14.678 18.8809H14.6743C14.5696 18.8809 14.4861 18.9661 14.4861 19.0713C14.4861 19.1764 14.5733 19.2618 14.6784 19.2618C14.7833 19.2618 14.8689 19.1764 14.8689 19.0713C14.8689 18.9661 14.7833 18.8809 14.678 18.8809Z" fill="#0069E8"/>
<path d="M5.14276 14.5006C5.14276 14.6057 5.22814 14.6911 5.33324 14.6911C5.43834 14.6911 5.52372 14.6057 5.52372 14.5006V12.4054H6.09515C6.20024 12.4054 6.28562 12.32 6.28562 12.2149C6.28562 12.1096 6.20024 12.0244 6.09515 12.0244H4.57134C4.46624 12.0244 4.38086 12.1096 4.38086 12.2149C4.38086 12.32 4.46624 12.4054 4.57134 12.4054H5.14276V14.5006Z" fill="#F5F7FA"/>
<path d="M15.4286 12.0234H13.9048C13.7997 12.0234 13.7144 12.1086 13.7144 12.2139C13.7144 12.319 13.7997 12.4044 13.9048 12.4044H14.4763V14.4996C14.4763 14.6047 14.5616 14.6901 14.6667 14.6901C14.7718 14.6901 14.8572 14.6047 14.8572 14.4996V12.4044H15.4286C15.5337 12.4044 15.6191 12.319 15.6191 12.2139C15.6191 12.1086 15.5337 12.0234 15.4286 12.0234Z" fill="#F5F7FA"/>
<path d="M6.85722 14.6911C6.96232 14.6911 7.0477 14.6057 7.0477 14.5006V12.2149C7.0477 12.1096 6.96232 12.0244 6.85722 12.0244C6.75213 12.0244 6.66675 12.1096 6.66675 12.2149V14.5006C6.66675 14.6057 6.75213 14.6911 6.85722 14.6911Z" fill="#F5F7FA"/>
<path d="M10.0953 14.6911C10.2004 14.6911 10.2857 14.6057 10.2857 14.5006V13.8023L10.4584 13.5722L11.0746 14.5988C11.1105 14.6584 11.1738 14.6911 11.2381 14.6911C11.2716 14.6911 11.3055 14.6824 11.3363 14.6639C11.4264 14.6094 11.4556 14.493 11.4016 14.4022L10.7052 13.243L11.3908 12.3287C11.4537 12.2441 11.4366 12.1252 11.3523 12.062C11.2686 11.9997 11.1494 12.0164 11.0858 12.1005L10.2857 13.1673V12.2149C10.2857 12.1096 10.2004 12.0244 10.0953 12.0244C9.99016 12.0244 9.90479 12.1096 9.90479 12.2149V14.5006C9.90479 14.6057 9.99016 14.6911 10.0953 14.6911Z" fill="#F5F7FA"/>
<path d="M8.57148 14.6911C8.99168 14.6911 9.33338 14.3494 9.33338 13.9292C9.33338 13.8239 9.248 13.7387 9.1429 13.7387C9.03781 13.7387 8.95243 13.8239 8.95243 13.9292C8.95243 14.1394 8.78167 14.3101 8.57148 14.3101C8.36128 14.3101 8.19052 14.1394 8.19052 13.9292V12.7863C8.19052 12.5759 8.36128 12.4054 8.57148 12.4054C8.78167 12.4054 8.95243 12.5759 8.95243 12.7863C8.95243 12.8914 9.03781 12.9768 9.1429 12.9768C9.248 12.9768 9.33338 12.8914 9.33338 12.7863C9.33338 12.3657 8.99168 12.0244 8.57148 12.0244C8.15127 12.0244 7.80957 12.3657 7.80957 12.7863V13.9292C7.80957 14.349 8.15127 14.6911 8.57148 14.6911Z" fill="#F5F7FA"/>
<path d="M12.1905 14.6911H13.3333C13.4384 14.6911 13.5238 14.6057 13.5238 14.5006C13.5238 14.3953 13.4384 14.3101 13.3333 14.3101H12.381V13.5482H12.9524C13.0575 13.5482 13.1429 13.4628 13.1429 13.3577C13.1429 13.2525 13.0575 13.1673 12.9524 13.1673H12.381V12.4054H13.3333C13.4384 12.4054 13.5238 12.32 13.5238 12.2149C13.5238 12.1096 13.4384 12.0244 13.3333 12.0244H12.1905C12.0854 12.0244 12 12.1096 12 12.2149V14.5006C12 14.6057 12.0854 14.6911 12.1905 14.6911Z" fill="#F5F7FA"/>
<path d="M14.8571 16.5957H5.3333C5.2282 16.5957 5.14282 16.6809 5.14282 16.7862C5.14282 16.8913 5.2282 16.9767 5.3333 16.9767H14.8571C14.9622 16.9767 15.0476 16.8913 15.0476 16.7862C15.0476 16.6809 14.9622 16.5957 14.8571 16.5957Z" fill="#0069E8"/>
<path d="M12.381 17.5479C12.381 17.4426 12.2956 17.3574 12.1905 17.3574H8.00005C7.89495 17.3574 7.80957 17.4426 7.80957 17.5479C7.80957 17.653 7.89495 17.7384 8.00005 17.7384H12.1905C12.2956 17.7384 12.381 17.653 12.381 17.5479Z" fill="#0069E8"/>
<path d="M16.762 14.3097H16.5715V14.1192C16.5715 14.0139 16.4861 13.9287 16.381 13.9287C16.2759 13.9287 16.1905 14.0139 16.1905 14.1192V14.3097H16C15.8949 14.3097 15.8096 14.3949 15.8096 14.5001C15.8096 14.6052 15.8949 14.6906 16 14.6906H16.1905V14.8811C16.1905 14.9862 16.2759 15.0716 16.381 15.0716C16.4861 15.0716 16.5715 14.9862 16.5715 14.8811V14.6906H16.762C16.867 14.6906 16.9524 14.6052 16.9524 14.5001C16.9524 14.3949 16.867 14.3097 16.762 14.3097Z" fill="#0069E8"/>
<path d="M3.42846 12.4054H3.23798V12.2149C3.23798 12.1096 3.1526 12.0244 3.0475 12.0244C2.94241 12.0244 2.85703 12.1092 2.85703 12.2145V12.405H2.66655C2.56145 12.405 2.47607 12.4902 2.47607 12.5955C2.47607 12.7006 2.56145 12.7859 2.66655 12.7859H2.85703V12.9764C2.85703 13.0815 2.94241 13.1669 3.0475 13.1669C3.1526 13.1669 3.23798 13.0815 3.23798 12.9764V12.7859H3.42846C3.53355 12.7859 3.61893 12.7006 3.61893 12.5955C3.61893 12.4902 3.53355 12.4054 3.42846 12.4054Z" fill="#0069E8"/>
<path d="M16.7429 6.25949C16.6666 6.25949 16.5942 6.21317 16.5648 6.13803L16.3591 5.60473C16.3215 5.50652 16.3703 5.3964 16.4685 5.35864C16.566 5.3205 16.6768 5.36961 16.7146 5.46764L16.9203 6.00056C16.9581 6.09878 16.9093 6.20927 16.8109 6.24666C16.7888 6.25577 16.7655 6.25949 16.7429 6.25949Z" fill="#0069E8"/>
<path d="M17.4 7.96804C17.3236 7.96804 17.2516 7.92191 17.2222 7.84602L16.8931 6.99129C16.8554 6.89289 16.9041 6.78277 17.0023 6.7452C17.1 6.70744 17.2103 6.75617 17.2484 6.85439L17.5777 7.7093C17.6154 7.80751 17.5665 7.91763 17.4683 7.95539C17.4462 7.96376 17.4225 7.96804 17.4 7.96804Z" fill="#0069E8"/>
<path d="M17.9352 9.35746C17.8589 9.35746 17.7865 9.31133 17.7571 9.23544L17.5516 8.70252C17.5138 8.6043 17.5626 8.49381 17.6608 8.45642C17.7584 8.41792 17.8693 8.46758 17.9069 8.56542L18.1126 9.09872C18.1504 9.19693 18.1016 9.30705 18.0032 9.34481C17.9813 9.35318 17.958 9.35746 17.9352 9.35746Z" fill="#0069E8"/>
</g>
<defs>
<clipPath id="clip0_7841_45148">
<rect width="24" height="24" fill="white"/>
</clipPath>
</defs>
</svg>
