<svg width="24" height="24" viewBox="0 0 24 24" fill="none" xmlns="http://www.w3.org/2000/svg">
<path d="M11.9998 24C18.6272 24 23.9998 18.6274 23.9998 12C23.9998 5.37258 18.6272 0 11.9998 0C5.37237 0 -0.000213623 5.37258 -0.000213623 12C-0.000213623 18.6274 5.37237 24 11.9998 24Z" fill="#6B46B3"/>
<path d="M6.24927 8.08737V16.4353H9.12453V18H10.694L12.2603 16.4337H14.613L17.7503 13.3058V6H7.03243L6.24927 8.08737ZM8.07927 7.0421H16.7051V12.7895L14.8751 14.6084H11.9998L10.4319 16.1716V14.6084H8.07927V7.0421Z" fill="white"/>
<path d="M10.9545 9.13104H11.9998V12.2605H10.9545V9.13104Z" fill="white"/>
<path d="M13.8282 9.13104H14.8735V12.2605H13.8282V9.13104Z" fill="white"/>
</svg>
