<svg width="32" height="32" viewBox="0 0 32 32" fill="none" xmlns="http://www.w3.org/2000/svg">
<path d="M31.4997 15.9999C31.4997 24.5602 24.5602 31.4997 15.9999 31.4997C7.43952 31.4997 0.5 24.5602 0.5 15.9999C0.5 7.43952 7.43952 0.5 15.9999 0.5C24.5602 0.5 31.4997 7.43952 31.4997 15.9999Z" fill="white" stroke="#EBEFF3"/>
<path d="M25.7996 11.4992C25.114 11.8033 24.3764 12.0089 23.6029 12.1007C24.3927 11.6276 24.9987 10.8789 25.2848 9.98532C24.5458 10.4237 23.727 10.7417 22.8562 10.9131C22.1586 10.1701 21.1646 9.70581 20.064 9.70581C17.9523 9.70581 16.2396 11.4185 16.2396 13.5302C16.2396 13.83 16.2735 14.1218 16.3391 14.4018C13.1607 14.2424 10.3425 12.7199 8.45612 10.4054C8.12699 10.9702 7.93818 11.6276 7.93818 12.3283C7.93818 13.6549 8.61385 14.8259 9.63947 15.5116C9.01286 15.4919 8.42275 15.3199 7.90737 15.0327C7.90709 15.049 7.90709 15.0652 7.90709 15.0812C7.90709 16.9342 9.22591 18.4798 10.9751 18.8309C10.6545 18.9187 10.316 18.9652 9.96775 18.9652C9.72076 18.9652 9.48146 18.9416 9.24816 18.8971C9.73473 20.4161 11.1468 21.5219 12.8207 21.553C11.5116 22.5789 9.86279 23.1901 8.07052 23.1901C7.76249 23.1901 7.45731 23.1721 7.15869 23.1365C8.85029 24.222 10.861 24.8549 13.0207 24.8549C20.0551 24.8549 23.9021 19.0274 23.9021 13.9732C23.9021 13.8075 23.8984 13.6423 23.891 13.4786C24.6388 12.9396 25.2871 12.2662 25.7996 11.4992Z" fill="#0E1D44"/>
</svg>
