<svg width="16" height="16" viewBox="0 0 16 16" fill="none" xmlns="http://www.w3.org/2000/svg">
<path d="M15.2001 7.255C15.2951 7.455 15.2501 7.69 15.0951 7.84L8.35008 14.35C8.15508 14.54 7.84508 14.54 7.65008 14.35L0.905077 7.84C0.750077 7.69 0.705077 7.455 0.800077 7.255L3.29508 2.04C3.38008 1.86 3.55508 1.75 3.75508 1.75H12.2451C12.4451 1.75 12.6201 1.86 12.7051 2.04L15.2001 7.255Z" fill="#19B38C"/>
<path d="M8.00009 14.745C7.81009 14.745 7.62509 14.675 7.47509 14.53L0.730094 8.02C0.500094 7.795 0.435094 7.445 0.575094 7.15L3.07009 1.93C3.19509 1.665 3.46009 1.5 3.75509 1.5H12.2451C12.5401 1.5 12.8051 1.665 12.9301 1.935L15.4251 7.15C15.5651 7.445 15.5001 7.795 15.2701 8.025L8.52509 14.53C8.37509 14.675 8.19009 14.745 8.00009 14.745ZM3.75509 2C3.65009 2 3.56509 2.055 3.52009 2.145L1.02509 7.365C0.980094 7.465 1.00009 7.585 1.08009 7.665L7.82509 14.175C7.92509 14.27 8.08009 14.27 8.17509 14.175L14.9201 7.665C15.0001 7.59 15.0201 7.465 14.9751 7.365L12.4801 2.15C12.4351 2.055 12.3501 2 12.2451 2H3.75509Z" fill="#19B28C"/>
<path d="M8 8.49998C6.235 8.49998 3.25 8.23498 3.25 7.24998C3.25 6.27998 6.135 6.06498 7.02 6.02498C7.175 6.01498 7.275 6.12498 7.28 6.26498C7.285 6.40498 7.18 6.51998 7.045 6.52498C4.86 6.62998 3.805 7.05998 3.75 7.25498C3.825 7.50998 5.35 7.99998 8 7.99998C10.65 7.99998 12.175 7.50998 12.25 7.24498C12.195 7.05998 11.15 6.63498 8.985 6.52498C8.845 6.51998 8.74 6.39998 8.75 6.26498C8.755 6.12998 8.86 6.02498 9.01 6.02998C9.885 6.07498 12.75 6.29498 12.75 7.25498C12.75 8.23498 9.765 8.49998 8 8.49998Z" fill="white"/>
<path d="M11.25 4.5H4.75C4.61 4.5 4.5 4.39 4.5 4.25C4.5 4.11 4.61 4 4.75 4H11.25C11.39 4 11.5 4.11 11.5 4.25C11.5 4.39 11.39 4.5 11.25 4.5Z" fill="white"/>
<path d="M8 11.75C7.86 11.75 7.75 11.64 7.75 11.5V8.25C7.75 8.11 7.86 8 8 8C8.14 8 8.25 8.11 8.25 8.25V11.5C8.25 11.64 8.14 11.75 8 11.75Z" fill="white"/>
<path d="M8 7.5C7.86 7.5 7.75 7.39 7.75 7.25V4.25C7.75 4.11 7.86 4 8 4C8.14 4 8.25 4.11 8.25 4.25V7.25C8.25 7.39 8.14 7.5 8 7.5Z" fill="white"/>
</svg>
