<svg width="24" height="22" viewBox="0 0 24 22" fill="none" xmlns="http://www.w3.org/2000/svg">
<path d="M23.9203 16.4202L22.9336 11.0317C22.7805 9.83992 22.1989 8.74461 21.2976 7.95011C20.3962 7.15561 19.2365 6.7162 18.035 6.71387H5.95637C4.75483 6.7162 3.59518 7.15561 2.6938 7.95011C1.79243 8.74461 1.2109 9.83992 1.05774 11.0317L0.0710135 16.4202C-0.0425055 17.0515 -0.0197121 17.6997 0.137865 18.3215C0.295442 18.9433 0.584158 19.5242 0.984649 20.0252C1.38514 20.5263 1.88814 20.9359 2.45992 21.2266C3.0317 21.5173 3.65903 21.6823 4.29983 21.7107C4.90428 21.7292 5.50627 21.6259 6.06998 21.407C6.6337 21.1881 7.14761 20.858 7.58115 20.4364C8.01468 20.0148 8.35898 19.5103 8.59355 18.9529C8.82811 18.3955 8.94815 17.7967 8.94653 17.1919C8.94653 17.1829 8.65661 17.1859 15.0568 17.1859C15.0494 17.8101 15.1727 18.4288 15.4188 19.0024C15.6649 19.576 16.0283 20.0917 16.4857 20.5164C16.9432 20.9411 17.4844 21.2653 18.0747 21.4682C18.6649 21.6711 19.2911 21.7481 19.913 21.6944C20.5348 21.6407 21.1386 21.4575 21.6853 21.1564C22.232 20.8553 22.7097 20.4431 23.0875 19.9463C23.4654 19.4495 23.735 18.8791 23.8792 18.2718C24.0233 17.6645 24.0387 17.0338 23.9243 16.4202H23.9203ZM21.2741 19.7412C20.6989 20.1497 19.9986 20.3434 19.2953 20.2886C18.5919 20.2338 17.9301 19.934 17.4252 19.4413C17.1212 19.1468 16.8794 18.7942 16.7141 18.4046C16.5487 18.015 16.4631 17.5962 16.4624 17.1729C16.4603 16.8 16.311 16.443 16.0471 16.1796C15.7831 15.9162 15.4257 15.7677 15.0528 15.7663H8.94253C8.5696 15.7677 8.21228 15.9162 7.9483 16.1796C7.68431 16.443 7.53503 16.8 7.53293 17.1729C7.53575 17.5885 7.45496 18.0004 7.29537 18.3841C7.13579 18.7678 6.90065 19.1155 6.60397 19.4065C6.30728 19.6975 5.95509 19.9259 5.56836 20.078C5.18163 20.2301 4.76825 20.3029 4.35282 20.2921C3.57614 20.2557 2.84171 19.928 2.296 19.3741C1.7503 18.8202 1.43345 18.081 1.40864 17.3039C1.39564 16.904 1.38165 17.11 2.45235 11.2646C2.45235 11.2513 2.45435 11.2379 2.45835 11.2246C2.56445 10.3707 2.97838 9.58475 3.62255 9.0142C4.26671 8.44366 5.09686 8.12767 5.95737 8.12547H18.039C18.8995 8.12767 19.7296 8.44366 20.3738 9.0142C21.018 9.58475 21.4319 10.3707 21.538 11.2246C21.538 11.2556 21.472 10.8707 22.5377 16.6731C22.6418 17.2518 22.5781 17.8481 22.3542 18.3918C22.1303 18.9354 21.7555 19.4037 21.2741 19.7412Z" fill="#98B7D7"/>
<path d="M8.5865 11.6656H7.42082V10.5C7.42082 10.3144 7.3471 10.1364 7.21586 10.0051C7.08462 9.87389 6.90662 9.80017 6.72102 9.80017C6.53542 9.80017 6.35743 9.87389 6.22619 10.0051C6.09495 10.1364 6.02121 10.3144 6.02121 10.5V11.6656H4.85655C4.67095 11.6656 4.49294 11.7394 4.36171 11.8706C4.23047 12.0018 4.15674 12.1798 4.15674 12.3654C4.15674 12.551 4.23047 12.729 4.36171 12.8603C4.49294 12.9915 4.67095 13.0652 4.85655 13.0652H6.02222V14.2309C6.02222 14.4165 6.09595 14.5945 6.22719 14.7258C6.35843 14.857 6.53642 14.9307 6.72202 14.9307C6.90762 14.9307 7.08562 14.857 7.21686 14.7258C7.3481 14.5945 7.42182 14.4165 7.42182 14.2309V13.0652H8.5875C8.7731 13.0652 8.9511 12.9915 9.08234 12.8603C9.21358 12.729 9.28731 12.551 9.28731 12.3654C9.28731 12.1798 9.21358 12.0018 9.08234 11.8706C8.9511 11.7394 8.7731 11.6656 8.5875 11.6656H8.5865Z" fill="#0E7BFF"/>
<path d="M17.9496 10.3452C17.9221 10.2065 17.8532 10.0794 17.752 9.98063C17.6509 9.88185 17.5221 9.81602 17.3828 9.79182C17.2435 9.76762 17.1001 9.78618 16.9715 9.84506C16.843 9.90394 16.7352 10.0004 16.6626 10.1217C16.5899 10.243 16.5556 10.3834 16.5643 10.5246C16.573 10.6657 16.6243 10.8009 16.7113 10.9124C16.7984 11.0238 16.9171 11.1063 17.0519 11.1489C17.1867 11.1915 17.3313 11.1924 17.4666 11.1512C17.6327 11.1007 17.7742 10.9903 17.8634 10.8413C17.9527 10.6924 17.9834 10.5156 17.9496 10.3452Z" fill="#98B7D7"/>
<path d="M19.1448 11.6636C18.9592 11.6636 18.7811 11.7373 18.6499 11.8686C18.5186 11.9999 18.4448 12.1779 18.4448 12.3636V12.4106C18.4448 12.5962 18.5186 12.7743 18.6499 12.9055C18.7811 13.0368 18.9592 13.1106 19.1448 13.1106C19.3305 13.1106 19.5085 13.0368 19.6398 12.9055C19.7711 12.7743 19.8448 12.5962 19.8448 12.4106V12.3636C19.8448 12.1779 19.7711 11.9999 19.6398 11.8686C19.5085 11.7373 19.3305 11.6636 19.1448 11.6636Z" fill="#98B7D7"/>
<path d="M15.3826 11.6636C15.197 11.6636 15.0189 11.7373 14.8877 11.8686C14.7564 11.9999 14.6826 12.1779 14.6826 12.3636V12.4106C14.6826 12.5962 14.7564 12.7743 14.8877 12.9055C15.0189 13.0368 15.197 13.1106 15.3826 13.1106C15.5683 13.1106 15.7463 13.0368 15.8776 12.9055C16.0089 12.7743 16.0826 12.5962 16.0826 12.4106V12.3636C16.0826 12.1779 16.0089 11.9999 15.8776 11.8686C15.7463 11.7373 15.5683 11.6636 15.3826 11.6636Z" fill="#98B7D7"/>
<path d="M17.9501 14.1067C17.9226 13.968 17.8537 13.8409 17.7525 13.7421C17.6513 13.6433 17.5226 13.5775 17.3833 13.5533C17.2439 13.5291 17.1006 13.5477 16.972 13.6065C16.8434 13.6654 16.7357 13.7619 16.663 13.8832C16.5904 14.0045 16.5561 14.1449 16.5648 14.2861C16.5735 14.4272 16.6247 14.5624 16.7118 14.6738C16.7988 14.7853 16.9176 14.8677 17.0524 14.9104C17.1872 14.953 17.3318 14.9538 17.4671 14.9127C17.6332 14.8622 17.7746 14.7517 17.8639 14.6028C17.9532 14.4538 17.9839 14.277 17.9501 14.1067Z" fill="#98B7D7"/>
<path d="M10.1843 3.73604C10.0625 3.86899 9.99671 4.04381 10.0007 4.22406C10.0046 4.40432 10.078 4.57609 10.2055 4.70358C10.333 4.83106 10.5047 4.90443 10.685 4.90837C10.8652 4.91232 11.04 4.84655 11.173 4.72476C11.2812 4.6164 11.4096 4.53043 11.5511 4.47178C11.6925 4.41312 11.8441 4.38292 11.9973 4.38292C12.1504 4.38292 12.302 4.41312 12.4434 4.47178C12.5849 4.53043 12.7133 4.6164 12.8215 4.72476C12.9545 4.84655 13.1293 4.91232 13.3095 4.90837C13.4898 4.90443 13.6616 4.83106 13.7891 4.70358C13.9165 4.57609 13.9899 4.40432 13.9939 4.22406C13.9978 4.04381 13.932 3.86899 13.8102 3.73604C13.329 3.25602 12.677 2.98645 11.9973 2.98645C11.3175 2.98645 10.6655 3.25602 10.1843 3.73604Z" fill="#0E7BFF"/>
<path d="M9.06448 2.61504C9.4496 2.22954 9.90693 1.92373 10.4103 1.71508C10.9137 1.50643 11.4533 1.39904 11.9982 1.39904C12.5431 1.39904 13.0826 1.50643 13.586 1.71508C14.0894 1.92373 14.5467 2.22954 14.9318 2.61504C14.9957 2.68471 15.0729 2.74073 15.159 2.77974C15.245 2.81874 15.3381 2.83991 15.4325 2.84198C15.527 2.84405 15.6209 2.82697 15.7086 2.79178C15.7962 2.75658 15.8759 2.70399 15.9427 2.63718C16.0095 2.57038 16.0621 2.49073 16.0973 2.40305C16.1325 2.31538 16.1496 2.22148 16.1475 2.12702C16.1454 2.03256 16.1243 1.93951 16.0853 1.85345C16.0463 1.7674 15.9902 1.69013 15.9206 1.62632C15.4056 1.11075 14.7941 0.701748 14.121 0.422691C13.4479 0.143635 12.7263 0 11.9977 0C11.269 0 10.5475 0.143635 9.87434 0.422691C9.20122 0.701748 8.5897 1.11075 8.07477 1.62632C8.0051 1.69013 7.94907 1.7674 7.91006 1.85345C7.87106 1.93951 7.84989 2.03256 7.84782 2.12702C7.84576 2.22148 7.86283 2.31538 7.89803 2.40305C7.93322 2.49073 7.98581 2.57038 8.05262 2.63718C8.11942 2.70399 8.19906 2.75658 8.28674 2.79178C8.37442 2.82697 8.46832 2.84405 8.56277 2.84198C8.65723 2.83991 8.75029 2.81874 8.83635 2.77974C8.9224 2.74073 8.99967 2.68471 9.06349 2.61504H9.06448Z" fill="#0E7BFF"/>
</svg>
