<svg width="20" height="20" viewBox="0 0 20 20" fill="none" xmlns="http://www.w3.org/2000/svg">
<g clip-path="url(#clip0_118_588)">
<path d="M5.83333 4.99998H19.1667C19.3877 4.99998 19.5996 4.91218 19.7559 4.7559C19.9122 4.59962 20 4.38766 20 4.16665C20 3.94563 19.9122 3.73367 19.7559 3.57739C19.5996 3.42111 19.3877 3.33331 19.1667 3.33331H5.83333C5.61232 3.33331 5.40036 3.42111 5.24408 3.57739C5.0878 3.73367 5 3.94563 5 4.16665C5 4.38766 5.0878 4.59962 5.24408 4.7559C5.40036 4.91218 5.61232 4.99998 5.83333 4.99998Z" fill="#8595AC"/>
<path d="M19.1667 9.16669H5.83333C5.61232 9.16669 5.40036 9.25448 5.24408 9.41076C5.0878 9.56705 5 9.77901 5 10C5 10.221 5.0878 10.433 5.24408 10.5893C5.40036 10.7456 5.61232 10.8334 5.83333 10.8334H19.1667C19.3877 10.8334 19.5996 10.7456 19.7559 10.5893C19.9122 10.433 20 10.221 20 10C20 9.77901 19.9122 9.56705 19.7559 9.41076C19.5996 9.25448 19.3877 9.16669 19.1667 9.16669Z" fill="#8595AC"/>
<path d="M19.1667 15H5.83333C5.61232 15 5.40036 15.0878 5.24408 15.2441C5.0878 15.4004 5 15.6123 5 15.8333C5 16.0543 5.0878 16.2663 5.24408 16.4226C5.40036 16.5789 5.61232 16.6667 5.83333 16.6667H19.1667C19.3877 16.6667 19.5996 16.5789 19.7559 16.4226C19.9122 16.2663 20 16.0543 20 15.8333C20 15.6123 19.9122 15.4004 19.7559 15.2441C19.5996 15.0878 19.3877 15 19.1667 15Z" fill="#8595AC"/>
<path d="M1.66667 5.83333C2.58714 5.83333 3.33333 5.08714 3.33333 4.16667C3.33333 3.24619 2.58714 2.5 1.66667 2.5C0.746192 2.5 0 3.24619 0 4.16667C0 5.08714 0.746192 5.83333 1.66667 5.83333Z" fill="#8595AC"/>
<path d="M1.66667 11.6666C2.58714 11.6666 3.33333 10.9205 3.33333 9.99998C3.33333 9.07951 2.58714 8.33331 1.66667 8.33331C0.746192 8.33331 0 9.07951 0 9.99998C0 10.9205 0.746192 11.6666 1.66667 11.6666Z" fill="#8595AC"/>
<path d="M1.66667 17.5C2.58714 17.5 3.33333 16.7538 3.33333 15.8334C3.33333 14.9129 2.58714 14.1667 1.66667 14.1667C0.746192 14.1667 0 14.9129 0 15.8334C0 16.7538 0.746192 17.5 1.66667 17.5Z" fill="#8595AC"/>
</g>
<defs>
<clipPath id="clip0_118_588">
<rect width="20" height="20" fill="white"/>
</clipPath>
</defs>
</svg>
