<svg width="16" height="16" viewBox="0 0 16 16" fill="none" xmlns="http://www.w3.org/2000/svg">
<g clip-path="url(#clip0_118_581)">
<path d="M4.66667 0H2.66667C1.95942 0 1.28115 0.280952 0.781049 0.781049C0.280952 1.28115 0 1.95942 0 2.66667L0 4.66667C0 5.37391 0.280952 6.05219 0.781049 6.55229C1.28115 7.05238 1.95942 7.33333 2.66667 7.33333H4.66667C5.37391 7.33333 6.05219 7.05238 6.55229 6.55229C7.05238 6.05219 7.33333 5.37391 7.33333 4.66667V2.66667C7.33333 1.95942 7.05238 1.28115 6.55229 0.781049C6.05219 0.280952 5.37391 0 4.66667 0V0ZM6 4.66667C6 5.02029 5.85952 5.35943 5.60948 5.60948C5.35943 5.85952 5.02029 6 4.66667 6H2.66667C2.31304 6 1.97391 5.85952 1.72386 5.60948C1.47381 5.35943 1.33333 5.02029 1.33333 4.66667V2.66667C1.33333 2.31304 1.47381 1.97391 1.72386 1.72386C1.97391 1.47381 2.31304 1.33333 2.66667 1.33333H4.66667C5.02029 1.33333 5.35943 1.47381 5.60948 1.72386C5.85952 1.97391 6 2.31304 6 2.66667V4.66667Z" fill="#0E1D44"/>
<path d="M13.3334 0H11.3334C10.6262 0 9.94789 0.280952 9.4478 0.781049C8.9477 1.28115 8.66675 1.95942 8.66675 2.66667V4.66667C8.66675 5.37391 8.9477 6.05219 9.4478 6.55229C9.94789 7.05238 10.6262 7.33333 11.3334 7.33333H13.3334C14.0407 7.33333 14.7189 7.05238 15.219 6.55229C15.7191 6.05219 16.0001 5.37391 16.0001 4.66667V2.66667C16.0001 1.95942 15.7191 1.28115 15.219 0.781049C14.7189 0.280952 14.0407 0 13.3334 0V0ZM14.6667 4.66667C14.6667 5.02029 14.5263 5.35943 14.2762 5.60948C14.0262 5.85952 13.687 6 13.3334 6H11.3334C10.9798 6 10.6407 5.85952 10.3906 5.60948C10.1406 5.35943 10.0001 5.02029 10.0001 4.66667V2.66667C10.0001 2.31304 10.1406 1.97391 10.3906 1.72386C10.6407 1.47381 10.9798 1.33333 11.3334 1.33333H13.3334C13.687 1.33333 14.0262 1.47381 14.2762 1.72386C14.5263 1.97391 14.6667 2.31304 14.6667 2.66667V4.66667Z" fill="#0E1D44"/>
<path d="M4.66667 8.66669H2.66667C1.95942 8.66669 1.28115 8.94764 0.781049 9.44774C0.280952 9.94783 0 10.6261 0 11.3334L0 13.3334C0 14.0406 0.280952 14.7189 0.781049 15.219C1.28115 15.7191 1.95942 16 2.66667 16H4.66667C5.37391 16 6.05219 15.7191 6.55229 15.219C7.05238 14.7189 7.33333 14.0406 7.33333 13.3334V11.3334C7.33333 10.6261 7.05238 9.94783 6.55229 9.44774C6.05219 8.94764 5.37391 8.66669 4.66667 8.66669ZM6 13.3334C6 13.687 5.85952 14.0261 5.60948 14.2762C5.35943 14.5262 5.02029 14.6667 4.66667 14.6667H2.66667C2.31304 14.6667 1.97391 14.5262 1.72386 14.2762C1.47381 14.0261 1.33333 13.687 1.33333 13.3334V11.3334C1.33333 10.9797 1.47381 10.6406 1.72386 10.3905C1.97391 10.1405 2.31304 10 2.66667 10H4.66667C5.02029 10 5.35943 10.1405 5.60948 10.3905C5.85952 10.6406 6 10.9797 6 11.3334V13.3334Z" fill="#0E1D44"/>
<path d="M13.3334 8.66669H11.3334C10.6262 8.66669 9.94789 8.94764 9.4478 9.44774C8.9477 9.94783 8.66675 10.6261 8.66675 11.3334V13.3334C8.66675 14.0406 8.9477 14.7189 9.4478 15.219C9.94789 15.7191 10.6262 16 11.3334 16H13.3334C14.0407 16 14.7189 15.7191 15.219 15.219C15.7191 14.7189 16.0001 14.0406 16.0001 13.3334V11.3334C16.0001 10.6261 15.7191 9.94783 15.219 9.44774C14.7189 8.94764 14.0407 8.66669 13.3334 8.66669ZM14.6667 13.3334C14.6667 13.687 14.5263 14.0261 14.2762 14.2762C14.0262 14.5262 13.687 14.6667 13.3334 14.6667H11.3334C10.9798 14.6667 10.6407 14.5262 10.3906 14.2762C10.1406 14.0261 10.0001 13.687 10.0001 13.3334V11.3334C10.0001 10.9797 10.1406 10.6406 10.3906 10.3905C10.6407 10.1405 10.9798 10 11.3334 10H13.3334C13.687 10 14.0262 10.1405 14.2762 10.3905C14.5263 10.6406 14.6667 10.9797 14.6667 11.3334V13.3334Z" fill="#0E1D44"/>
</g>
<defs>
<clipPath id="clip0_118_581">
<rect width="16" height="16" fill="white"/>
</clipPath>
</defs>
</svg>
