<svg width="80" height="50" viewBox="0 0 80 50" fill="none" xmlns="http://www.w3.org/2000/svg">
<path d="M16.3837 9.7991C29.4267 -3.14365 50.5736 -3.14365 63.6166 9.7991L65.1863 11.3568C65.8385 12.0039 65.8385 13.0531 65.1863 13.7003L59.8166 19.0288C59.4905 19.3524 58.9618 19.3524 58.6357 19.0288L56.4756 16.8852C47.3765 7.85605 32.6239 7.85605 23.5248 16.8852L21.2114 19.1808C20.8853 19.5044 20.3567 19.5044 20.0306 19.1808L14.6608 13.8523C14.0087 13.2052 14.0087 12.1559 14.6608 11.5088L16.3837 9.7991ZM74.7218 20.819L79.5009 25.5614C80.1531 26.2086 80.1531 27.2578 79.501 27.9049L57.9516 49.289C57.2994 49.9362 56.2421 49.9362 55.5899 49.289C55.5899 49.289 55.5899 49.289 55.5899 49.289L40.2955 34.1121C40.1324 33.9503 39.8681 33.9503 39.7051 34.1121C39.7051 34.1121 39.7051 34.1121 39.7051 34.1121L24.411 49.289C23.7588 49.9362 22.7015 49.9362 22.0493 49.289C22.0493 49.289 22.0493 49.289 22.0493 49.289L0.49932 27.9047C-0.152829 27.2575 -0.152829 26.2083 0.49932 25.5612L5.27845 20.8188C5.9306 20.1716 6.98794 20.1716 7.64009 20.8188L22.9348 35.9959C23.0978 36.1577 23.3621 36.1577 23.5252 35.9959C23.5252 35.9959 23.5252 35.9959 23.5252 35.9959L38.8191 20.8188C39.4712 20.1716 40.5285 20.1716 41.1807 20.8187C41.1807 20.8187 41.1807 20.8187 41.1807 20.8187L56.4754 35.9959C56.6384 36.1577 56.9027 36.1577 57.0658 35.9959L72.3602 20.819C73.0123 20.1719 74.0697 20.1719 74.7218 20.819Z" fill="#3B99FC"/>
</svg>
