<svg width="24" height="25" viewBox="0 0 24 25" fill="none" xmlns="http://www.w3.org/2000/svg">
<g clip-path="url(#clip0_380_15642)">
<path d="M22.2186 10.313H20.4186V7.31281C20.4188 6.98175 20.1506 6.71313 19.8193 6.71295C19.8192 6.71295 19.8188 6.71295 19.8186 6.71295H15.0185C14.6872 6.71295 14.4186 6.98157 14.4186 7.31281C14.4186 7.64423 14.6872 7.91285 15.0185 7.91285H19.2186V10.3128H3.61861C2.95576 10.3128 2.41853 9.77559 2.41853 9.11293C2.41853 8.45008 2.95576 7.91285 3.61861 7.91285H9.0186C9.35003 7.91285 9.61865 7.64423 9.61865 7.31281C9.61865 6.98139 9.35003 6.71277 9.0186 6.71277H3.61861C2.29365 6.71405 1.21991 7.78779 1.21863 9.11293V22.3129C1.22009 23.6379 2.29365 24.7114 3.61861 24.7129H22.2186C22.55 24.7129 22.8186 24.4443 22.8186 24.1128V10.9129C22.8188 10.5818 22.5506 10.3132 22.2193 10.313C22.2191 10.313 22.2189 10.313 22.2186 10.313ZM3.61861 23.513C2.95613 23.5123 2.41926 22.9754 2.41853 22.3129V11.1791C2.78163 11.3952 3.196 11.5105 3.61861 11.5129H21.6187V15.113H17.4186C17.0876 15.1128 16.8189 15.381 16.8188 15.7123V15.713V19.3131C16.8188 19.6443 17.0874 19.9129 17.4186 19.9129H21.6187V23.513H3.61861ZM21.6185 18.713H18.0187V16.3129H21.6185V18.713Z" fill="#98B7D7"/>
<path d="M9.39361 4.18143L11.4186 2.56076V8.51282C11.4186 8.84424 11.6872 9.11286 12.0186 9.11286C12.3499 9.11286 12.6185 8.84424 12.6185 8.51282V2.56076L14.6436 4.18125C14.9024 4.38834 15.2801 4.34641 15.4874 4.0875C15.6945 3.82859 15.6524 3.45084 15.3935 3.24374L12.3936 0.843766C12.1741 0.669265 11.8632 0.669265 11.6436 0.843766L8.64361 3.24374C8.3847 3.45084 8.34258 3.82859 8.54986 4.0875C8.75695 4.34641 9.1347 4.38834 9.39343 4.18125V4.18143H9.39361Z" fill="#0085FF"/>
</g>
<defs>
<clipPath id="clip0_380_15642">
<rect width="24" height="24" fill="white" transform="translate(0 0.712891)"/>
</clipPath>
</defs>
</svg>
