<svg width="24" height="24" viewBox="0 0 24 24" fill="none" xmlns="http://www.w3.org/2000/svg">
<path d="M11.9999 23.9998C18.6273 23.9998 23.9998 18.6273 23.9998 11.9999C23.9998 5.37254 18.6273 0 11.9999 0C5.37254 0 0 5.37254 0 11.9999C0 18.6273 5.37254 23.9998 11.9999 23.9998Z" fill="#305679"/>
<path d="M4 12.5298C4 12.1765 4 11.82 4 11.4667C4.02501 11.2698 4.04376 11.0759 4.0719 10.8821C4.30009 9.33441 4.90028 7.94934 5.93809 6.78C7.85431 4.6258 10.2613 3.72534 13.1153 4.07239C14.6658 4.26311 16.0506 4.88843 17.2166 5.9327C19.4891 7.96497 20.3769 10.51 19.8549 13.5084C19.5079 15.5 18.4638 17.1102 16.8696 18.3514C15.8411 19.1518 14.6814 19.6615 13.3935 19.8803C13.109 19.9272 12.8183 19.9616 12.5307 20.0023C12.1775 20.0023 11.8211 20.0023 11.4679 20.0023C11.4242 19.9929 11.3773 19.9773 11.3335 19.9741C11.049 19.9366 10.7646 19.9179 10.4832 19.8616C8.51701 19.4708 6.91339 18.4796 5.67551 16.9038C4.86276 15.8658 4.34386 14.6934 4.12504 13.3927C4.07502 13.1051 4.04064 12.8174 4 12.5298ZM11.5273 9.18434C10.6489 9.11243 9.78615 9.04051 8.92651 8.96548C8.84211 8.95922 8.82023 8.99049 8.80772 9.06553C8.71707 9.64394 8.61704 10.2224 8.53577 10.8039C8.50138 11.0384 8.50763 11.276 8.49513 11.5136C9.52044 11.5136 10.5208 11.5136 11.5242 11.5136C11.5273 10.7289 11.5273 9.94722 11.5273 9.18434ZM12.4776 11.5199C13.4935 11.5199 14.4938 11.5199 15.4942 11.5199C15.5379 11.0759 15.3347 9.51263 15.1722 9.00612C14.275 9.0624 13.381 9.11868 12.4807 9.17496C12.4776 9.94722 12.4776 10.7289 12.4776 11.5199ZM7.50733 11.523C7.62299 10.6163 7.73552 9.71898 7.84806 8.83729C7.22286 8.69034 6.58829 8.54026 5.93497 8.38706C5.36604 9.34379 5.03782 10.3881 4.9628 11.5261C5.82869 11.523 6.68207 11.523 7.50733 11.523ZM12.4776 12.4735C12.4776 13.2489 12.4776 14.0118 12.4776 14.7903C12.5526 14.7965 12.6245 14.8028 12.6964 14.8059C13.1341 14.8278 13.5686 14.8434 14.0062 14.8747C14.3532 14.8966 14.7002 14.9341 15.0471 14.9716C15.1409 14.981 15.1847 14.9591 15.2003 14.8559C15.2753 14.3838 15.3691 13.9148 15.4348 13.4427C15.4785 13.1269 15.4879 12.8049 15.5129 12.4766C14.4907 12.4735 13.4935 12.4735 12.4776 12.4735ZM16.4945 12.4766C16.3788 13.3614 16.2663 14.24 16.1537 15.1123C16.7852 15.2624 17.4354 15.4156 18.0949 15.5688C18.6514 14.6214 18.9671 13.5928 19.0421 12.4766C18.1731 12.4766 17.3228 12.4766 16.4945 12.4766ZM16.4976 11.5199C17.3291 11.5199 18.1793 11.5199 19.039 11.5199C19.039 11.4792 19.0421 11.448 19.039 11.4198C18.9515 10.3787 18.6545 9.4032 18.1356 8.49336C18.0887 8.40895 18.0324 8.42771 17.9668 8.44647C17.7417 8.50587 17.5166 8.57153 17.2885 8.62155C16.904 8.70597 16.5195 8.78414 16.16 8.85605C16.2725 9.74712 16.385 10.6319 16.4976 11.5199ZM11.5273 12.4766C10.5145 12.4766 9.51107 12.4766 8.49825 12.4766C8.53264 13.3208 8.62955 14.1493 8.82961 14.9435C9.73613 14.8872 10.627 14.8309 11.5273 14.7746C11.5273 14.018 11.5273 13.252 11.5273 12.4766ZM7.51358 12.4766C6.67895 12.4766 5.82869 12.4766 4.97843 12.4766C4.97217 12.4954 4.96905 12.5048 4.96905 12.5141C5.03782 13.5678 5.33791 14.5558 5.86307 15.4719C5.88183 15.5031 5.96623 15.5219 6.01312 15.5094C6.38823 15.425 6.76022 15.328 7.13221 15.2405C7.37916 15.1842 7.62924 15.1405 7.84806 15.0967C7.73552 14.2181 7.62299 13.3552 7.51358 12.4766ZM14.9377 8.07753C14.7596 7.6742 14.6126 7.30214 14.4313 6.94571C14.1469 6.3798 13.7905 5.86079 13.2935 5.45434C13.0528 5.25736 12.7902 5.09166 12.4776 5.01662C12.4776 6.08591 12.4776 7.14269 12.4776 8.22448C13.2903 8.17445 14.0937 8.12756 14.9377 8.07753ZM9.07343 15.8721C9.24849 16.2723 9.3954 16.6381 9.57046 16.9883C9.85492 17.5604 10.2144 18.0826 10.7146 18.4921C10.9553 18.6891 11.2178 18.8486 11.5211 18.9267C11.5211 17.8574 11.5211 16.8038 11.5211 15.7251C10.7114 15.7751 9.91744 15.822 9.07343 15.8721ZM11.5242 5.026C11.5117 5.02287 11.4992 5.01974 11.4898 5.01974C11.4648 5.026 11.4398 5.03225 11.4148 5.04163C11.0365 5.16982 10.7271 5.40119 10.452 5.68258C9.93307 6.21097 9.58609 6.84566 9.30163 7.521C9.23286 7.68671 9.17346 7.85554 9.09531 8.05564C9.92369 8.11192 10.7208 8.16195 11.5242 8.2151C11.5242 7.13956 11.5242 6.09216 11.5242 5.026ZM12.4745 18.9642C13.8561 18.3796 14.4001 17.1727 14.9158 15.8877C14.0812 15.8346 13.281 15.7814 12.4745 15.7314C12.4745 16.8194 12.4745 17.8637 12.4745 18.9642ZM9.42041 18.5734C9.17346 18.1576 8.91088 17.7636 8.69519 17.3447C8.4795 16.9226 8.3107 16.4724 8.11376 16.0096C7.57922 16.1222 7.02905 16.2379 6.45075 16.3598C7.26663 17.3728 8.24193 18.1076 9.42041 18.5734ZM14.572 18.5578C15.7474 18.1138 16.7133 17.3947 17.5292 16.3942C16.9602 16.2691 16.4132 16.1472 15.8599 16.0253C15.5504 16.9445 15.1534 17.798 14.572 18.5578ZM17.5166 7.60542C16.8664 6.71747 15.2628 5.54188 14.6001 5.45746C15.1784 6.20784 15.5692 7.04576 15.8693 7.94934C16.4226 7.83366 16.9602 7.7211 17.5166 7.60542ZM8.12001 7.91495C8.31382 7.46472 8.47325 7.03326 8.67956 6.6268C8.88587 6.22035 9.1422 5.83578 9.37352 5.4387C8.2513 5.89206 7.30414 6.59554 6.51015 7.55852C7.06969 7.68358 7.6011 7.79927 8.12001 7.91495Z" fill="white"/>
</svg>
