<svg width="19" height="22" viewBox="0 0 19 22" fill="none" xmlns="http://www.w3.org/2000/svg">
<path d="M15.5 14C15.3674 14 15.2402 14.0527 15.1464 14.1465C15.0527 14.2403 15 14.3674 15 14.5V19C15 19.3979 14.842 19.7794 14.5607 20.0607C14.2794 20.342 13.8978 20.5 13.5 20.5H2.5C2.10218 20.5 1.72064 20.342 1.43934 20.0607C1.15804 19.7794 1 19.3979 1 19V3.00004C1 2.60221 1.15804 2.22068 1.43934 1.93938C1.72064 1.65807 2.10218 1.50004 2.5 1.50004H13.5C13.8407 1.49807 14.1717 1.61308 14.4378 1.82585C14.7039 2.03861 14.889 2.33625 14.962 2.66904C14.991 2.79846 15.0703 2.91105 15.1824 2.98203C15.2944 3.05301 15.4301 3.07658 15.5595 3.04754C15.6889 3.01849 15.8015 2.93923 15.8725 2.82718C15.9435 2.71512 15.967 2.57946 15.938 2.45004C15.8161 1.89508 15.5076 1.39873 15.0639 1.04384C14.6202 0.688947 14.0682 0.496997 13.5 0.500036H2.5C1.8372 0.500829 1.20178 0.764477 0.73311 1.23315C0.264441 1.70181 0.000793929 2.33724 0 3.00004V19C0.000793929 19.6628 0.264441 20.2983 0.73311 20.7669C1.20178 21.2356 1.8372 21.4992 2.5 21.5H13.5C14.1628 21.4992 14.7982 21.2356 15.2669 20.7669C15.7356 20.2983 15.9992 19.6628 16 19V14.5C16 14.3674 15.9473 14.2403 15.8536 14.1465C15.7598 14.0527 15.6326 14 15.5 14Z" fill="#222222"/>
<path d="M18.25 4.29294L17.817 4.04294C17.6463 3.94433 17.4579 3.88034 17.2625 3.85462C17.067 3.8289 16.8684 3.84195 16.678 3.89303C16.4876 3.94411 16.3092 4.03222 16.1529 4.15231C15.9966 4.27241 15.8655 4.42214 15.767 4.59294L9.94504 14.6774C9.75121 15.0136 9.63808 15.3901 9.61454 15.7774L9.53504 17.1004C9.52379 17.2859 9.56445 17.4709 9.65248 17.6346C9.7405 17.7983 9.8724 17.9342 10.0334 18.0271C10.1943 18.12 10.378 18.1662 10.5638 18.1605C10.7495 18.1548 10.93 18.0975 11.085 17.9949L12.189 17.2664C12.5124 17.0519 12.7819 16.7657 12.9765 16.4299L18.8 6.34194C18.8985 6.17129 18.9623 5.98292 18.988 5.78759C19.0136 5.59225 19.0005 5.39378 18.9495 5.20351C18.8984 5.01324 18.8103 4.83489 18.6903 4.67865C18.5703 4.52241 18.4207 4.39135 18.25 4.29294ZM12.11 15.9274C11.9931 16.1284 11.8312 16.2996 11.637 16.4274L10.533 17.1559L10.6125 15.8354C10.6273 15.6029 10.6958 15.377 10.8125 15.1754L15.635 6.82194L16.935 7.57194L12.11 15.9274ZM17.933 5.84194L17.433 6.70794L16.133 5.95794L16.633 5.09194C16.6658 5.03497 16.7095 4.98502 16.7616 4.94496C16.8138 4.9049 16.8733 4.8755 16.9367 4.85846C17.0002 4.84142 17.0664 4.83706 17.1316 4.84563C17.1968 4.85421 17.2596 4.87555 17.3165 4.90844L17.7495 5.15844C17.8065 5.19123 17.8565 5.23493 17.8965 5.28704C17.9366 5.33915 17.966 5.39865 17.983 5.46214C18.0001 5.52562 18.0044 5.59184 17.9958 5.65701C17.9873 5.72218 17.9659 5.78502 17.933 5.84194Z" fill="#222222"/>
<path d="M13.5 5C13.5 4.86739 13.4473 4.74021 13.3536 4.64645C13.2598 4.55268 13.1326 4.5 13 4.5H5C4.86739 4.5 4.74021 4.55268 4.64645 4.64645C4.55268 4.74021 4.5 4.86739 4.5 5C4.5 5.13261 4.55268 5.25979 4.64645 5.35355C4.74021 5.44732 4.86739 5.5 5 5.5H13C13.1326 5.5 13.2598 5.44732 13.3536 5.35355C13.4473 5.25979 13.5 5.13261 13.5 5Z" fill="#222222"/>
<path d="M12.565 8C12.565 7.86739 12.5123 7.74021 12.4186 7.64645C12.3248 7.55268 12.1976 7.5 12.065 7.5H3.5C3.36739 7.5 3.24021 7.55268 3.14645 7.64645C3.05268 7.74021 3 7.86739 3 8C3 8.13261 3.05268 8.25979 3.14645 8.35355C3.24021 8.44732 3.36739 8.5 3.5 8.5H12.065C12.1976 8.5 12.3248 8.44732 12.4186 8.35355C12.5123 8.25979 12.565 8.13261 12.565 8Z" fill="#222222"/>
<path d="M10.835 11C10.835 10.8674 10.7823 10.7402 10.6886 10.6464C10.5948 10.5527 10.4676 10.5 10.335 10.5H3.5C3.36739 10.5 3.24021 10.5527 3.14645 10.6464C3.05268 10.7402 3 10.8674 3 11C3 11.1326 3.05268 11.2598 3.14645 11.3536C3.24021 11.4473 3.36739 11.5 3.5 11.5H10.335C10.4676 11.5 10.5948 11.4473 10.6886 11.3536C10.7823 11.2598 10.835 11.1326 10.835 11Z" fill="#222222"/>
<path d="M9.105 14C9.105 13.8674 9.05232 13.7402 8.95855 13.6464C8.86479 13.5527 8.73761 13.5 8.605 13.5H3.5C3.36739 13.5 3.24021 13.5527 3.14645 13.6464C3.05268 13.7402 3 13.8674 3 14C3 14.1326 3.05268 14.2598 3.14645 14.3536C3.24021 14.4473 3.36739 14.5 3.5 14.5H8.605C8.73761 14.5 8.86479 14.4473 8.95855 14.3536C9.05232 14.2598 9.105 14.1326 9.105 14Z" fill="#222222"/>
<path d="M3.5 16.5C3.36739 16.5 3.24021 16.5527 3.14645 16.6464C3.05268 16.7402 3 16.8674 3 17C3 17.1326 3.05268 17.2598 3.14645 17.3536C3.24021 17.4473 3.36739 17.5 3.5 17.5H8.04C8.17261 17.5 8.29979 17.4473 8.39355 17.3536C8.48732 17.2598 8.54 17.1326 8.54 17C8.54 16.8674 8.48732 16.7402 8.39355 16.6464C8.29979 16.5527 8.17261 16.5 8.04 16.5H3.5Z" fill="#222222"/>
</svg>
