<svg width="24" height="24" viewBox="0 0 24 24" fill="none" xmlns="http://www.w3.org/2000/svg">
<path d="M11.9998 24C18.6272 24 23.9998 18.6274 23.9998 12C23.9998 5.37258 18.6272 0 11.9998 0C5.37234 0 -0.000244141 5.37258 -0.000244141 12C-0.000244141 18.6274 5.37234 24 11.9998 24Z" fill="#FF0000"/>
<path d="M15.9266 7.48578H8.07291C7.75905 7.48578 7.44828 7.54762 7.15833 7.66778C6.86839 7.78793 6.60496 7.96404 6.38311 8.18604C6.16125 8.40804 5.98532 8.67159 5.86535 8.96161C5.74539 9.25163 5.68375 9.56245 5.68396 9.8763V14.1237C5.68375 14.4375 5.74539 14.7483 5.86535 15.0384C5.98532 15.3284 6.16125 15.5919 6.38311 15.8139C6.60496 16.0359 6.86839 16.212 7.15833 16.3322C7.44828 16.4524 7.75905 16.5142 8.07291 16.5142H15.9266C16.2404 16.5142 16.5512 16.4524 16.8412 16.3322C17.1311 16.212 17.3945 16.0359 17.6164 15.8139C17.8382 15.5919 18.0142 15.3284 18.1341 15.0384C18.2541 14.7483 18.3157 14.4375 18.3155 14.1237V9.8763C18.3157 9.56245 18.2541 9.25163 18.1341 8.96161C18.0142 8.67159 17.8382 8.40804 17.6164 8.18604C17.3945 7.96404 17.1311 7.78793 16.8412 7.66778C16.5512 7.54762 16.2404 7.48578 15.9266 7.48578ZM10.3355 13.9358V10.0642L13.664 12L10.3355 13.9358Z" fill="white"/>
</svg>
